<?xml version="1.0" encoding="utf-8"?>
<svg viewBox="188.872 188.872 122.256 122.256" width="122.256" height="122.256" xmlns="http://www.w3.org/2000/svg">
  <g transform="matrix(1, 0, 0, 1, 188.45399475097656, 188.55599975585938)">
    <path d="M122.674 30.88c0-16.869-13.695-30.564-30.564-30.564H30.982C14.113.316.418 14.011.418 30.88v61.128c0 16.869 13.695 30.564 30.564 30.564H92.11c16.869 0 30.564-13.695 30.564-30.564V30.88z" fill="#b0bec5"/>
  </g>
  <g transform="matrix(0.1523440033197403, 0, 0, 0.1523440033197403, 210.99993896484375, 210.99993896484375)"/>
  <g id="Flat" transform="matrix(1, 0, 0, 1, 218, 218)"/>
  <g transform="matrix(0.27496102452278137, 0, 0, 0.27496102452278137, 199.12841796875, 196.5486297607422)">
    <path d="M 155.5 104 C 160.167 103 162.333 103.5 162 105.5 L 163.5 105 L 166 106.5 L 166.5 108 L 168 107.5 L 170 111.5 L 171 119.5 L 173.5 122 L 178.5 123 L 184 127.5 L 185 131 L 183 131.5 L 186 132 C 185.067 138.029 186.4 142.195 190 144.5 L 185 148.5 L 190 151.5 L 184.5 152 L 182.5 151 L 181 153.5 L 187 156.5 L 179 159.5 C 178.667 162.833 179.833 164.667 182.5 165 C 184.722 164.25 185.555 164.75 185 166.5 L 186.5 166 L 188 166.5 C 186.02 168.853 182.853 170.02 178.5 170 C 177.333 168.167 176.167 168.667 175 171.5 L 174 180 L 191.5 174 L 193.5 175 L 193.5 173 L 200.5 172 L 200.5 173 C 182.172 180.339 167.339 191.172 156 205.5 L 142 226.5 L 138 242 L 160 242 L 160 229.5 L 167 212.5 L 181.5 194 C 183 194.5 183.5 194 183 192.5 L 190.5 186 L 194 185 C 193.25 183.222 193.75 182.555 195.5 183 L 212.5 174 L 231.5 171 L 231.5 172 L 230 172.5 L 233.5 173 L 238 172 C 237.25 173.778 237.75 174.445 239.5 174 L 241.5 174 L 244 174.5 L 241.5 175 L 240 174.5 C 240.583 176.5 239.417 177 236.5 176 L 227 182.5 L 227.5 184 L 226 184.5 L 227 186.5 L 226.5 188 C 228 187.5 228.5 188 228 189.5 C 229.889 192.278 233.722 193.111 239.5 192 L 244 191 C 244.667 193.541 244.167 195.208 242.5 196 L 240.5 197 L 238.5 193 L 238 200 C 241.667 199.167 244 200 245 202.5 L 246.5 206 L 248 205.5 L 248.5 207 L 249 204 L 251.5 205 L 252 203 L 249 202.5 L 253.5 201 L 253.5 202 L 252 202.5 L 254.5 203 L 258 201.5 L 257.5 200 L 259.5 201 L 261.5 200 L 261.5 201 C 260.567 202.733 258.567 203.4 255.5 203 L 248.5 208 L 240.5 210 C 239.5 208.333 238.5 208.667 237.5 211 L 225.5 210 C 217.979 216.145 208.812 220.645 198 223.5 L 210.5 224 L 215 223 L 200 241.5 L 200.827 242.085 L 36.989 241.962 L 36.158 242.208 L 36.5 242 L 53.5 236 L 72.5 232 L 97 231 C 98.633 225.517 101.8 221.183 106.5 218 L 118.5 211 L 125 210 L 125 207.5 L 131.5 201 L 142 195 L 137 209.5 L 139 210 C 140.574 203.616 144.074 198.616 149.5 195 C 151 195.5 151.5 195 151 193.5 L 154 189.5 L 154 177.5 L 149 160.5 L 148 148.5 L 149 146.5 L 146 142 C 144.222 142.75 143.555 142.25 144 140.5 C 141.375 138.792 140.375 135.459 141 130.5 L 143.5 127 C 147.5 126.333 149.833 127.333 150.5 130 L 151 127.5 C 149.319 124.292 145.986 123.125 141 124 C 141.041 116.337 143.541 110.67 148.5 107 L 155.5 104 Z M 168 129 C 165.333 130.333 164.333 133 165 137 L 171 142 C 169.667 146 171 147.333 175 146 L 178 142 L 180 134 L 168 129 Z M 227 173 C 226.333 174.333 227.333 175 230 175 L 231 178 L 233 177 C 234.333 177.667 234.667 177 234 175 L 237 175 L 227 173 Z M 224 175 L 225 176 C 225.667 178.667 226.667 179 228 177 C 227.333 175 226 174.333 224 175 Z M 225 188 L 224 192 L 225 192 L 225 188 Z M 227 189 L 226 192 L 227 192 L 227 189 Z" style="stroke: rgb(255, 255, 255); fill: rgb(255, 255, 255);"/>
    <path d="M 192.5 130 L 200 133 L 197.5 137 Q 191.667 137.833 190 134.5 Q 189.5 130.5 192.5 130 Z " style="stroke: rgb(255, 255, 255); fill: rgb(255, 255, 255);"/>
    <path d="M 278.5 166 L 277.5 170 Q 274 168 278.5 166 Z " style="fill: rgb(84, 84, 84); stroke: rgb(255, 255, 255);"/>
    <path d="M 274.5 171 L 274 172.5 L 273.5 174 L 273 172.5 L 274.5 171 Z " style="fill: rgb(84, 84, 84); stroke: rgb(255, 255, 255);"/>
    <path d="M 270.5 176 L 268.5 179 L 267 179.5 Q 270.75 181.25 267.5 183 L 267.5 181 L 265.5 182 L 266 180.5 L 268.5 177 L 270.5 176 Z " style="fill: rgb(84, 84, 84); stroke: rgb(255, 255, 255);"/>
    <path d="M 259.5 184 L 260 186 L 258 185.5 L 259.5 184 Z " style="fill: rgb(84, 84, 84); stroke: rgb(255, 255, 255);"/>
    <path d="M 255.5 186 L 257 186.5 L 255 187 L 254.5 189 L 253.5 187 L 255.5 186 Z " style="fill: rgb(84, 84, 84); stroke: rgb(255, 255, 255);"/>
    <path d="M 261.5 186 L 260.5 188 L 261.5 186 Z " style="fill: rgb(84, 84, 84); stroke: rgb(255, 255, 255);"/>
    <path d="M 250.5 188 L 251.5 190 L 248 190.5 L 248.5 192 L 245 190.5 L 250.5 188 Z " style="fill: rgb(84, 84, 84); stroke: rgb(255, 255, 255);"/>
    <path d="M 253.5 190 L 255.5 191 L 257 190.5 Q 255.75 193.25 254.5 191 L 253.5 190 Z " style="fill: rgb(84, 84, 84); stroke: rgb(255, 255, 255);"/>
    <path d="M 277.5 190 L 279 190.5 L 276.5 192 L 277.5 190 Z " style="fill: rgb(84, 84, 84); stroke: rgb(255, 255, 255);"/>
    <path d="M 284.5 190 L 286.5 193 L 284.5 190 Z " style="fill: rgb(84, 84, 84); stroke: rgb(255, 255, 255);"/>
    <path d="M 289.5 190 L 288.5 192 L 289.5 190 Z " style="fill: rgb(84, 84, 84); stroke: rgb(255, 255, 255);"/>
    <path d="M 264.5 192 L 265.5 194 L 264.5 192 Z " style="fill: rgb(84, 84, 84); stroke: rgb(255, 255, 255);"/>
    <path d="M 272.5 193 L 271.5 195 L 266.5 198 L 268.5 195 L 272.5 193 Z " style="fill: rgb(84, 84, 84); stroke: rgb(255, 255, 255);"/>
    <path d="M 264.5 197 L 265 198.5 L 263 199.5 L 264.5 197 Z " style="fill: rgb(84, 84, 84); stroke: rgb(255, 255, 255);"/>
    <path d="M 372.5 89 Q 375.833 87.875 375 90.5 L 373.5 93 L 372.5 91 L 372 94 L 375 95.5 L 375 104.5 L 373 105 L 373 106.5 L 373 108.5 L 372 112.5 L 374 113.5 L 375 111.5 L 374.5 110 L 376.5 111 L 375 108.5 L 377 103.5 L 380.5 100 L 383 100 Q 381.875 102.667 384.5 102 L 384 100.5 L 387 96.5 L 386.5 94 Q 383.875 93.167 385 96.5 L 382 98.5 L 387.5 91 L 387 92.5 L 387.5 94 L 391 91.5 L 389 90.5 L 391.5 89 Q 394.75 90.75 391 92.5 Q 386.985 104.485 378.5 112 Q 376.25 111.25 377 113.5 Q 371.679 117.036 370 123 L 365 124 L 362.5 129 L 357 131 Q 358.125 133.667 355.5 133 L 342.5 138 L 326 152.5 L 324 155.5 L 310 172.5 L 294.5 188 L 290.5 191 Q 289.25 188.75 288 191.5 L 287.5 193 L 283.5 191 L 280.5 190 L 278.5 190 L 277 190.5 L 277.5 192 L 276 191.5 L 275.5 193 L 274 192.5 L 273.5 194 L 271.5 194 L 270 194.5 L 270.5 196 L 268.5 195 L 268.5 197 Q 267.25 194.75 266 197.5 L 265.5 199 L 264.5 197 L 262.5 200 L 260 200.5 L 260.5 202 L 258.5 201 L 255 202.5 L 257 203.5 L 253.5 206 L 254.5 203 Q 251.167 201.875 252 204.5 L 250.5 204 Q 247.875 203.167 249 206.5 L 248 206.5 L 247.5 205 L 245 206.5 L 245 204.5 Q 245.5 200.5 242.5 200 L 238 200 L 238 193.5 L 240 194.5 Q 237.75 195.75 240.5 197 L 244 194.5 L 243 190.5 L 244.5 190 L 247.5 191 L 247.5 190 L 246 189.5 L 247.5 189 L 251.5 190 L 252.5 187 L 255 188.5 L 254 186.5 L 255.5 187 L 257 186.5 L 256.5 185 L 258.5 184 L 258.5 186 Q 261.125 186.833 260 183.5 L 263 182.5 L 265.5 179 L 266 181 L 268 180.5 L 267.5 179 L 270 177.5 Q 267.75 176.25 270.5 175 Q 272.75 175.75 272 173.5 L 274 173.5 L 275 171.5 Q 272.75 170.25 275.5 169 L 279 166.5 Q 276.5 165 280 163.5 L 283.5 159 L 285 159.5 L 286.5 157 Q 310.424 146.924 327.5 130 Q 329.25 133.75 336.5 132 L 351 129 Q 355.227 123.932 354 112.5 Q 350.8 110.2 352 103.5 Q 354 99 356 102.5 L 357 106.5 L 356 111.5 L 357 111.5 L 357.5 108 L 359 110.5 L 359.5 119 Q 362.25 117.75 360 116.5 L 362 105.5 Q 359.333 103.167 360 97.5 L 362.5 94 Q 364.75 93.25 364 95.5 L 366 103.5 L 365.5 105 Q 368.5 104.125 367 108.5 L 365 111.5 L 366.5 116 L 367 112 L 369.5 111 L 369.5 113 Q 372.5 113.875 371 109.5 L 372 107.5 L 370 108.5 Q 370.667 111.125 368 110 L 368.5 107 L 370 107.5 L 369 104.5 L 370 103.5 L 370 91.5 L 372.5 89 Z M 362 98 L 361 101 L 362 101 L 362 98 Z M 374 99 Q 374 102 371 101 L 371 104 Q 373 107 374 104 L 374 99 Z M 379 105 L 376 108 L 379 109 L 380 109 L 379 105 Z M 363 113 L 362 116 L 363 116 L 363 113 Z M 357 115 L 356 118 L 357 118 L 357 115 Z M 369 117 L 368 119 L 370 120 L 369 117 Z M 366 119 L 366 121 L 366 122 L 369 122 L 368 121 L 368 120 L 366 119 Z M 359 125 L 358 128 L 362 127 Q 363 124 361 125 L 359 125 Z M 354 131 L 354 133 L 356 132 L 354 131 Z M 250 202 L 250 203 L 252 203 L 250 202 Z " style="stroke: rgb(255, 255, 255); fill: rgb(255, 255, 255);"/>
    <path d="M 346.5 97 L 349 98 L 349 103.5 L 347 107 Q 344.333 105.875 345 108.5 Q 341.8 111.008 343 117 L 348 118 Q 349.125 120.667 346.5 120 L 339.5 124 L 329 127 L 331 116.5 L 345 101.5 L 346.5 97 Z " style="stroke: rgb(255, 255, 255); fill: rgb(255, 255, 255);"/>
    <path d="M 164.5 106 L 163.5 108 L 164.5 106 Z " style="fill: rgb(126, 126, 126); stroke: rgb(255, 255, 255);"/>
    <path d="M 151.5 109 L 150.5 111 L 151.5 109 Z " style="fill: rgb(126, 126, 126); stroke: rgb(255, 255, 255);"/>
    <path d="M 180.5 124 L 181.5 126 L 180.5 124 Z " style="fill: rgb(126, 126, 126); stroke: rgb(255, 255, 255);"/>
    <path d="M 148.5 125 L 151 127.5 L 150.5 130 L 148.5 125 Z " style="fill: rgb(126, 126, 126); stroke: rgb(255, 255, 255);"/>
    <path d="M 166.5 128 L 167.5 130 L 166.5 128 Z " style="fill: rgb(126, 126, 126); stroke: rgb(255, 255, 255);"/>
    <path d="M 183.5 131 L 186 131.5 L 183.5 132 L 183.5 131 Z " style="fill: rgb(126, 126, 126); stroke: rgb(255, 255, 255);"/>
    <path d="M 197.5 131 L 198.5 133 L 197.5 131 Z " style="stroke: rgb(255, 255, 255); fill: rgb(255, 255, 255);"/>
    <path d="M 178.5 132 L 179.5 134 L 178.5 132 Z " style="fill: rgb(126, 126, 126); stroke: rgb(255, 255, 255);"/>
    <path d="M 195.5 132 L 194.5 134 L 193 133.5 L 195.5 132 Z " style="stroke: rgb(255, 255, 255); fill: rgb(255, 255, 255);"/>
    <path d="M 190.5 135 L 193 136.5 L 191.5 137 L 190.5 135 Z " style="stroke: rgb(255, 255, 255); fill: rgb(255, 255, 255);"/>
    <path d="M 199.5 135 L 198.5 137 L 199.5 135 Z " style="fill: rgb(126, 126, 126); stroke: rgb(255, 255, 255);"/>
    <path d="M 171.5 143 L 172 145.5 L 171 145.5 L 171.5 143 Z " style="fill: rgb(126, 126, 126); stroke: rgb(255, 255, 255);"/>
    <path d="M 175.5 144 L 174.5 146 L 175.5 144 Z " style="fill: rgb(126, 126, 126); stroke: rgb(255, 255, 255);"/>
    <path d="M 182.5 164 L 180 167.5 L 180.5 169 L 179 167.5 L 179.5 165 Q 181 167.5 182.5 164 Z " style="fill: rgb(126, 126, 126); stroke: rgb(255, 255, 255);"/>
    <path d="M 185.5 165 L 186 166.5 L 185.5 169 Q 182.75 167.75 185 166.5 L 185.5 165 Z " style="fill: rgb(126, 126, 126); stroke: rgb(255, 255, 255);"/>
    <path d="M 177.5 169 L 175.5 172 L 177.5 169 Z " style="fill: rgb(126, 126, 126); stroke: rgb(255, 255, 255);"/>
    <path d="M 202.5 171 L 204 171.5 L 201.5 173 L 202.5 171 Z " style="fill: rgb(126, 126, 126); stroke: rgb(255, 255, 255);"/>
    <path d="M 224.5 171 L 228 171.5 L 224.5 172 L 224.5 171 Z " style="fill: rgb(126, 126, 126); stroke: rgb(255, 255, 255);"/>
    <path d="M 232.5 171 L 235 171.5 Q 234.25 173.75 230.5 173 L 230.5 172 L 232.5 171 Z " style="stroke: rgb(255, 255, 255); fill: rgb(255, 255, 255);"/>
    <path d="M 196.5 172 L 199 173.5 L 197.5 173 L 196.5 172 Z " style="fill: rgb(126, 126, 126); stroke: rgb(255, 255, 255);"/>
    <path d="M 238 172 Q 240.667 170.875 240 173.5 L 242 173.5 L 240.5 176 L 240 174 Q 237 175 238 172 Z " style="stroke: rgb(255, 255, 255); fill: rgb(255, 255, 255);"/>
    <path d="M 192.5 173 L 194.5 176 L 192.5 175 L 192.5 177 Q 189.75 175.75 192 174.5 L 192.5 173 Z " style="fill: rgb(126, 126, 126); stroke: rgb(255, 255, 255);"/>
    <path d="M 221.5 173 L 223 173.5 L 219.5 175 L 219.5 174 L 221.5 173 Z " style="fill: rgb(126, 126, 126); stroke: rgb(255, 255, 255);"/>
    <path d="M 226.5 173 L 237 174.5 L 234 175 L 235 177.5 L 233.5 177 L 232 177.5 L 232.5 179 L 230 178 L 229.5 180 L 227.5 177 L 224 177.5 L 224.5 176 L 223 175.5 L 227 174.5 L 226.5 173 Z M 228 175 Q 228 179 230 176 L 228 175 Z " style="stroke: rgb(255, 255, 255); fill: rgb(255, 255, 255);"/>
    <path d="M 225.5 179 L 227 182 L 229 182.5 L 227.5 183 L 225.5 179 Z " style="fill: rgb(126, 126, 126); stroke: rgb(255, 255, 255);"/>
    <path d="M 200.5 182 L 203 183.5 L 201.5 184 L 199 183.5 L 200.5 182 Z " style="fill: rgb(126, 126, 126); stroke: rgb(255, 255, 255);"/>
    <path d="M 225.5 183 L 228 184 L 227.5 186 L 225.5 183 Z " style="fill: rgb(126, 126, 126); stroke: rgb(255, 255, 255);"/>
    <path d="M 192.5 184 L 194 184.5 L 191.5 186 L 192.5 184 Z " style="fill: rgb(126, 126, 126); stroke: rgb(255, 255, 255);"/>
    <path d="M 176.5 186 L 174.5 189 L 176.5 186 Z " style="fill: rgb(126, 126, 126); stroke: rgb(255, 255, 255);"/>
    <path d="M 187.5 188 L 186.5 190 L 187.5 188 Z " style="fill: rgb(126, 126, 126); stroke: rgb(255, 255, 255);"/>
    <path d="M 224.5 188 L 225 191.5 L 224 191.5 L 224.5 188 Z " style="fill: rgb(126, 126, 126); stroke: rgb(255, 255, 255);"/>
    <path d="M 226.5 189 L 227 191.5 L 226 191.5 L 226.5 189 Z " style="fill: rgb(126, 126, 126); stroke: rgb(255, 255, 255);"/>
    <path d="M 170.5 191 L 169.5 193 L 170.5 191 Z " style="fill: rgb(126, 126, 126); stroke: rgb(255, 255, 255);"/>
    <path d="M 179.5 196 L 176.5 200 L 179.5 196 Z " style="fill: rgb(126, 126, 126); stroke: rgb(255, 255, 255);"/>
    <path d="M 143.5 201 L 142.5 203 L 143.5 201 Z " style="fill: rgb(126, 126, 126); stroke: rgb(255, 255, 255);"/>
    <path d="M 157.5 204 L 156.5 206 L 157.5 204 Z " style="fill: rgb(126, 126, 126); stroke: rgb(255, 255, 255);"/>
    <path d="M 124.5 208 L 123.5 210 L 124.5 208 Z " style="fill: rgb(126, 126, 126); stroke: rgb(255, 255, 255);"/>
    <path d="M 169.5 209 L 168.5 211 L 169.5 209 Z " style="fill: rgb(126, 126, 126); stroke: rgb(255, 255, 255);"/>
    <path d="M 239.5 209 L 240 211 L 238 210.5 L 239.5 209 Z " style="fill: rgb(126, 126, 126); stroke: rgb(255, 255, 255);"/>
    <path d="M 152.5 210 L 151.5 212 L 152.5 210 Z " style="fill: rgb(126, 126, 126); stroke: rgb(255, 255, 255);"/>
    <path d="M 212.5 227 L 211.5 229 L 212.5 227 Z " style="fill: rgb(126, 126, 126); stroke: rgb(255, 255, 255);"/>
    <path d="M 78.5 231 L 81 231.5 L 78.5 232 L 78.5 231 Z " style="fill: rgb(126, 126, 126); stroke: rgb(255, 255, 255);"/>
    <path d="M 207.5 233 L 206.5 235 L 207.5 233 Z " style="fill: rgb(126, 126, 126); stroke: rgb(255, 255, 255);"/>
    <path d="M 159.5 234 L 160 241.5 L 159 241.5 L 159.5 234 Z " style="fill: rgb(126, 126, 126); stroke: rgb(255, 255, 255);"/>
    <path d="M 389.5 89 L 389.5 91 L 391.5 92 L 393 91.5 L 389.5 93 L 386 95.5 L 387.5 98 Q 386.25 95.75 385 98.5 L 386 100.5 L 383 102.5 L 386 103.5 L 382 105.5 L 380 108.5 L 380.5 110 L 378.5 109 L 374 112.5 L 369.5 120 Q 368.25 117.75 367 120.5 L 369 121.5 L 365 122 L 366 124.5 L 364 123.5 L 366 119 Q 368.667 120.125 368 117.5 L 369 115.5 L 368.5 114 Q 369.75 116.25 371 113.5 L 365 111.5 L 366.5 109 L 370 110 L 368 106.5 L 370 106 L 370.5 108 L 372 107.5 L 371 112.5 L 373.5 111 L 375 110.5 L 373.5 108 L 376.5 110 L 377.5 108 L 376 107.5 L 376 105.5 L 376.5 104 L 377.5 106 L 378.5 103 Q 381.25 104.25 379 105.5 L 379.5 108 L 382 104.5 L 380.5 102 Q 381.75 104.25 383 101.5 Q 383.75 99.25 381.5 100 L 381.5 99 L 385 96.5 L 385 94 Q 387.667 95.125 387 92.5 L 385 92.5 L 389.5 89 Z M 372 114 L 370 117 L 372 116 L 372 114 Z " style="stroke: rgb(255, 255, 255); fill: rgb(255, 255, 255);"/>
    <path d="M 373.5 90 Q 375.75 90.75 375 94.5 L 373.5 94 L 371.5 95 L 372 93.5 L 373.5 90 Z " style="fill: rgb(168, 168, 168); stroke: rgb(255, 255, 255);"/>
    <path d="M 369.5 93 L 370 103.5 L 369 103.5 L 369.5 93 Z " style="fill: rgb(168, 168, 168); stroke: rgb(255, 255, 255);"/>
    <path d="M 345.5 97 L 346 99.5 L 345 99.5 L 345.5 97 Z " style="fill: rgb(168, 168, 168); stroke: rgb(255, 255, 255);"/>
    <path d="M 361.5 98 L 362 100.5 L 361 100.5 L 361.5 98 Z " style="fill: rgb(168, 168, 168); stroke: rgb(255, 255, 255);"/>
    <path d="M 373.5 99 L 374 103.5 L 373.5 105 Q 376.125 104.333 375 107 Q 372.333 108.125 373 105.5 Q 370.25 104.417 371 101 Q 373.75 102 373.5 99 Z " style="stroke: rgb(255, 255, 255); fill: rgb(255, 255, 255);"/>
    <path d="M 344.5 101 L 343.5 103 L 344.5 101 Z " style="fill: rgb(168, 168, 168); stroke: rgb(255, 255, 255);"/>
    <path d="M 353.5 101 L 352.5 103 L 353.5 101 Z " style="fill: rgb(168, 168, 168); stroke: rgb(255, 255, 255);"/>
    <path d="M 363.5 102 L 364 103.5 L 361 105.5 L 363.5 102 Z " style="fill: rgb(168, 168, 168); stroke: rgb(255, 255, 255);"/>
    <path d="M 348.5 104 L 347.5 106 L 348.5 104 Z " style="fill: rgb(168, 168, 168); stroke: rgb(255, 255, 255);"/>
    <path d="M 356.5 104 L 358 107.5 L 356.5 112 L 356 107.5 L 356 105.5 L 356.5 104 Z " style="fill: rgb(168, 168, 168); stroke: rgb(255, 255, 255);"/>
    <path d="M 342.5 105 L 346 107.5 L 344.5 107 L 342.5 108 L 342.5 105 Z " style="stroke: rgb(255, 255, 255); fill: rgb(255, 255, 255);"/>
    <path d="M 340.5 109 L 340.5 112 Q 337.5 110.5 340.5 109 Z " style="fill: rgb(168, 168, 168); stroke: rgb(255, 255, 255);"/>
    <path d="M 355.5 113 L 357 117.5 L 356 117.5 L 355.5 113 Z " style="fill: rgb(168, 168, 168); stroke: rgb(255, 255, 255);"/>
    <path d="M 362.5 113 L 363 115.5 L 359 118.5 L 359.5 116 Q 360.75 118.25 362 115.5 L 362.5 113 Z " style="fill: rgb(168, 168, 168); stroke: rgb(255, 255, 255);"/>
    <path d="M 366.5 113 L 367 115.5 L 366 115.5 L 366.5 113 Z " style="fill: rgb(168, 168, 168); stroke: rgb(255, 255, 255);"/>
    <path d="M 375.5 115 L 372.5 119 L 375.5 115 Z " style="fill: rgb(168, 168, 168); stroke: rgb(255, 255, 255);"/>
    <path d="M 330.5 118 L 331 120.5 L 330 120.5 L 330.5 118 Z " style="stroke: rgb(255, 255, 255); fill: rgb(255, 255, 255);"/>
    <path d="M 171.5 119 L 172.5 121 L 171.5 119 Z " style="fill: rgb(168, 168, 168); stroke: rgb(255, 255, 255);"/>
    <path d="M 371.5 120 L 370.5 122 L 371.5 120 Z " style="fill: rgb(168, 168, 168); stroke: rgb(255, 255, 255);"/>
    <path d="M 339.5 122 L 340.5 124 L 339.5 122 Z " style="fill: rgb(168, 168, 168); stroke: rgb(255, 255, 255);"/>
    <path d="M 362.5 124 L 362 125.5 L 364 128.5 L 361.5 127 L 360.5 128 Q 356.75 129.25 358 125.5 L 360.5 125 L 362.5 124 Z " style="stroke: rgb(255, 255, 255); fill: rgb(255, 255, 255);"/>
    <path d="M 350.5 128 L 351.5 130 L 350.5 128 Z " style="fill: rgb(168, 168, 168); stroke: rgb(255, 255, 255);"/>
    <path d="M 191.5 130 L 190.5 132 L 191.5 130 Z " style="stroke: rgb(255, 255, 255); fill: rgb(255, 255, 255);"/>
    <path d="M 356.5 130 L 357.5 132 Q 356.25 129.75 355 132.5 L 355.5 134 L 354 131 L 356.5 130 Z " style="fill: rgb(168, 168, 168); stroke: rgb(255, 255, 255);"/>
    <path d="M 171.5 131 L 175 131.5 L 171.5 132 L 171.5 131 Z " style="fill: rgb(168, 168, 168); stroke: rgb(255, 255, 255);"/>
    <path d="M 198.5 131 L 199.5 133 L 198.5 131 Z " style="fill: rgb(168, 168, 168); stroke: rgb(255, 255, 255);"/>
    <path d="M 325.5 131 L 324.5 133 L 325.5 131 Z " style="fill: rgb(168, 168, 168); stroke: rgb(255, 255, 255);"/>
    <path d="M 332.5 131 L 337 131.5 L 332.5 132 L 332.5 131 Z " style="fill: rgb(168, 168, 168); stroke: rgb(255, 255, 255);"/>
    <path d="M 319.5 136 L 318.5 138 L 319.5 136 Z " style="fill: rgb(168, 168, 168); stroke: rgb(255, 255, 255);"/>
    <path d="M 168.5 138 L 170.5 141 L 168.5 138 Z " style="fill: rgb(168, 168, 168); stroke: rgb(255, 255, 255);"/>
    <path d="M 339.5 140 L 338.5 142 L 339.5 140 Z " style="fill: rgb(168, 168, 168); stroke: rgb(255, 255, 255);"/>
    <path d="M 144.5 142 L 147.5 146 L 144.5 142 Z " style="fill: rgb(168, 168, 168); stroke: rgb(255, 255, 255);"/>
    <path d="M 332.5 146 L 326.5 153 L 332.5 146 Z " style="fill: rgb(168, 168, 168); stroke: rgb(255, 255, 255);"/>
    <path d="M 320.5 159 L 318.5 162 L 320.5 159 Z " style="fill: rgb(168, 168, 168); stroke: rgb(255, 255, 255);"/>
    <path d="M 177.5 170 L 180 170.5 L 177.5 171 L 177.5 170 Z " style="fill: rgb(168, 168, 168); stroke: rgb(255, 255, 255);"/>
    <path d="M 311.5 170 L 310.5 172 L 311.5 170 Z " style="fill: rgb(168, 168, 168); stroke: rgb(255, 255, 255);"/>
    <path d="M 201.5 171 L 202.5 173 L 201.5 171 Z " style="fill: rgb(168, 168, 168); stroke: rgb(255, 255, 255);"/>
    <path d="M 273.5 171 L 271.5 174 L 273.5 171 Z " style="fill: rgb(168, 168, 168); stroke: rgb(255, 255, 255);"/>
    <path d="M 174.5 175 L 175 178.5 L 174 178.5 L 174.5 175 Z " style="fill: rgb(168, 168, 168); stroke: rgb(255, 255, 255);"/>
    <path d="M 267.5 177 L 266.5 179 L 267.5 177 Z " style="fill: rgb(168, 168, 168); stroke: rgb(255, 255, 255);"/>
    <path d="M 231.5 179 L 229.5 182 L 231.5 179 Z " style="fill: rgb(168, 168, 168); stroke: rgb(255, 255, 255);"/>
    <path d="M 303.5 179 L 302.5 181 L 303.5 179 Z " style="fill: rgb(168, 168, 168); stroke: rgb(255, 255, 255);"/>
    <path d="M 293.5 188 L 292.5 190 L 293.5 188 Z " style="fill: rgb(168, 168, 168); stroke: rgb(255, 255, 255);"/>
    <path d="M 168.5 193 L 164.5 198 L 168.5 193 Z " style="fill: rgb(168, 168, 168); stroke: rgb(255, 255, 255);"/>
    <path d="M 141.5 194 Q 143.75 193.25 143 195.5 L 141.5 194 Z " style="fill: rgb(168, 168, 168); stroke: rgb(255, 255, 255);"/>
    <path d="M 159.5 202 L 158.5 204 L 159.5 202 Z " style="fill: rgb(168, 168, 168); stroke: rgb(255, 255, 255);"/>
    <path d="M 127.5 204 L 126.5 206 L 127.5 204 Z " style="fill: rgb(168, 168, 168); stroke: rgb(255, 255, 255);"/>
    <path d="M 104.5 219 L 102.5 222 L 104.5 219 Z " style="fill: rgb(168, 168, 168); stroke: rgb(255, 255, 255);"/>
    <path d="M 209.5 231 L 208.5 233 L 209.5 231 Z " style="fill: rgb(168, 168, 168); stroke: rgb(255, 255, 255);"/>
    <path d="M 138.5 240 L 139.5 241 L 159 241.5 L 139.5 242 L 138.5 240 Z " style="fill: rgb(168, 168, 168); stroke: rgb(255, 255, 255);"/>
  </g>
</svg>