<?xml version="1.0" encoding="utf-8"?>
<svg viewBox="188.872 188.872 122.256 122.256" width="122.256" height="122.256" xmlns="http://www.w3.org/2000/svg">
  <g transform="matrix(1, 0, 0, 1, 188.45399475097656, 188.55599975585938)">
    <path d="M122.674 30.88c0-16.869-13.695-30.564-30.564-30.564H30.982C14.113.316.418 14.011.418 30.88v61.128c0 16.869 13.695 30.564 30.564 30.564H92.11c16.869 0 30.564-13.695 30.564-30.564V30.88z" fill="#b0bec5"/>
  </g>
  <g transform="matrix(0.1523440033197403, 0, 0, 0.1523440033197403, 210.99993896484375, 210.99993896484375)"/>
  <g id="Flat" transform="matrix(1, 0, 0, 1, 218, 218)"/>
  <g transform="matrix(0.3378390371799469, 0, 0, 0.3378390371799469, 159.77737426757812, 155.44149780273438)">
    <title>Coca cola</title>
    <path style="fill:#FFF;" d="M 381.641 268.602 C 381.619 268.569 369.845 251.971 369.845 251.971 L 369.699 251.767 L 369.543 251.575 C 362.717 243.232 358.713 241.015 346.98 239.079 C 337.805 237.565 329.798 236.502 321.775 235.737 C 306.982 234.325 293.285 233.505 267.058 233.505 C 241.036 233.505 226.365 234.397 212.341 235.737 C 204.321 236.502 196.315 237.566 187.136 239.079 C 175.406 241.015 171.4 243.232 164.577 251.575 L 164.42 251.767 L 164.275 251.971 L 152.501 268.569 C 150.59 271.3 148.659 274.75 148.659 279.891 C 148.659 285.035 150.59 288.486 152.475 291.182 C 152.501 291.217 164.275 307.815 164.275 307.815 L 164.42 308.018 L 164.577 308.212 C 171.4 316.551 175.406 318.768 187.136 320.707 C 196.315 322.222 204.324 323.283 212.341 324.051 C 226.368 325.389 241.039 326.279 267.058 326.279 C 293.077 326.279 307.752 325.389 321.775 324.051 C 329.797 323.284 337.802 322.222 346.98 320.707 C 358.713 318.769 362.721 316.551 369.543 308.212 L 369.699 308.018 L 369.845 307.815 L 381.618 291.217 C 383.529 288.486 385.458 285.035 385.458 279.891 C 385.458 274.75 383.529 271.3 381.641 268.602"/>
    <path style="fill: rgb(176, 190, 197);" d="M 211.284 252.486 C 200.789 253.915 198.697 254.917 192.949 261.944 L 185.421 272.558 C 184.069 274.488 182.912 277.141 182.912 279.891 C 182.912 282.643 184.07 285.294 185.421 287.227 L 192.949 297.842 C 198.697 304.868 200.789 305.867 211.284 307.299 C 224.021 309.035 246.409 310.581 267.058 310.581 C 287.712 310.581 310.097 309.036 322.836 307.299 C 333.331 305.867 335.42 304.868 341.171 297.842 L 348.697 287.227 C 350.049 285.293 351.207 282.643 351.207 279.891 C 351.207 277.141 350.048 274.487 348.697 272.558 L 341.171 261.944 C 335.42 254.918 333.331 253.915 322.836 252.486 C 309.849 250.716 288.441 249.207 267.058 249.207 C 246.409 249.207 224.021 250.749 211.284 252.486 M 321.089 242.936 C 329.632 243.751 337.557 244.853 345.804 246.213 C 355.744 247.855 358.197 249.125 363.946 256.153 L 375.721 272.75 C 377.07 274.681 378.228 276.708 378.228 279.89 C 378.228 283.077 377.07 285.103 375.721 287.032 L 363.946 303.633 C 358.197 310.656 355.744 311.931 345.804 313.571 C 337.557 314.931 329.632 316.031 321.089 316.85 C 306.913 318.203 292.512 319.047 267.058 319.047 C 241.608 319.047 227.207 318.203 213.031 316.85 C 204.486 316.031 196.563 314.931 188.315 313.571 C 178.377 311.931 175.924 310.657 170.173 303.633 L 158.401 287.032 C 157.049 285.103 155.892 283.077 155.892 279.89 C 155.892 276.708 157.05 274.681 158.401 272.75 L 170.173 256.152 C 175.924 249.124 178.377 247.855 188.315 246.212 C 196.563 244.852 204.486 243.751 213.031 242.935 C 227.206 241.581 241.608 240.735 267.058 240.735 C 293.477 240.735 306.913 241.581 321.089 242.936 Z"/>
    <path style="fill: rgb(176, 190, 197);" d="M 214.349 292.686 C 214.757 293.453 214.898 293.914 214.975 294.632 L 226.339 294.632 C 225.653 293.913 225.304 293.453 224.895 292.686 L 216.603 277.463 L 225.213 265.857 C 225.785 265.089 226.327 264.422 226.915 263.911 L 216.93 263.911 C 216.705 264.628 216.467 265.089 215.895 265.857 L 208.189 275.955 L 208.173 265.857 C 208.173 265.089 208.276 264.628 208.585 263.911 L 198.345 263.911 C 198.653 264.628 198.755 265.089 198.755 265.857 L 198.755 292.686 C 198.755 293.453 198.653 293.914 198.345 294.632 L 208.585 294.632 C 208.277 293.913 208.174 293.453 208.174 292.686 L 208.174 281.627 L 214.349 292.686"/>
    <path style="fill: rgb(176, 190, 197);" d="M 238.833 277.891 L 242.16 277.891 C 244.309 277.891 245.795 276.787 245.795 274.33 C 245.795 271.872 244.309 270.771 242.16 270.771 L 238.833 270.771 L 238.833 277.891 M 229.412 265.857 C 229.412 265.089 229.309 264.628 229.004 263.911 L 244.363 263.911 C 248.819 263.911 254.963 265.055 254.963 272.205 C 254.963 277.691 251.513 280.119 248.386 280.639 L 255.553 292.686 C 255.962 293.453 256.31 293.914 257 294.632 L 245.428 294.632 C 245.353 293.913 245.21 293.453 244.801 292.686 L 238.835 282.958 L 238.835 292.686 C 238.835 293.453 238.938 293.914 239.244 294.632 L 229.005 294.632 C 229.311 293.913 229.413 293.453 229.413 292.686 L 229.413 265.857 L 229.412 265.857 Z"/>
    <path style="fill: rgb(176, 190, 197);" d="M 310.261 263.963 L 310.261 272.358 C 309.543 272.052 309.082 271.95 308.315 271.95 L 298.662 271.95 L 298.662 277.274 L 309.953 277.274 L 309.953 284.239 C 309.237 283.93 308.776 283.827 308.009 283.827 L 298.663 283.827 L 298.663 292.686 C 298.663 293.453 298.74 293.914 299.049 294.632 L 288.807 294.632 C 289.114 293.913 289.217 293.453 289.217 292.686 L 289.217 265.857 C 289.217 265.089 289.114 264.628 288.807 263.911 L 310.261 263.963"/>
    <path style="fill: rgb(176, 190, 197);" d="M 312.413 263.963 L 312.413 272.358 C 313.126 272.052 313.587 271.95 314.357 271.95 L 320.733 271.95 L 320.733 292.686 C 320.733 293.453 320.654 293.914 320.347 294.632 L 330.484 294.632 C 330.177 293.913 330.101 293.453 330.101 292.686 L 330.101 271.95 L 336.167 271.95 C 336.934 271.95 337.396 272.051 338.114 272.358 L 338.114 263.963 L 312.413 263.963"/>
    <path style="fill: rgb(176, 190, 197);" d="M 275.249 288.491 L 276.249 292.685 C 276.451 293.452 276.469 293.913 276.351 294.631 L 287.105 294.631 C 286.609 293.912 286.383 293.452 286.181 292.685 L 278.458 265.822 C 278.188 265.054 278.203 264.627 278.26 263.91 L 265.152 263.91 C 265.206 264.627 265.222 265.055 264.949 265.822 L 256.715 292.685 C 256.513 293.452 256.289 293.913 255.793 294.631 L 265.981 294.631 C 265.864 293.912 265.882 293.452 266.086 292.685 L 267.087 288.491 L 275.249 288.491 M 270.553 281.988 L 268.638 281.988 L 271.169 271.386 L 273.696 281.988 L 270.553 281.988 Z"/>
  </g>
</svg>