<?xml version="1.0" encoding="utf-8"?>
<svg viewBox="188.872 188.872 122.256 122.256" width="122.256" height="122.256" xmlns="http://www.w3.org/2000/svg">
  <g transform="matrix(1, 0, 0, 1, 188.45399475097656, 188.55599975585938)">
    <path d="M122.674 30.88c0-16.869-13.695-30.564-30.564-30.564H30.982C14.113.316.418 14.011.418 30.88v61.128c0 16.869 13.695 30.564 30.564 30.564H92.11c16.869 0 30.564-13.695 30.564-30.564V30.88z" fill="#b0bec5"/>
  </g>
  <g transform="matrix(0.1523440033197403, 0, 0, 0.1523440033197403, 210.99993896484375, 210.99993896484375)"/>
  <g id="Flat" transform="matrix(1, 0, 0, 1, 218, 218)">
    <g id="Color">
      <polygon points="6.26 3 23.94 33.62 36.06 26.62 22.42 3 6.26 3" style="fill: rgb(255, 255, 255);"/>
      <polygon points="32.6 28.62 27.4 31.62 10.87 3 17.8 3 32.6 28.62" style="fill: rgb(176, 190, 197);"/>
      <polygon points="41.58 3 27.94 26.62 40.06 33.62 57.74 3 41.58 3" style="fill: rgb(255, 255, 255);"/>
      <polygon points="53.13 3 36.6 31.62 31.4 28.62 46.2 3 53.13 3" style="fill: rgb(176, 190, 197);"/>
      <circle cx="32" cy="41.5" r="19.5" style="fill: rgb(255, 255, 255);"/>
      <circle cx="32" cy="41.5" r="14.5" style="fill: rgb(176, 190, 197);"/>
      <path d="M34.13,43.63V33H29.88a3.19,3.19,0,0,1-3.19,3.19H25.63v4.25h4.25v3.19a2.13,2.13,0,0,1-2.13,2.12H25.63V50H38.38V45.75H36.25A2.12,2.12,0,0,1,34.13,43.63Z" style="fill: rgb(255, 255, 255);"/>
    </g>
  </g>
</svg>