<?xml version="1.0" encoding="utf-8"?>
<svg viewBox="0 0 123 123" width="123px" height="123px" fill-rule="evenodd" clip-rule="evenodd" stroke-linejoin="round" stroke-miterlimit="1.414" xmlns="http://www.w3.org/2000/svg">
  <g transform="matrix(0.9999999999999999, 0, 0, 0.9999999999999999, 0, 0)">
    <path d="M122.674 30.88c0-16.869-13.695-30.564-30.564-30.564H30.982C14.113.316.418 14.011.418 30.88v61.128c0 16.869 13.695 30.564 30.564 30.564H92.11c16.869 0 30.564-13.695 30.564-30.564V30.88z" fill="#b0bec5"/>
  </g>
  <g transform="matrix(0.30519500374794006, 0, 0, 0.2623319923877716, 27.54705619812011, 31.7253189086914)">
    <path d="M 99.5 1 L 135.5 2 L 166.5 8 Q 196.418 16.082 219 31.5 L 217.5 31 L 181.5 22 L 161.5 20 L 160.5 19 L 152.5 19 L 151.5 18 L 140.5 18 L 139.5 17 L 83.5 17 L 82.5 18 L 70.5 18 L 69.5 19 L 60.5 19 L 59.5 20 L 40.5 22 L 17.5 27 L 3.5 32 L 4.5 30 Q 23.114 18.614 45.5 11 L 73.5 4 L 86.5 3 L 87.5 2 L 98.5 2 L 99.5 1 Z " style="fill: rgb(255, 255, 255); stroke: rgb(255, 255, 255);"/>
    <path d="M 100.5 69 L 133.5 69 L 153.5 73 Q 176.472 80.028 190 96.5 Q 197.064 104.936 201 116.5 L 203 124.5 L 203 140.5 L 198 152 L 190.5 156 L 103.5 156 L 95 151.5 Q 91.667 147.833 93 139.5 L 96.5 134 L 102.5 131 L 110.5 131 L 111.5 130 L 156.5 129 Q 163.125 128.125 166 123.5 L 166 116.5 L 160.5 109 L 143.5 100 L 134.5 98 L 126.5 98 L 125.5 97 L 115.5 97 L 114.5 98 L 105.5 98 L 90.5 102 Q 78.311 106.811 70 115.5 Q 63.368 122.368 60 132.5 L 59 136.5 L 59 155.5 Q 62.833 169.167 72.5 177 Q 86.135 188.365 106.5 193 L 123.5 196 L 159.5 196 L 160.5 195 L 179.5 193 L 185.5 191 L 191.5 191 L 198 195.5 L 200 203.5 Q 198.75 209.25 194.5 212 L 180.5 218 L 160.5 223 L 147.5 224 L 146.5 225 L 136.5 225 L 135.5 226 L 116.5 226 L 115.5 225 L 104.5 225 L 103.5 224 L 92.5 223 L 68.5 216 Q 46.915 207.585 33 191.5 Q 24.105 181.395 20 166.5 L 18 155.5 L 18 141.5 L 19 140.5 L 20 129.5 L 26 113.5 Q 33.2 100.2 44.5 91 Q 56.75 80.75 73.5 75 L 100.5 69 Z " style="fill: rgb(255, 255, 255); stroke: rgb(255, 255, 255);"/>
  </g>
</svg>