<?xml version="1.0" encoding="utf-8"?>
<svg viewBox="188.872 188.872 122.256 122.256" width="122.256" height="122.256" xmlns="http://www.w3.org/2000/svg">
  <g transform="matrix(1, 0, 0, 1, 188.45399475097656, 188.55599975585938)">
    <path d="M122.674 30.88c0-16.869-13.695-30.564-30.564-30.564H30.982C14.113.316.418 14.011.418 30.88v61.128c0 16.869 13.695 30.564 30.564 30.564H92.11c16.869 0 30.564-13.695 30.564-30.564V30.88z" fill="#b0bec5"/>
  </g>
  <g transform="matrix(0.1523440033197403, 0, 0, 0.1523440033197403, 210.99993896484375, 210.99993896484375)"/>
  <g id="Flat" transform="matrix(1, 0, 0, 1, 218, 218)"/>
  <path d="M 225 274.999 L 275 274.999 L 275 225 L 225 225 L 225 274.999 Z" style="fill: rgb(255, 255, 255);"/>
  <path d="M 253.38 230.536 C 254.745 231.104 260.245 234.11 260.935 235.046 C 258.015 235.434 252.456 237.084 249.64 238.566 C 252.866 237.86 257.364 237.484 260.456 237.32 C 259.255 239.099 258.595 240.006 256.644 242.124 C 259.989 240.115 260.92 239.976 264.015 238.164 C 265.174 239.889 265.474 243.876 265.516 247.036 C 266.53 245.03 267.755 237.481 267.241 236.11 C 269.104 234.89 269.104 234.406 269.586 233.58 C 267.71 233.749 266.654 233.779 265.626 234.094 C 263.046 232.506 257.721 230.874 253.38 230.536 Z M 246.046 240.106 C 245.211 240.23 242.85 241.29 241.28 242.526 C 241.28 242.526 240.239 242.4 238.494 242.454 C 236.749 242.53 234.46 242.97 233.58 243.334 C 235.281 243.414 237.599 243.839 238.494 244.726 C 238.494 244.726 235.896 247.066 233.36 252.171 C 233.36 252.171 238.024 247.826 240.034 246.744 C 240.034 246.744 241.06 250.276 241.794 252.024 C 241.794 252.024 242.446 247.951 243.516 245.606 C 243.516 245.606 243.816 245.421 245.314 245.276 C 246.795 245.145 248.885 245.05 252.904 245.754 C 252.904 245.754 249.215 243.411 244.654 242.784 C 244.83 242.159 245.475 240.819 246.046 240.106 Z M 232.92 253.966 C 232.626 256.476 232.531 258.305 232.884 260.311 C 231.74 260.621 230.925 260.884 229.986 261.3 C 231.306 262.111 232.391 262.75 233.874 263.429 C 234.651 265.116 235.45 266.239 236.77 267.534 C 236.461 266.43 236.396 265.544 236.514 264.38 C 238.171 264.864 239.55 265.129 241.426 265.189 C 239.639 264.529 238.361 263.754 236.954 262.439 C 237.379 261.285 237.864 260.361 238.64 259.21 C 237.204 259.416 236.146 259.59 234.9 259.834 C 233.889 258.059 233.434 256.339 232.92 253.966 Z M 254.846 261.779 C 253.586 262.665 252.486 263.356 251.034 264.051 C 250.96 263.37 250.916 262.796 250.886 262.034 C 250.065 263.125 249.376 263.964 248.466 264.969 C 246.926 265.386 245.71 265.549 244.214 265.554 C 245.124 266.029 246.046 266.315 247 266.509 C 246.046 267.38 245.211 268.005 244.286 268.599 C 245.856 268.225 247.895 267.55 249.42 266.655 C 250.211 266.68 251.005 266.645 251.546 266.544 C 251.415 266.071 251.311 265.719 251.18 265.114 C 252.634 263.995 253.66 262.99 254.846 261.779 Z" style="fill: rgb(176, 190, 197);"/>
</svg>