<?xml version="1.0" encoding="utf-8"?>
<svg viewBox="188.872 188.872 122.256 122.256" width="122.256px" height="122.256px" xmlns="http://www.w3.org/2000/svg">
  <g transform="matrix(1, 0, 0, 1, 188.45399475097656, 188.55599975585938)">
    <path d="M122.674 30.88c0-16.869-13.695-30.564-30.564-30.564H30.982C14.113.316.418 14.011.418 30.88v61.128c0 16.869 13.695 30.564 30.564 30.564H92.11c16.869 0 30.564-13.695 30.564-30.564V30.88z" fill="#b0bec5"/>
  </g>
  <g transform="matrix(0.1523440033197403, 0, 0, 0.1523440033197403, 210.99993896484375, 210.99993896484375)"/>
  <g id="Flat" transform="matrix(1, 0, 0, 1, 218, 218)"/>
  <path fill="none" stroke-width="2" d="M 255.511 264.433 C 257.235 263.937 258.818 263.269 259.89 262.557 C 261.053 261.721 262.182 260.201 262.182 258.909 C 262.182 257.615 261.077 256.111 259.913 255.279 C 258.839 254.569 257.239 253.881 255.516 253.386 C 252.143 252.43 247.409 251.818 242.364 251.818 C 237.318 251.818 232.588 252.429 229.216 253.385 C 227.493 253.881 225.91 254.554 224.838 255.262 C 223.674 256.097 222.545 257.617 222.545 258.909 C 222.545 260.203 223.649 261.707 224.813 262.54 C 225.886 263.249 227.49 263.937 229.212 264.432 C 232.584 265.389 237.318 266 242.364 266 C 247.41 266 252.139 265.391 255.511 264.433 Z M 222.545 258.909 L 222.545 271.476 L 222.545 271.555 L 222.545 271.475 L 222.532 271.396 L 222.541 271.452 C 222.71 272.699 223.616 274.266 224.786 275.15 C 225.861 275.88 227.469 276.594 229.196 277.108 C 232.572 278.095 237.314 278.728 242.364 278.728 C 247.413 278.728 252.151 278.096 255.527 277.109 C 257.254 276.594 258.838 275.901 259.91 275.171 C 261.081 274.289 262.013 272.788 262.183 271.54 L 262.191 271.488 L 262.178 271.568 L 262.178 271.649 L 262.178 271.569 L 262.182 258.909 M 242.312 228.909 C 242.312 228.909 240.932 228.918 240.231 228.936 C 239.533 228.955 238.834 228.98 238.156 229.015 C 236.804 229.084 235.472 229.188 234.228 229.321 C 231.728 229.585 229.398 229.982 227.48 230.46 C 225.536 230.949 223.786 231.597 222.593 232.29 C 221.291 233.106 220 234.657 220 236 C 220 237.344 221.268 238.881 222.57 239.696 C 223.765 240.389 225.534 241.052 227.477 241.541 C 231.294 242.489 236.629 243.085 242.364 243.091 M 220 236 L 220 248.728 L 220 248.811 L 220 248.813 L 220 248.814 L 220.008 248.856 C 220.232 250.084 221.27 251.509 222.579 252.331 C 223.764 253.006 225.524 253.673 227.463 254.176 C 231.277 255.154 236.22 252.979 241.965 252.987 M 273.392 233.886 C 275.099 233.389 276.669 232.715 277.731 232.006 C 278.883 231.171 280 229.652 280 228.364 C 280 227.074 278.907 225.573 277.756 224.74 C 276.692 224.029 275.101 223.339 273.396 222.843 C 270.058 221.886 265.372 221.273 260.378 221.273 C 255.383 221.273 250.7 221.885 247.363 222.842 C 245.656 223.339 244.086 224.013 243.024 224.722 C 241.872 225.557 240.756 227.076 240.756 228.364 C 240.756 229.654 241.847 231.154 242.998 231.987 C 244.063 232.699 245.651 233.388 247.359 233.885 C 250.697 234.842 255.383 235.455 260.378 235.455 C 265.372 235.455 270.053 234.843 273.392 233.886 Z M 260.909 261.344 C 260.909 261.344 262.679 260.868 263.871 260.792 C 265.056 260.716 266.234 260.602 267.33 260.46 C 269.528 260.173 271.603 259.748 273.304 259.251 C 275.031 258.739 276.602 258.07 277.67 257.381 C 278.848 256.542 279.81 255.088 279.999 253.899 L 280 253.888 L 280.012 253.81 L 280 253.888 L 280 253.966 L 280 253.89 L 280 253.818 L 280 228.364 M 240.756 228.364 L 240.756 254.241 M 239.67 243.812 C 239.67 243.812 239.475 243.757 239.666 243.81 C 239.755 243.835 240.063 243.857 240.25 243.794 C 240.412 243.739 240.72 243.489 240.812 243.315 C 240.918 243.113 240.921 242.728 240.898 242.651 C 240.918 242.716 240.982 242.884 241.217 243.383 L 241.237 243.427 L 241.182 243.304 L 241.095 243.2 L 241.149 243.265 C 241.532 243.739 242.148 244.275 242.721 244.651 C 243.806 245.339 245.415 246.016 247.164 246.524 C 250.589 247.51 255.373 248.182 260.378 248.182 C 265.384 248.182 270.074 247.507 273.408 246.521 C 275.111 246.009 276.664 245.336 277.716 244.644 C 278.876 243.802 279.815 242.351 279.999 241.17" style="stroke: rgb(255, 255, 255);"/>
  <path fill="none" stroke-width="2" d="M 256.658 265.908 C 258.382 265.412 259.965 264.744 261.037 264.032 C 262.2 263.196 263.329 261.676 263.329 260.384 C 263.329 259.09 262.224 257.586 261.06 256.754 C 259.986 256.044 258.386 255.356 256.663 254.861 C 253.29 253.905 248.556 253.293 243.511 253.293 C 238.465 253.293 233.735 253.904 230.363 254.86 C 228.64 255.356 227.057 256.029 225.985 256.737 C 224.821 257.572 223.692 259.092 223.692 260.384 C 223.692 261.678 224.796 263.182 225.96 264.015 C 227.033 264.724 228.637 265.412 230.359 265.907 C 233.731 266.864 238.465 267.475 243.511 267.475 C 248.557 267.475 253.286 266.866 256.658 265.908 Z M 223.692 260.384 L 223.692 272.951 L 223.692 273.03 L 223.692 272.95 L 223.679 272.871 L 223.688 272.927 C 223.857 274.174 224.763 275.741 225.933 276.625 C 227.008 277.355 228.616 278.069 230.343 278.583 C 233.719 279.57 238.461 280.203 243.511 280.203 C 248.56 280.203 253.298 279.571 256.674 278.584 C 258.401 278.069 259.985 277.376 261.057 276.646 C 262.228 275.764 263.16 274.263 263.33 273.015 L 263.338 272.963 L 263.325 273.043 L 263.325 273.124 L 263.325 273.044 L 263.329 260.384 M 242.382 231.7 C 242.382 231.7 242.079 230.393 241.378 230.411 C 240.68 230.43 239.981 230.455 239.303 230.49 C 237.951 230.559 236.619 230.663 235.375 230.796 C 232.875 231.06 230.545 231.457 228.627 231.935 C 226.683 232.424 224.933 233.072 223.74 233.765 C 222.438 234.581 221.147 236.132 221.147 237.475 C 221.147 238.819 222.415 240.356 223.717 241.171 C 224.912 241.864 226.681 242.527 228.624 243.016 C 232.441 243.964 237.678 245.243 243.413 245.249 M 221.147 237.475 L 221.147 250.203 L 221.147 250.286 L 221.147 250.288 L 221.147 250.289 L 221.155 250.331 C 221.379 251.559 222.417 252.984 223.726 253.806 C 224.911 254.481 226.964 253.587 228.903 254.09 C 232.717 255.068 236.314 253.099 242.059 253.107 M 274.539 235.361 C 276.246 234.864 277.816 234.19 278.878 233.481 C 280.03 232.646 281.147 231.127 281.147 229.839 C 281.147 228.549 280.054 227.048 278.903 226.215 C 277.839 225.504 276.248 224.814 274.543 224.318 C 271.205 223.361 266.519 222.748 261.525 222.748 C 256.53 222.748 251.847 223.36 248.51 224.317 C 246.803 224.814 245.233 225.488 244.171 226.197 C 243.019 227.032 241.903 228.551 241.903 229.839 C 241.903 231.129 242.994 232.629 244.145 233.462 C 245.21 234.174 246.798 234.863 248.506 235.36 C 251.844 236.317 256.53 236.93 261.525 236.93 C 266.519 236.93 271.2 236.318 274.539 235.361 Z M 261.458 262.38 C 261.458 262.38 263.826 262.343 265.018 262.267 C 266.203 262.191 267.381 262.077 268.477 261.935 C 270.675 261.648 272.75 261.223 274.451 260.726 C 276.178 260.214 277.749 259.545 278.817 258.856 C 279.995 258.017 280.957 256.563 281.146 255.374 L 281.147 255.363 L 281.159 255.285 L 281.147 255.363 L 281.147 255.441 L 281.147 255.365 L 281.147 255.293 L 281.147 229.839 M 241.903 229.839 L 241.721 254.167 M 240.817 245.287 C 240.817 245.287 240.622 245.232 240.813 245.285 C 240.902 245.31 241.21 245.332 241.397 245.269 C 241.559 245.214 241.867 244.964 241.959 244.79 C 242.065 244.588 242.068 244.203 242.045 244.126 C 242.065 244.191 242.129 244.359 242.364 244.858 L 242.384 244.902 L 242.329 244.779 L 242.242 244.675 L 242.296 244.74 C 242.679 245.214 243.295 245.75 243.868 246.126 C 244.953 246.814 246.562 247.491 248.311 247.999 C 251.736 248.985 256.52 249.657 261.525 249.657 C 266.531 249.657 271.221 248.982 274.555 247.996 C 276.258 247.484 277.811 246.811 278.863 246.119 C 280.023 245.277 280.962 243.826 281.146 242.645" style="stroke: rgb(255, 255, 255);"/>
</svg>