<?xml version="1.0" encoding="utf-8"?>
<svg viewBox="188.872 188.872 122.256 122.256" width="122.256" height="122.256" xmlns="http://www.w3.org/2000/svg">
  <g transform="matrix(1, 0, 0, 1, 188.45399475097656, 188.55599975585938)">
    <path d="M122.674 30.88c0-16.869-13.695-30.564-30.564-30.564H30.982C14.113.316.418 14.011.418 30.88v61.128c0 16.869 13.695 30.564 30.564 30.564H92.11c16.869 0 30.564-13.695 30.564-30.564V30.88z" fill="#b0bec5"/>
  </g>
  <g transform="matrix(0.1523440033197403, 0, 0, 0.1523440033197403, 210.99993896484375, 210.99993896484375)"/>
  <g id="Flat" transform="matrix(1, 0, 0, 1, 218, 218.00000000000003)"/>
  <g transform="matrix(0.2666670083999634, 0, 0, 0.2666670083999634, 219.9999542236328, 219.99995422363284)">
    <path d="M 107.5 0 L 123.5 1 L 137.5 4 L 146.5 7 L 151 11.5 L 152 17.5 L 147.5 24 L 139.5 25 L 133.5 22 L 119.5 19 L 99.5 19 L 88.5 21 L 80 24 L 72 9.5 L 72 7 L 89.5 2 L 106.5 1 L 107.5 0 Z " style="stroke: rgb(255, 255, 255); fill: rgb(255, 255, 255);"/>
    <path d="M 42.5 25 L 45 26.5 L 53 40.5 Q 37.265 53.765 27.5 73 L 11.5 69 L 10 67.5 Q 22.183 42.183 42.5 25 Z " style="stroke: rgb(255, 255, 255); fill: rgb(255, 255, 255);"/>
    <path d="M 190.5 29 L 212 29.5 Q 154.178 92.178 113.5 172 Q 96.073 135.427 67.5 110 L 53 99.5 L 82.5 99 Q 97.108 107.392 108 119.5 L 111.5 124 L 114 122.5 Q 145.335 68.835 190.5 29 Z " style="stroke: rgb(255, 255, 255); fill: rgb(255, 255, 255);"/>
    <path d="M 215.5 76 L 219 77.5 L 224 99.5 L 224 125.5 L 221 141.5 L 215 158.5 L 204 177.5 L 193 191 L 172.5 207 L 152.5 217 L 131.5 223 L 110.5 225 L 109.5 224 L 100 223.5 L 104 207.5 L 105.5 206 L 128.5 205 L 145.5 200 Q 166.481 191.481 181 176.5 Q 192.833 163.833 200 146.5 L 204 133.5 L 205 122.5 L 206 121.5 L 206 103.5 L 201 82.5 L 215.5 76 Z " style="stroke: rgb(255, 255, 255); fill: rgb(255, 255, 255);"/>
    <path d="M 1 100 L 19 104 L 20 128.5 L 25 144.5 L 9.5 154 L 6 147.5 L 1 125.5 L 1 100 Z " style="stroke: rgb(255, 255, 255); fill: rgb(255, 255, 255);"/>
    <path d="M 40.5 173 L 45 176.5 L 49.5 182 L 65.5 194 L 73 197 L 68.5 216 Q 46.075 206.425 31 189.5 L 25 182.5 L 40.5 173 Z " style="stroke: rgb(255, 255, 255); fill: rgb(255, 255, 255);"/>
    <path d="M 104.5 0 L 107 0.5 L 104.5 1 L 104.5 0 Z " style="stroke: rgb(255, 255, 255); fill: rgb(255, 255, 255);"/>
    <path d="M 180.5 38 L 169.5 50 L 180.5 38 Z " style="stroke: rgb(255, 255, 255); fill: rgb(255, 255, 255);"/>
    <path d="M 42.5 51 L 41.5 53 L 42.5 51 Z " style="stroke: rgb(255, 255, 255); fill: rgb(255, 255, 255);"/>
    <path d="M 217.5 75 L 218.5 77 L 217.5 75 Z " style="stroke: rgb(255, 255, 255); fill: rgb(255, 255, 255);"/>
    <path d="M 77.5 98 L 81 98.5 L 77.5 99 L 77.5 98 Z " style="stroke: rgb(255, 255, 255); fill: rgb(255, 255, 255);"/>
    <path d="M 67.5 110 L 68.5 112 L 67.5 110 Z " style="stroke: rgb(255, 255, 255); fill: rgb(255, 255, 255);"/>
    <path d="M 180.5 176 L 178.5 179 L 180.5 176 Z " style="stroke: rgb(255, 255, 255); fill: rgb(255, 255, 255);"/>
    <path d="M 45.5 177 L 49.5 182 L 45.5 177 Z " style="stroke: rgb(255, 255, 255); fill: rgb(255, 255, 255);"/>
    <path d="M 195.5 187 L 193.5 190 L 195.5 187 Z " style="stroke: rgb(255, 255, 255); fill: rgb(255, 255, 255);"/>
    <path d="M 191.5 191 L 188.5 195 L 191.5 191 Z " style="stroke: rgb(255, 255, 255); fill: rgb(255, 255, 255);"/>
    <path d="M 107.5 224 L 110 224.5 L 107.5 225 L 107.5 224 Z " style="stroke: rgb(255, 255, 255); fill: rgb(255, 255, 255);"/>
    <path d="M 113.5 224 L 116 224.5 L 113.5 225 L 113.5 224 Z " style="stroke: rgb(255, 255, 255); fill: rgb(255, 255, 255);"/>
    <path d="M 148.5 8 L 149.5 10 L 148.5 8 Z " style="stroke: rgb(255, 255, 255); fill: rgb(255, 255, 255);"/>
    <path d="M 212.5 29 L 210.5 32 L 212.5 29 Z " style="stroke: rgb(255, 255, 255); fill: rgb(255, 255, 255);"/>
    <path d="M 183.5 35 L 181.5 38 L 183.5 35 Z " style="stroke: rgb(255, 255, 255); fill: rgb(255, 255, 255);"/>
    <path d="M 204.5 38 L 203.5 40 L 204.5 38 Z " style="stroke: rgb(255, 255, 255); fill: rgb(255, 255, 255);"/>
    <path d="M 168.5 50 L 165.5 54 L 168.5 50 Z " style="stroke: rgb(255, 255, 255); fill: rgb(255, 255, 255);"/>
    <path d="M 157.5 62 L 156.5 64 L 157.5 62 Z " style="stroke: rgb(255, 255, 255); fill: rgb(255, 255, 255);"/>
    <path d="M 64.5 98 L 77 98.5 L 64.5 99 L 64.5 98 Z " style="stroke: rgb(255, 255, 255); fill: rgb(255, 255, 255);"/>
    <path d="M 0.5 110 L 1 114.5 L 0 114.5 L 0.5 110 Z " style="stroke: rgb(255, 255, 255); fill: rgb(255, 255, 255);"/>
    <path d="M 98.5 110 L 99.5 112 L 98.5 110 Z " style="stroke: rgb(255, 255, 255); fill: rgb(255, 255, 255);"/>
    <path d="M 224.5 110 L 225 114.5 L 224 114.5 L 224.5 110 Z " style="stroke: rgb(255, 255, 255); fill: rgb(255, 255, 255);"/>
    <path d="M 69.5 112 L 70.5 114 L 69.5 112 Z " style="stroke: rgb(255, 255, 255); fill: rgb(255, 255, 255);"/>
    <path d="M 80.5 123 L 81.5 125 L 80.5 123 Z " style="stroke: rgb(255, 255, 255); fill: rgb(255, 255, 255);"/>
    <path d="M 39.5 197 L 40.5 199 L 39.5 197 Z " style="stroke: rgb(255, 255, 255); fill: rgb(255, 255, 255);"/>
    <path d="M 100.5 0 L 103 0.5 L 100.5 1 L 100.5 0 Z " style="stroke: rgb(255, 255, 255); fill: rgb(255, 255, 255);"/>
    <path d="M 37.5 29 L 32.5 35 L 37.5 29 Z " style="stroke: rgb(255, 255, 255); fill: rgb(255, 255, 255);"/>
    <path d="M 185.5 33 L 184.5 35 L 185.5 33 Z " style="stroke: rgb(255, 255, 255); fill: rgb(255, 255, 255);"/>
    <path d="M 52.5 41 L 51.5 43 L 52.5 41 Z " style="stroke: rgb(255, 255, 255); fill: rgb(255, 255, 255);"/>
    <path d="M 164.5 54 L 163.5 56 L 164.5 54 Z " style="stroke: rgb(255, 255, 255); fill: rgb(255, 255, 255);"/>
    <path d="M 57.5 98 L 64 98.5 L 57.5 99 L 57.5 98 Z " style="stroke: rgb(255, 255, 255); fill: rgb(255, 255, 255);"/>
    <path d="M 19.5 104 L 20 106.5 L 19 106.5 L 19.5 104 Z " style="stroke: rgb(255, 255, 255); fill: rgb(255, 255, 255);"/>
    <path d="M 205.5 105 L 206 107.5 L 205 107.5 L 205.5 105 Z " style="stroke: rgb(255, 255, 255); fill: rgb(255, 255, 255);"/>
    <path d="M 0.5 106 L 1 109.5 L 0 109.5 L 0.5 106 Z " style="stroke: rgb(255, 255, 255); fill: rgb(255, 255, 255);"/>
    <path d="M 224.5 106 L 225 109.5 L 224 109.5 L 224.5 106 Z " style="stroke: rgb(255, 255, 255); fill: rgb(255, 255, 255);"/>
    <path d="M 71.5 114 L 72.5 116 L 71.5 114 Z " style="stroke: rgb(255, 255, 255); fill: rgb(255, 255, 255);"/>
    <path d="M 0.5 115 L 1 118.5 L 0 118.5 L 0.5 115 Z " style="stroke: rgb(255, 255, 255); fill: rgb(255, 255, 255);"/>
    <path d="M 224.5 115 L 225 118.5 L 224 118.5 L 224.5 115 Z " style="stroke: rgb(255, 255, 255); fill: rgb(255, 255, 255);"/>
    <path d="M 19.5 117 L 20 119.5 L 19 119.5 L 19.5 117 Z " style="stroke: rgb(255, 255, 255); fill: rgb(255, 255, 255);"/>
    <path d="M 205.5 117 L 206 119.5 L 205 119.5 L 205.5 117 Z " style="stroke: rgb(255, 255, 255); fill: rgb(255, 255, 255);"/>
    <path d="M 77.5 120 L 79.5 123 L 77.5 120 Z " style="stroke: rgb(255, 255, 255); fill: rgb(255, 255, 255);"/>
    <path d="M 198.5 184 L 197.5 186 L 198.5 184 Z " style="stroke: rgb(255, 255, 255); fill: rgb(255, 255, 255);"/>
    <path d="M 102.5 224 L 105 224.5 L 102.5 225 L 102.5 224 Z " style="stroke: rgb(255, 255, 255); fill: rgb(255, 255, 255);"/>
    <path d="M 118.5 224 L 121 224.5 L 118.5 225 L 118.5 224 Z " style="stroke: rgb(255, 255, 255); fill: rgb(255, 255, 255);"/>
    <path d="M 141.5 25 L 144 25.5 L 141.5 26 L 141.5 25 Z " style="stroke: rgb(255, 255, 255); fill: rgb(255, 255, 255);"/>
    <path d="M 39.5 27 L 38.5 29 L 39.5 27 Z " style="stroke: rgb(255, 255, 255); fill: rgb(255, 255, 255);"/>
    <path d="M 187.5 31 L 186.5 33 L 187.5 31 Z " style="stroke: rgb(255, 255, 255); fill: rgb(255, 255, 255);"/>
    <path d="M 31.5 35 L 30.5 37 L 31.5 35 Z " style="stroke: rgb(255, 255, 255); fill: rgb(255, 255, 255);"/>
    <path d="M 50.5 43 L 45.5 49 L 50.5 43 Z " style="stroke: rgb(255, 255, 255); fill: rgb(255, 255, 255);"/>
    <path d="M 162.5 56 L 161.5 58 L 162.5 56 Z " style="stroke: rgb(255, 255, 255); fill: rgb(255, 255, 255);"/>
    <path d="M 53.5 98 L 57 98.5 L 53.5 99 L 53.5 98 Z " style="stroke: rgb(255, 255, 255); fill: rgb(255, 255, 255);"/>
    <path d="M 19.5 107 L 20 116.5 L 19 116.5 L 19.5 107 Z " style="stroke: rgb(255, 255, 255); fill: rgb(255, 255, 255);"/>
    <path d="M 205.5 108 L 206 116.5 L 205 116.5 L 205.5 108 Z " style="stroke: rgb(255, 255, 255); fill: rgb(255, 255, 255);"/>
    <path d="M 73.5 116 L 76.5 120 L 73.5 116 Z " style="stroke: rgb(255, 255, 255); fill: rgb(255, 255, 255);"/>
    <path d="M 224.5 119 L 225 121.5 L 224 121.5 L 224.5 119 Z " style="stroke: rgb(255, 255, 255); fill: rgb(255, 255, 255);"/>
    <path d="M 41.5 172 L 42.5 174 L 41.5 172 Z " style="stroke: rgb(255, 255, 255); fill: rgb(255, 255, 255);"/>
  </g>
</svg>