<?xml version="1.0" encoding="utf-8"?>
<svg viewBox="188.872 188.872 122.256 122.256" width="122.256" height="122.256" xmlns="http://www.w3.org/2000/svg">
  <g transform="matrix(1, 0, 0, 1, 188.45399475097656, 188.55599975585938)">
    <path d="M122.674 30.88c0-16.869-13.695-30.564-30.564-30.564H30.982C14.113.316.418 14.011.418 30.88v61.128c0 16.869 13.695 30.564 30.564 30.564H92.11c16.869 0 30.564-13.695 30.564-30.564V30.88z" fill="#b0bec5"/>
  </g>
  <g transform="matrix(0.1523440033197403, 0, 0, 0.1523440033197403, 210.99993896484375, 210.99993896484375)"/>
  <g id="Flat" transform="matrix(1, 0, 0, 1, 218, 218)"/>
  <g transform="matrix(0.021026000380516052, 0, 0, 0.021036000922322273, 225, 228.49000549316406)">
    <path d="M 101.065 508.892 L 116.522 511.27 Q 119.495 522.209 112.955 525.538 Q 104.038 523.755 102.254 529.105 L 102.254 536.239 L 92.742 545.751 L 83.23 571.909 L 91.553 573.098 L 95.12 565.964 L 102.254 569.531 L 105.821 577.854 L 116.522 580.232 L 116.522 676.541 L 126.034 677.73 L 126.034 682.486 L 131.979 682.486 L 135.546 686.053 L 135.546 732.424 L 158.137 737.18 L 162.893 734.802 L 168.838 740.747 L 168.838 781.173 L 172.405 784.74 L 187.862 789.496 L 187.862 847.757 L 197.374 860.836 L 217.587 860.836 L 233.044 873.915 L 236.611 879.86 Q 244.637 877.72 240.178 890.561 Q 237.404 898.29 228.288 896.506 L 228.288 904.829 L 248.501 925.042 L 256.824 925.042 L 256.824 940.499 L 262.769 948.822 L 269.903 946.444 Q 272.479 952.984 280.604 951.2 L 280.604 957.145 L 291.305 967.846 Q 296.656 966.063 294.872 971.413 Q 297.993 979.736 309.14 977.358 L 309.14 999.949 L 305.573 1001.138 L 294.872 1003.516 L 305.573 1017.784 L 311.518 1014.217 Q 304.979 994.599 324.597 1001.138 L 332.92 1005.894 L 341.243 1017.784 Q 346.594 1016.001 344.81 1021.351 L 354.322 1027.296 Q 351.468 1036.015 363.834 1032.052 L 363.834 1053.454 Q 354.025 1050.283 356.7 1058.21 L 348.377 1058.21 L 349.566 1061.777 Q 329.169 1080.617 316.274 1106.959 L 306.762 1137.873 L 306.762 1166.409 Q 314.923 1208.186 341.243 1231.804 Q 364.947 1255.66 401.882 1266.285 Q 333.957 1293.48 290.116 1344.759 L 268.714 1382.807 Q 263.007 1399.691 266.336 1425.611 Q 276.177 1459.763 298.439 1481.494 L 304.384 1485.061 L 310.329 1493.384 Q 338.559 1516.281 374.535 1531.432 L 388.803 1533.81 L 417.339 1545.7 L 429.229 1545.7 L 453.009 1552.834 L 483.923 1555.212 L 486.301 1557.59 L 593.311 1557.59 L 595.689 1555.212 L 612.335 1555.212 L 652.761 1545.7 L 664.651 1545.7 L 697.943 1533.81 L 707.455 1533.81 L 731.235 1521.92 L 738.369 1521.92 L 790.685 1493.384 L 837.056 1451.769 L 845.379 1438.69 L 856.08 1443.446 L 862.025 1452.958 Q 870.943 1449.986 867.97 1458.903 L 875.104 1462.47 L 875.104 1474.36 L 891.75 1474.36 Q 889.967 1481.841 896.506 1480.305 L 896.506 1493.384 L 906.018 1493.384 L 906.018 1496.951 L 922.664 1508.841 L 922.664 1514.786 L 927.42 1515.975 L 927.42 1534.999 L 940.499 1548.078 L 948.822 1548.078 L 951.2 1575.425 L 954.767 1578.992 L 982.114 1578.992 L 982.114 1589.693 L 991.626 1595.638 L 992.815 1600.394 L 1049.887 1600.394 L 1053.454 1609.906 Q 1059.795 1607.231 1058.21 1613.473 L 1060.588 1619.418 L 1067.722 1619.418 L 1067.722 1626.552 Q 1078.423 1622.985 1074.856 1633.686 L 1083.179 1633.686 L 1090.313 1636.064 Q 1113.499 1628.336 1105.77 1651.521 Q 1109.099 1658.061 1120.038 1655.088 Q 1117.363 1661.429 1123.605 1659.844 L 1129.55 1662.222 L 1129.55 1666.978 L 1139.062 1671.734 L 1139.062 1686.002 L 1154.519 1686.002 L 1155.708 1689.569 L 1164.031 1705.026 Q 1171.958 1702.351 1169.976 1708.593 L 1186.622 1720.483 L 1194.945 1735.94 L 1225.859 1735.94 L 1228.237 1738.318 L 1246.072 1738.318 L 1248.45 1752.586 L 1256.773 1757.342 L 1311.467 1757.342 L 1315.034 1760.909 L 1318.601 1766.854 L 1322.168 1766.854 L 1323.357 1771.61 L 1367.35 1771.61 L 1367.35 1781.122 Q 1374.484 1778.15 1372.106 1787.067 L 1378.051 1793.012 L 1420.855 1793.012 L 1424.422 1796.579 Q 1421.747 1804.506 1427.989 1802.524 L 1430.367 1804.902 L 1485.061 1804.902 L 1508.841 1819.17 L 1525.487 1821.548 L 1533.81 1819.17 Q 1531.135 1811.243 1540.944 1814.414 Q 1537.734 1823.133 1551.645 1819.17 L 1573.047 1831.06 L 1578.992 1831.06 L 1584.937 1842.95 L 1590.882 1846.517 L 1590.882 1851.273 L 1575.425 1869.108 L 1534.999 1900.022 L 1456.525 1947.582 L 1366.161 1990.386 L 1299.577 2014.166 L 1280.553 2016.544 L 1254.395 2026.056 L 1173.543 2040.324 L 1142.629 2040.324 L 1140.251 2042.702 L 1035.619 2042.702 L 1033.241 2040.324 L 1002.327 2040.324 L 999.949 2037.946 L 971.413 2035.568 L 873.915 2014.166 L 766.905 1976.118 L 688.431 1938.07 Q 501.305 1835.08 363.834 1682.435 Q 194.141 1501.373 87.986 1256.773 L 49.938 1154.519 L 23.78 1059.399 L 23.78 1047.509 L 11.89 999.949 L 11.89 980.925 L 4.756 940.499 L 0 845.379 L 2.378 843.001 L 2.378 800.197 L 4.756 797.819 L 4.756 776.417 L 9.512 757.393 L 11.89 721.723 L 23.78 678.919 L 23.78 667.029 L 28.536 659.895 L 40.426 617.091 L 49.938 600.445 L 49.938 590.933 L 61.828 574.287 L 64.206 560.019 L 78.474 540.995 L 84.419 525.538 L 92.742 519.593 L 101.065 508.892 Z M 1571 1845 L 1560 1851 L 1561 1857 Q 1565 1851 1578 1855 L 1581 1851 Q 1585 1840 1571 1845 Z " style="stroke: rgb(42, 42, 42); fill: rgb(255, 255, 255);"/>
    <path d="M 431.607 1084.368 L 467.277 1084.368 L 468.466 1092.691 Q 473.817 1095.664 470.844 1106.959 L 468.466 1116.471 L 475.6 1139.062 L 521.971 1139.062 L 523.16 1140.251 L 523.16 1158.086 L 548.129 1158.086 L 558.83 1160.464 L 558.83 1174.732 L 543.373 1174.732 L 540.995 1172.354 L 520.782 1172.354 L 523.16 1161.653 L 506.514 1160.464 L 508.892 1168.787 L 476.789 1169.976 L 438.741 1158.086 L 425.662 1147.385 L 418.528 1133.117 L 416.15 1118.849 L 418.528 1106.959 L 431.607 1084.368 Z " style="stroke: rgb(255, 255, 255); fill: rgb(255, 255, 255);"/>
    <path d="M 462.521 1274.608 L 517.215 1279.364 L 519.593 1281.742 L 640.871 1286.498 L 686.053 1296.01 L 702.699 1296.01 L 734.802 1307.9 L 731.235 1315.034 L 700.321 1317.412 L 696.754 1320.979 L 703.888 1322.168 L 707.455 1331.68 Q 712.806 1329.897 711.022 1335.247 L 722.912 1344.759 L 726.479 1350.704 Q 743.601 1345.254 737.18 1363.783 L 740.747 1367.35 L 782.362 1367.35 L 779.984 1397.075 L 764.527 1422.044 L 756.204 1427.989 L 752.637 1433.934 L 707.455 1460.092 L 669.407 1471.982 L 619.469 1476.738 L 617.091 1479.116 L 555.263 1479.116 L 552.885 1476.738 L 505.325 1471.982 L 474.411 1460.092 L 467.277 1460.092 Q 428.285 1444.39 401.882 1416.099 L 385.236 1385.185 L 385.236 1354.271 Q 393.857 1322.466 417.339 1305.522 L 462.521 1274.608 Z " style="stroke: rgb(42, 42, 42); fill: rgb(255, 255, 255);"/>
    <path d="M 854.891 61.828 L 860.836 63.017 L 854.891 64.206 L 854.891 61.828 Z " style="fill: #545454; stroke: #545454;"/>
    <path d="M 835.867 66.584 L 839.434 67.773 L 810.898 78.474 Q 807.628 87.986 823.977 83.23 Q 826.95 88.581 838.245 85.608 L 845.379 76.096 L 871.537 76.096 L 872.726 79.663 L 865.592 89.175 L 871.537 85.608 L 888.183 87.986 L 895.317 83.23 L 945.255 83.23 Q 948.228 88.581 959.523 85.608 L 964.279 90.364 L 1002.327 95.12 L 1007.083 99.876 L 1049.887 99.876 L 1053.454 103.443 L 1053.454 109.388 L 1058.21 109.388 Q 1054.643 118.306 1061.777 116.522 L 1084.368 121.278 Q 1081.693 127.619 1087.935 126.034 L 1097.447 133.168 Q 1120.187 129.898 1129.55 135.546 Q 1125.587 145.355 1135.495 142.68 L 1139.062 149.814 Q 1147.682 155.165 1168.787 152.192 L 1191.378 159.326 L 1194.945 166.46 Q 1203.863 164.082 1200.89 171.216 L 1210.402 171.216 L 1210.402 179.539 L 1216.347 185.484 L 1225.859 185.484 Q 1228.435 192.024 1236.56 190.24 Q 1233.885 196.581 1240.127 194.996 L 1246.072 197.374 L 1252.017 206.886 Q 1265.928 201.932 1262.718 212.831 L 1272.23 227.099 L 1272.23 233.044 Q 1286.201 230.963 1291.254 241.367 Q 1289.471 246.718 1294.821 244.934 L 1301.955 256.824 Q 1312.656 254.446 1315.034 260.391 L 1317.412 273.47 Q 1323.753 270.795 1322.168 277.037 L 1324.546 282.982 L 1334.058 282.982 Q 1331.383 289.323 1337.625 287.738 L 1343.57 297.25 L 1353.082 302.006 L 1353.082 313.896 Q 1345.948 311.518 1348.326 318.652 L 1357.838 323.408 L 1357.838 332.92 L 1372.106 332.92 L 1372.106 345.999 Q 1374.93 351.944 1383.996 349.566 L 1383.996 410.205 L 1388.752 418.528 Q 1399.691 415.556 1403.02 422.095 L 1403.02 464.899 Q 1409.56 463.363 1407.776 470.844 L 1418.477 470.844 L 1425.611 456.576 Q 1438.393 455.09 1438.69 457.765 L 1438.69 571.909 L 1443.446 576.665 L 1443.446 1149.763 L 1441.068 1152.141 L 1441.068 1192.567 L 1438.69 1194.945 L 1436.312 1228.237 L 1424.422 1262.718 L 1580.181 1262.718 L 1583.748 1259.151 L 1571.858 1230.615 L 1569.48 1183.055 L 1567.102 1180.677 L 1567.102 938.121 L 1574.236 942.877 L 1636.064 1016.595 L 1636.064 1047.509 L 1639.631 1051.076 Q 1668.167 1045.131 1674.112 1061.777 L 1697.892 1090.313 L 1702.648 1103.392 L 1712.16 1105.77 L 1721.672 1121.227 L 1721.672 1152.141 L 1727.617 1158.086 L 1738.318 1158.086 L 1738.318 1167.598 Q 1745.452 1164.626 1743.074 1173.543 L 1746.641 1177.11 L 1770.421 1177.11 L 1773.988 1180.677 L 1810.847 1219.914 L 1845.328 1247.261 Q 1843.842 1260.191 1847.706 1265.096 L 1859.596 1266.285 L 1859.596 1311.467 L 1863.163 1312.656 L 1875.053 1315.034 L 1880.998 1320.979 L 1880.998 1363.783 L 1884.565 1367.35 Q 1895.266 1366.161 1895.266 1368.539 L 1895.266 1424.422 L 1885.754 1430.367 L 1885.754 1525.487 L 1883.376 1527.865 L 1880.998 1554.023 L 1875.053 1559.968 Q 1865.145 1556.847 1869.108 1568.291 L 1866.73 1575.425 Q 1873.269 1578.001 1871.486 1586.126 L 1880.998 1582.559 Q 1878.397 1562.123 1886.943 1552.834 Q 1898.239 1551.051 1900.022 1558.779 L 1900.022 1563.535 L 1871.486 1598.016 L 1865.541 1600.394 L 1864.352 1593.26 L 1854.84 1599.205 L 1861.974 1606.339 L 1850.084 1618.229 L 1846.517 1624.174 L 1840.572 1627.741 L 1812.036 1662.222 L 1802.524 1668.167 L 1796.579 1676.49 L 1790.634 1680.057 L 1770.421 1702.648 L 1764.476 1706.215 L 1758.531 1714.538 L 1752.586 1718.105 L 1746.641 1726.428 Q 1657.999 1812.569 1556.401 1885.754 L 1561.157 1878.62 L 1581.37 1863.163 L 1590.882 1851.273 L 1590.882 1846.517 L 1581.37 1839.383 L 1578.992 1831.06 L 1573.047 1831.06 L 1551.645 1819.17 L 1540.944 1819.17 Q 1543.619 1811.243 1533.81 1814.414 Q 1536.783 1821.548 1527.865 1819.17 L 1520.731 1821.548 L 1508.841 1819.17 L 1485.061 1804.902 L 1430.367 1804.902 L 1424.422 1802.524 L 1420.855 1793.012 L 1378.051 1793.012 L 1372.106 1787.067 Q 1374.484 1778.15 1367.35 1781.122 L 1367.35 1771.61 L 1323.357 1771.61 L 1322.168 1766.854 L 1318.601 1766.854 L 1311.467 1757.342 L 1256.773 1757.342 L 1248.45 1752.586 L 1246.072 1738.318 L 1228.237 1738.318 L 1225.859 1735.94 L 1194.945 1735.94 L 1191.378 1732.373 L 1183.055 1716.916 L 1169.976 1708.593 Q 1171.958 1702.351 1164.031 1705.026 L 1155.708 1686.002 L 1139.062 1686.002 L 1139.062 1671.734 L 1134.306 1671.734 L 1134.306 1666.978 L 1129.55 1666.978 Q 1132.225 1660.637 1125.983 1662.222 L 1120.038 1659.844 Q 1123.248 1651.125 1109.337 1655.088 Q 1101.609 1650.672 1105.77 1636.064 L 1090.313 1636.064 L 1087.935 1633.686 L 1083.179 1633.686 L 1074.856 1633.686 L 1074.856 1626.552 L 1067.722 1626.552 L 1067.722 1619.418 Q 1058.805 1622.985 1060.588 1615.851 L 1058.21 1609.906 Q 1051.076 1612.879 1053.454 1603.961 L 1049.887 1600.394 L 991.626 1600.394 Q 994.301 1594.053 988.059 1595.638 Q 979.142 1592.071 982.114 1578.992 L 954.767 1578.992 L 951.2 1575.425 L 948.822 1548.078 L 940.499 1548.078 L 927.42 1534.999 L 927.42 1515.975 L 922.664 1514.786 L 922.664 1508.841 L 906.018 1496.951 L 906.018 1493.384 L 896.506 1493.384 L 896.506 1480.305 Q 889.967 1481.841 891.75 1474.36 L 875.104 1474.36 L 875.104 1462.47 L 871.537 1462.47 L 867.97 1452.958 Q 858.854 1454.742 856.08 1447.013 Q 857.864 1441.663 852.513 1443.446 L 845.379 1438.69 L 841.812 1439.879 L 856.08 1420.855 L 875.104 1373.295 L 877.482 1325.735 Q 866.321 1266.745 828.733 1234.182 L 797.819 1212.78 L 757.393 1198.512 Q 736.993 1198.699 724.101 1191.378 L 695.565 1189 L 693.187 1186.622 L 669.407 1186.622 L 667.029 1184.244 L 556.452 1175.921 L 558.83 1160.464 Q 545.129 1155.906 523.16 1158.086 L 523.16 1139.062 L 476.789 1139.062 L 475.6 1133.117 L 470.844 1128.361 L 468.466 1109.337 Q 473.817 1106.365 470.844 1095.069 L 468.466 1084.368 L 431.607 1084.368 L 429.229 1086.746 L 445.875 1067.722 Q 463.674 1051.04 498.191 1051.076 L 500.569 1053.454 L 567.153 1053.454 L 631.359 1041.564 L 662.273 1029.674 Q 714.926 1006.231 749.07 964.279 Q 774.715 931.663 787.118 885.805 L 789.496 852.513 L 791.874 850.135 L 791.874 821.599 L 789.496 819.221 L 789.496 797.819 L 772.85 745.503 L 741.936 697.943 L 783.551 696.754 L 785.929 699.132 L 819.221 699.132 L 821.599 701.51 L 850.135 701.51 L 863.214 703.888 L 863.214 619.469 L 857.269 618.28 L 797.819 630.17 L 705.077 630.17 L 571.909 599.256 Q 557.047 603.418 552.885 596.878 L 500.569 596.878 L 498.191 599.256 L 481.545 599.256 L 443.497 606.39 L 400.693 620.658 Q 350.32 642.814 316.274 681.297 Q 288.63 711.914 273.47 755.015 L 263.958 795.441 L 261.58 840.623 L 263.958 843.001 L 263.958 862.025 L 268.714 885.805 L 292.494 940.499 Q 311.273 971.658 338.865 994.004 Q 364.825 1018.775 401.882 1029.674 Q 404.855 1036.808 395.937 1034.43 Q 357.719 1053.284 331.731 1084.368 L 349.566 1064.155 L 347.188 1059.399 L 356.7 1058.21 L 356.7 1053.454 L 363.834 1052.265 L 363.834 1032.052 L 354.322 1032.052 Q 356.997 1025.711 350.755 1027.296 L 344.81 1017.784 L 332.92 1009.461 Q 334.704 1004.111 329.353 1005.894 Q 325.39 997.571 311.518 1001.138 Q 315.085 1013.92 307.951 1017.784 L 294.872 1007.083 Q 292.791 999.949 303.195 1003.516 L 309.14 1001.138 L 309.14 977.358 L 300.817 977.358 L 294.872 967.846 L 280.604 957.145 Q 283.577 948.228 274.659 951.2 L 267.525 946.444 L 262.769 948.822 Q 253.356 942.268 256.824 925.042 L 248.501 925.042 L 228.288 904.829 Q 224.325 893.385 234.233 896.506 Q 243.151 892.939 240.178 879.86 L 233.044 876.293 L 229.477 870.348 L 217.587 860.836 L 197.374 860.836 L 187.862 847.757 L 187.862 789.496 L 168.838 781.173 L 168.838 740.747 L 162.893 734.802 L 158.137 737.18 L 135.546 732.424 L 135.546 686.053 L 131.979 682.486 L 126.034 682.486 L 126.034 677.73 L 116.522 676.541 L 116.522 581.421 L 112.955 580.232 L 102.254 574.287 L 98.687 565.964 Q 93.337 564.181 95.12 569.531 Q 93.337 574.882 84.419 573.098 L 85.608 569.531 L 92.742 545.751 L 102.254 536.239 Q 100.471 527.322 105.821 525.538 Q 114.739 527.322 116.522 521.971 Q 120.981 509.13 112.955 511.27 L 101.065 508.892 L 86.797 525.538 L 80.852 529.105 L 78.474 540.995 L 67.773 554.074 L 68.962 550.507 Q 92.752 497.012 126.034 453.009 Q 169.376 395.286 222.343 347.188 Q 330.71 249.858 472.033 185.484 L 555.263 149.814 L 662.273 111.766 L 671.785 111.766 L 745.503 87.986 L 755.015 87.986 L 802.575 73.718 L 826.355 71.34 L 835.867 66.584 Z M 774 86 L 770 93 L 789 95 L 789 86 L 774 86 Z M 845 88 L 842 92 L 856 93 Q 859 84 845 88 Z M 729 97 L 729 100 L 735 99 L 729 97 Z M 1126 597 L 1081 606 L 1069 606 L 1040 618 L 1033 618 Q 1001 631 976 652 L 935 698 L 920 729 L 920 738 L 913 760 L 913 810 L 923 845 L 937 872 L 961 901 L 1012 939 Q 1076 977 1147 1006 L 1193 1032 L 1219 1053 Q 1240 1072 1248 1105 Q 1254 1149 1234 1169 Q 1220 1185 1197 1194 L 1171 1201 L 1135 1203 L 1133 1206 L 1083 1203 L 1033 1194 L 967 1172 L 912 1146 L 906 1147 L 906 1240 L 919 1248 L 967 1265 L 1028 1279 L 1069 1282 L 1071 1284 L 1152 1284 L 1155 1282 L 1176 1282 L 1212 1275 Q 1221 1268 1238 1267 L 1281 1248 L 1323 1218 Q 1345 1198 1358 1171 L 1370 1140 L 1372 1107 L 1374 1105 L 1370 1055 Q 1358 1023 1339 1000 Q 1313 970 1278 949 L 1212 911 L 1107 858 L 1057 820 Q 1039 803 1030 776 L 1030 738 L 1042 715 L 1074 690 L 1109 678 L 1131 678 L 1133 675 L 1197 678 L 1243 690 L 1297 716 L 1326 737 L 1329 736 L 1329 640 L 1283 618 L 1243 606 L 1188 599 L 1185 597 L 1126 597 Z " style="fill: rgb(255, 255, 255); stroke: rgb(255, 255, 255);"/>
    <path d="M 879.86 71.34 L 891.75 71.34 L 891.75 76.096 L 879.86 76.096 L 879.86 71.34 Z " style="fill: #545454; stroke: #545454;"/>
    <path d="M 63.017 561.208 L 64.206 564.775 L 61.828 574.287 L 55.883 580.232 L 57.072 576.665 L 63.017 561.208 Z " style="fill: #545454; stroke: #545454;"/>
    <path d="M 48.749 594.5 L 49.938 600.445 L 43.993 611.146 L 42.804 607.579 L 48.749 594.5 Z " style="fill: #545454; stroke: #545454;"/>
    <path d="M 505.325 668.218 L 533.861 668.218 L 579.043 677.73 Q 609.702 689.875 630.17 712.211 Q 657.067 740.008 668.218 783.551 L 670.596 809.709 L 672.974 812.087 L 672.974 862.025 L 670.596 864.403 L 668.218 890.561 L 653.95 923.853 L 624.225 958.334 Q 602.823 974.98 571.909 982.114 Q 560.614 979.142 557.641 984.492 L 514.837 984.492 L 464.899 970.224 Q 434.183 954.569 413.772 928.609 L 387.614 878.671 L 380.48 845.379 L 378.102 802.575 L 389.992 747.881 Q 404.542 714.871 431.607 694.376 L 455.387 680.108 L 505.325 668.218 Z " style="stroke: rgb(84, 84, 84); fill: rgb(255, 255, 255);"/>
    <path d="M 10.701 730.046 L 11.89 738.369 L 9.512 738.369 L 10.701 730.046 Z " style="fill: #545454; stroke: #545454;"/>
    <path d="M 8.323 749.07 L 9.512 757.393 L 7.134 757.393 L 8.323 749.07 Z " style="fill: #545454; stroke: #545454;"/>
    <path d="M 5.945 768.094 L 7.134 774.039 L 4.756 774.039 L 5.945 768.094 Z " style="fill: #545454; stroke: #545454;"/>
    <path d="M 3.567 791.874 L 4.756 797.819 L 2.378 797.819 L 3.567 791.874 Z " style="fill: #545454; stroke: #545454;"/>
    <path d="M 1.189 827.544 L 2.378 843.001 L 0 843.001 L 1.189 827.544 Z " style="fill: #545454; stroke: #545454;"/>
    <path d="M 1586.126 839.434 L 1595.638 845.379 L 1578.992 858.458 L 1578.992 844.19 Q 1588.801 847.361 1586.126 839.434 Z " style="fill: #545454; stroke: #545454;"/>
    <path d="M 1.189 867.97 L 2.378 885.805 L 0 885.805 L 1.189 867.97 Z " style="fill: #545454; stroke: #545454;"/>
    <path d="M 3.567 917.908 L 4.756 923.853 L 2.378 923.853 L 3.567 917.908 Z " style="fill: #545454; stroke: #545454;"/>
    <path d="M 5.945 941.688 L 7.134 947.633 L 4.756 947.633 L 5.945 941.688 Z " style="fill: #545454; stroke: #545454;"/>
    <path d="M 8.323 960.712 L 9.512 969.035 L 7.134 969.035 L 8.323 960.712 Z " style="fill: #545454; stroke: #545454;"/>
    <path d="M 10.701 979.736 L 11.89 988.059 L 9.512 988.059 L 10.701 979.736 Z " style="fill: #545454; stroke: #545454;"/>
    <path d="M 22.591 1046.32 L 23.78 1052.265 L 21.402 1052.265 L 22.591 1046.32 Z " style="fill: #545454; stroke: #545454;"/>
    <path d="M 426.851 1089.124 L 425.662 1092.691 L 424.473 1096.258 L 423.284 1092.691 L 426.851 1089.124 Z " style="fill: rgb(84, 84, 84); stroke: rgb(255, 255, 255);"/>
    <path d="M 324.597 1093.88 L 322.219 1098.636 L 324.597 1093.88 Z " style="fill: #545454; stroke: #545454;"/>
    <path d="M 417.339 1122.416 L 418.528 1128.361 L 416.15 1128.361 L 417.339 1122.416 Z " style="fill: #545454; stroke: #545454;"/>
    <path d="M 307.951 1136.684 L 309.14 1142.629 L 306.762 1142.629 L 307.951 1136.684 Z " style="fill: #545454; stroke: #545454;"/>
    <path d="M 422.095 1139.062 L 425.662 1145.007 L 420.906 1142.629 L 422.095 1139.062 Z " style="fill: #545454; stroke: #545454;"/>
    <path d="M 431.607 1150.952 L 436.363 1158.086 L 431.607 1150.952 Z " style="fill: #545454; stroke: #545454;"/>
    <path d="M 307.951 1158.086 L 309.14 1166.409 L 306.762 1166.409 L 307.951 1158.086 Z " style="fill: #545454; stroke: #545454;"/>
    <path d="M 506.514 1160.464 L 523.16 1161.653 L 520.782 1172.354 L 542.184 1173.543 L 521.971 1174.732 L 519.593 1172.354 L 487.49 1171.165 L 508.892 1168.787 L 506.514 1160.464 Z " style="stroke: rgb(84, 84, 84); fill: rgb(255, 255, 255);"/>
    <path d="M 338.865 1227.048 L 341.243 1231.804 L 338.865 1227.048 Z " style="fill: #545454; stroke: #545454;"/>
    <path d="M 353.133 1238.938 L 355.511 1243.694 L 353.133 1238.938 Z " style="fill: #545454; stroke: #545454;"/>
    <path d="M 474.411 1274.608 L 480.356 1275.797 L 474.411 1276.986 L 474.411 1274.608 Z " style="fill: #545454; stroke: #545454;"/>
    <path d="M 455.387 1276.986 L 453.009 1281.742 L 448.253 1284.12 L 450.631 1279.364 L 455.387 1276.986 Z " style="fill: #545454; stroke: #545454;"/>
    <path d="M 498.191 1276.986 L 506.514 1278.175 L 498.191 1279.364 L 498.191 1276.986 Z " style="fill: #545454; stroke: #545454;"/>
    <path d="M 519.593 1279.364 L 542.184 1280.553 L 519.593 1281.742 L 519.593 1279.364 Z " style="fill: #545454; stroke: #545454;"/>
    <path d="M 557.641 1281.742 L 582.61 1282.931 L 557.641 1284.12 L 557.641 1281.742 Z " style="fill: #545454; stroke: #545454;"/>
    <path d="M 617.091 1284.12 L 625.414 1285.309 L 617.091 1286.498 L 617.091 1284.12 Z " style="fill: #545454; stroke: #545454;"/>
    <path d="M 360.267 1286.498 L 357.889 1291.254 L 360.267 1286.498 Z " style="fill: #545454; stroke: #545454;"/>
    <path d="M 643.249 1286.498 L 649.194 1287.687 L 643.249 1288.876 L 643.249 1286.498 Z " style="fill: #545454; stroke: #545454;"/>
    <path d="M 659.895 1288.876 L 668.218 1290.065 L 659.895 1291.254 L 659.895 1288.876 Z " style="fill: #545454; stroke: #545454;"/>
    <path d="M 674.163 1291.254 L 682.486 1292.443 L 674.163 1293.632 L 674.163 1291.254 Z " style="fill: #545454; stroke: #545454;"/>
    <path d="M 686.053 1293.632 L 696.754 1294.821 L 686.053 1296.01 L 686.053 1293.632 Z " style="fill: #545454; stroke: #545454;"/>
    <path d="M 426.851 1296.01 L 419.717 1305.522 L 426.851 1296.01 Z " style="fill: #545454; stroke: #545454;"/>
    <path d="M 724.101 1303.144 Q 755.922 1311.749 772.85 1335.247 L 782.362 1354.271 L 784.74 1380.429 L 782.362 1380.429 Q 783.848 1367.647 781.173 1367.35 L 740.747 1367.35 Q 733.613 1363.486 737.18 1350.704 Q 726.241 1353.677 722.912 1347.137 L 719.345 1341.192 L 711.022 1335.247 Q 712.806 1329.897 707.455 1331.68 L 703.888 1322.168 L 696.754 1320.979 L 700.321 1317.412 L 731.235 1315.034 L 734.802 1311.467 Q 736.784 1305.225 728.857 1307.9 L 724.101 1303.144 Z " style="stroke: rgb(255, 255, 255); fill: rgb(255, 255, 255);"/>
    <path d="M 331.731 1305.522 L 329.353 1310.278 L 331.731 1305.522 Z " style="fill: #545454; stroke: #545454;"/>
    <path d="M 322.219 1312.656 L 315.085 1322.168 L 322.219 1312.656 Z " style="fill: #545454; stroke: #545454;"/>
    <path d="M 293.683 1341.192 L 291.305 1345.948 L 293.683 1341.192 Z " style="fill: #545454; stroke: #545454;"/>
    <path d="M 384.047 1360.216 L 385.236 1378.051 L 382.858 1378.051 L 384.047 1360.216 Z " style="fill: #545454; stroke: #545454;"/>
    <path d="M 781.173 1386.374 L 782.362 1392.319 L 779.984 1392.319 L 781.173 1386.374 Z " style="fill: #545454; stroke: #545454;"/>
    <path d="M 267.525 1391.13 L 268.714 1397.075 L 266.336 1397.075 L 267.525 1391.13 Z " style="fill: #545454; stroke: #545454;"/>
    <path d="M 393.559 1403.02 L 395.937 1407.776 L 393.559 1403.02 Z " style="fill: #545454; stroke: #545454;"/>
    <path d="M 774.039 1407.776 L 771.661 1412.532 L 774.039 1407.776 Z " style="fill: #545454; stroke: #545454;"/>
    <path d="M 398.315 1410.154 L 400.693 1414.91 L 398.315 1410.154 Z " style="fill: #545454; stroke: #545454;"/>
    <path d="M 267.525 1417.288 L 268.714 1425.611 L 266.336 1425.611 L 267.525 1417.288 Z " style="fill: #545454; stroke: #545454;"/>
    <path d="M 762.149 1422.044 L 757.393 1429.178 L 762.149 1422.044 Z " style="fill: #545454; stroke: #545454;"/>
    <path d="M 414.961 1426.8 L 419.717 1433.934 L 414.961 1426.8 Z " style="fill: #545454; stroke: #545454;"/>
    <path d="M 750.259 1433.934 L 747.881 1438.69 L 750.259 1433.934 Z " style="fill: #545454; stroke: #545454;"/>
    <path d="M 740.747 1441.068 L 738.369 1445.824 L 740.747 1441.068 Z " style="fill: #545454; stroke: #545454;"/>
    <path d="M 840.623 1443.446 L 838.245 1448.202 L 840.623 1443.446 Z " style="fill: #545454; stroke: #545454;"/>
    <path d="M 835.867 1450.58 L 809.709 1479.116 L 835.867 1450.58 Z " style="fill: #545454; stroke: #545454;"/>
    <path d="M 286.549 1464.848 L 291.305 1471.982 L 286.549 1464.848 Z " style="fill: #545454; stroke: #545454;"/>
    <path d="M 655.139 1471.982 L 661.084 1473.171 L 655.139 1474.36 L 655.139 1471.982 Z " style="fill: #545454; stroke: #545454;"/>
    <path d="M 526.727 1474.36 L 535.05 1475.549 L 526.727 1476.738 L 526.727 1474.36 Z " style="fill: #545454; stroke: #545454;"/>
    <path d="M 638.493 1474.36 L 649.194 1475.549 L 638.493 1476.738 L 638.493 1474.36 Z " style="fill: #545454; stroke: #545454;"/>
    <path d="M 1897.644 1474.36 L 1909.534 1474.36 L 1909.534 1480.305 Q 1906.76 1488.034 1897.644 1486.25 L 1897.644 1474.36 Z " style="fill: #545454; stroke: #545454;"/>
    <path d="M 296.061 1476.738 L 298.439 1481.494 L 296.061 1476.738 Z " style="fill: #545454; stroke: #545454;"/>
    <path d="M 545.751 1476.738 L 554.074 1477.927 L 545.751 1479.116 L 545.751 1476.738 Z " style="fill: #545454; stroke: #545454;"/>
    <path d="M 619.469 1476.738 L 627.792 1477.927 L 619.469 1479.116 L 619.469 1476.738 Z " style="fill: #545454; stroke: #545454;"/>
    <path d="M 804.953 1479.116 L 800.197 1486.25 L 804.953 1479.116 Z " style="fill: #545454; stroke: #545454;"/>
    <path d="M 305.573 1486.25 L 310.329 1493.384 L 305.573 1486.25 Z " style="fill: #545454; stroke: #545454;"/>
    <path d="M 793.063 1488.628 L 790.685 1493.384 L 793.063 1488.628 Z " style="fill: #545454; stroke: #545454;"/>
    <path d="M 317.463 1495.762 L 322.219 1502.896 L 317.463 1495.762 Z " style="fill: #545454; stroke: #545454;"/>
    <path d="M 781.173 1495.762 L 778.795 1500.518 L 781.173 1495.762 Z " style="fill: #545454; stroke: #545454;"/>
    <path d="M 774.039 1500.518 L 771.661 1505.274 L 774.039 1500.518 Z " style="fill: #545454; stroke: #545454;"/>
    <path d="M 1904.778 1507.652 L 1916.668 1507.652 L 1916.668 1513.597 Q 1913.844 1519.542 1904.778 1517.164 L 1904.778 1507.652 Z " style="fill: #545454; stroke: #545454;"/>
    <path d="M 229.477 1512.408 L 231.855 1517.164 L 229.477 1512.408 Z " style="fill: #545454; stroke: #545454;"/>
    <path d="M 238.989 1526.676 L 241.367 1531.432 L 238.989 1526.676 Z " style="fill: #545454; stroke: #545454;"/>
    <path d="M 246.123 1536.188 L 248.501 1540.944 L 246.123 1536.188 Z " style="fill: #545454; stroke: #545454;"/>
    <path d="M 417.339 1543.322 L 423.284 1544.511 L 417.339 1545.7 L 417.339 1543.322 Z " style="fill: #545454; stroke: #545454;"/>
    <path d="M 659.895 1543.322 L 665.84 1544.511 L 659.895 1545.7 L 659.895 1543.322 Z " style="fill: #545454; stroke: #545454;"/>
    <path d="M 258.013 1552.834 L 260.391 1557.59 L 258.013 1552.834 Z " style="fill: #545454; stroke: #545454;"/>
    <path d="M 607.579 1552.834 L 613.524 1554.023 L 607.579 1555.212 L 607.579 1552.834 Z " style="fill: #545454; stroke: #545454;"/>
    <path d="M 486.301 1555.212 L 499.38 1556.401 L 486.301 1557.59 L 486.301 1555.212 Z " style="fill: #545454; stroke: #545454;"/>
    <path d="M 579.043 1555.212 L 594.5 1556.401 L 579.043 1557.59 L 579.043 1555.212 Z " style="fill: #545454; stroke: #545454;"/>
    <path d="M 265.147 1562.346 L 267.525 1567.102 L 265.147 1562.346 Z " style="fill: #545454; stroke: #545454;"/>
    <path d="M 272.281 1571.858 L 274.659 1576.614 L 272.281 1571.858 Z " style="fill: #545454; stroke: #545454;"/>
    <path d="M 281.793 1583.748 L 284.171 1588.504 L 281.793 1583.748 Z " style="fill: #545454; stroke: #545454;"/>
    <path d="M 322.219 1633.686 L 324.597 1638.442 L 322.219 1633.686 Z " style="fill: #545454; stroke: #545454;"/>
    <path d="M 334.109 1647.954 L 338.865 1655.088 L 334.109 1647.954 Z " style="fill: #545454; stroke: #545454;"/>
    <path d="M 353.133 1669.356 L 362.645 1681.246 L 353.133 1669.356 Z " style="fill: #545454; stroke: #545454;"/>
    <path d="M 386.425 1705.026 L 419.717 1740.696 L 386.425 1705.026 Z " style="fill: #545454; stroke: #545454;"/>
    <path d="M 445.875 1762.098 L 453.009 1771.61 L 445.875 1762.098 Z " style="fill: #545454; stroke: #545454;"/>
    <path d="M 469.655 1783.5 L 474.411 1790.634 L 469.655 1783.5 Z " style="fill: #545454; stroke: #545454;"/>
    <path d="M 486.301 1797.768 L 488.679 1802.524 L 486.301 1797.768 Z " style="fill: #545454; stroke: #545454;"/>
    <path d="M 500.569 1809.658 L 502.947 1814.414 L 500.569 1809.658 Z " style="fill: #545454; stroke: #545454;"/>
    <path d="M 512.459 1819.17 L 517.215 1826.304 L 512.459 1819.17 Z " style="fill: #545454; stroke: #545454;"/>
    <path d="M 524.349 1828.682 L 526.727 1833.438 L 524.349 1828.682 Z " style="fill: #545454; stroke: #545454;"/>
    <path d="M 543.373 1842.95 L 545.751 1847.706 L 543.373 1842.95 Z " style="fill: #545454; stroke: #545454;"/>
    <path d="M 1570.669 1845.328 Q 1584.58 1840.374 1581.37 1851.273 L 1577.803 1854.84 Q 1564.724 1851.273 1561.157 1857.218 L 1559.968 1851.273 L 1570.669 1845.328 Z " style="stroke: rgb(255, 255, 255); fill: rgb(255, 255, 255);"/>
    <path d="M 562.397 1857.218 L 564.775 1861.974 L 562.397 1857.218 Z " style="fill: #545454; stroke: #545454;"/>
    <path d="M 600.445 1883.376 L 602.823 1888.132 L 600.445 1883.376 Z " style="fill: #545454; stroke: #545454;"/>
    <path d="M 1551.645 1885.754 L 1549.267 1890.51 L 1551.645 1885.754 Z " style="fill: #545454; stroke: #545454;"/>
    <path d="M 1544.511 1890.51 L 1539.755 1897.644 L 1544.511 1890.51 Z " style="fill: #545454; stroke: #545454;"/>
    <path d="M 1508.841 1914.29 L 1506.463 1919.046 L 1508.841 1914.29 Z " style="fill: #545454; stroke: #545454;"/>
    <path d="M 1501.707 1919.046 L 1499.329 1923.802 L 1501.707 1919.046 Z " style="fill: #545454; stroke: #545454;"/>
    <path d="M 1477.927 1933.314 L 1475.549 1938.07 L 1477.927 1933.314 Z " style="fill: #545454; stroke: #545454;"/>
    <path d="M 940.499 2028.434 L 946.444 2029.623 L 940.499 2030.812 L 940.499 2028.434 Z " style="fill: #545454; stroke: #545454;"/>
    <path d="M 1021.351 2040.324 L 1034.43 2041.513 L 1021.351 2042.702 L 1021.351 2040.324 Z " style="fill: #545454; stroke: #545454;"/>
    <path d="M 1142.629 2040.324 L 1155.708 2041.513 L 1142.629 2042.702 L 1142.629 2040.324 Z " style="fill: #545454; stroke: #545454;"/>
    <path d="M 1064.155 2042.702 L 1110.526 2043.891 L 1064.155 2045.08 L 1064.155 2042.702 Z " style="fill: #545454; stroke: #545454;"/>
    <path d="M 1178.299 14.268 L 1198.512 15.457 L 1196.134 21.402 L 1230.615 23.78 L 1236.56 26.158 L 1240.127 33.292 Q 1256.377 30.121 1263.907 35.67 Q 1266.88 30.32 1278.175 33.292 L 1282.931 35.67 L 1285.309 33.292 L 1292.443 40.426 L 1316.223 42.804 L 1320.979 33.292 L 1324.546 41.615 L 1322.168 49.938 L 1335.247 54.694 L 1368.539 57.072 L 1378.051 64.206 L 1418.477 68.962 L 1429.178 76.096 Q 1425.611 85.014 1432.745 83.23 L 1461.281 99.876 L 1494.573 99.876 L 1511.219 109.388 L 1519.542 109.388 Q 1516.57 116.522 1525.487 114.144 Q 1529.847 121.674 1542.133 121.278 L 1546.889 121.278 L 1554.023 126.034 L 1558.779 126.034 L 1581.37 134.357 L 1587.315 142.68 L 1625.363 145.058 L 1633.686 151.003 L 1637.253 156.948 L 1657.466 161.704 Q 1653.503 171.513 1663.411 168.838 L 1675.301 171.216 L 1686.002 179.539 L 1693.136 197.374 L 1712.16 202.13 L 1712.16 206.886 L 1716.916 206.886 L 1716.916 211.642 Q 1723.257 208.967 1721.672 215.209 L 1740.696 222.343 L 1746.641 233.044 L 1763.287 235.422 L 1772.799 242.556 L 1787.067 244.934 L 1790.634 248.501 L 1793.012 259.202 L 1807.28 265.147 Q 1804.308 274.065 1813.225 271.092 L 1822.737 282.982 L 1831.06 288.927 L 1831.06 292.494 L 1840.572 292.494 L 1840.572 296.061 L 1842.95 305.573 L 1851.273 313.896 L 1856.029 313.896 L 1859.596 313.896 L 1859.596 323.408 L 1865.541 323.408 L 1872.675 332.92 L 1880.998 338.865 L 1884.565 344.81 Q 1894.969 341.243 1892.888 348.377 L 1895.266 359.078 Q 1901.607 356.403 1900.022 362.645 L 1914.29 368.59 L 1914.29 378.102 L 1917.857 378.102 L 1930.936 388.803 L 1934.503 394.748 L 1945.204 397.126 L 1948.771 404.26 L 1966.606 404.26 L 1966.606 429.229 L 1970.173 430.418 L 1983.252 441.119 L 1986.819 447.064 L 1997.52 449.442 Q 1995.142 459.549 2002.276 457.765 L 2002.276 476.789 L 2011.788 491.057 L 2011.788 497.002 Q 2022.727 494.03 2026.056 500.569 L 2029.623 506.514 L 2037.946 512.459 L 2035.568 529.105 L 2037.946 535.05 L 2045.08 535.05 L 2046.269 542.184 L 2066.482 542.184 Q 2062.519 551.993 2072.427 549.318 L 2083.128 557.641 Q 2081.345 562.992 2086.695 561.208 Q 2095.613 564.775 2092.64 577.854 Q 2085.506 575.476 2087.884 582.61 L 2097.396 587.366 L 2097.396 593.311 L 2111.664 600.445 L 2111.664 609.957 Q 2121.176 614.713 2121.176 628.981 L 2118.798 633.737 L 2128.31 651.572 L 2133.066 651.572 L 2133.066 663.462 L 2137.822 663.462 L 2137.822 672.974 Q 2144.163 670.299 2142.578 676.541 Q 2130.688 678.919 2133.066 695.565 L 2142.578 707.455 L 2149.712 728.857 L 2155.657 734.802 L 2159.224 734.802 L 2159.224 744.314 Q 2165.565 741.639 2163.98 747.881 L 2174.681 763.338 Q 2183.599 760.366 2180.626 769.283 L 2183.004 771.661 L 2183.004 833.489 L 2194.894 845.379 L 2194.894 890.561 L 2200.839 896.506 L 2204.406 897.695 L 2204.406 998.76 L 2199.65 999.949 L 2199.65 1049.887 L 2194.894 1054.643 L 2194.894 1099.825 L 2191.327 1103.392 Q 2183.4 1100.717 2185.382 1106.959 L 2183.004 1112.904 L 2194.894 1117.66 L 2194.894 1123.605 L 2178.248 1149.763 L 2178.248 1159.275 L 2184.193 1162.842 L 2188.949 1155.708 L 2190.138 1159.275 L 2179.437 1174.732 L 2178.248 1167.598 L 2171.114 1171.165 L 2168.736 1180.677 L 2175.87 1183.055 Q 2050.688 1397.927 1889.321 1576.614 L 1900.022 1563.535 Q 1901.211 1554.023 1894.077 1552.834 Q 1885.16 1551.051 1883.376 1556.401 L 1880.998 1582.559 L 1883.376 1584.937 L 1872.675 1595.638 L 1877.431 1586.126 Q 1868.514 1589.099 1871.486 1580.181 L 1866.73 1570.669 L 1869.108 1559.968 Q 1878.224 1561.752 1880.998 1554.023 L 1883.376 1527.865 L 1885.754 1525.487 L 1885.754 1430.367 L 1891.699 1424.422 L 1895.266 1423.233 L 1895.266 1367.35 Q 1884.327 1370.323 1880.998 1363.783 L 1880.998 1320.979 L 1875.053 1315.034 L 1859.596 1312.656 L 1859.596 1266.285 L 1847.706 1265.096 L 1847.706 1261.529 Q 1842.356 1258.557 1845.328 1247.261 L 1838.194 1240.127 L 1844.139 1243.694 Q 1886.262 1278.856 1965.417 1276.986 L 2020.111 1267.474 Q 2050.053 1258.604 2071.238 1243.694 Q 2073.913 1237.353 2067.671 1238.938 Q 2059.008 1245.732 2041.513 1243.694 L 2005.843 1236.56 L 1970.173 1219.914 L 1909.534 1172.354 L 1901.211 1160.464 Q 1895.861 1162.248 1897.644 1156.897 L 1773.988 1018.973 L 1674.112 900.073 L 1674.112 895.317 L 1809.658 769.283 Q 1807.875 763.933 1813.225 765.716 L 1924.991 663.462 L 1977.307 627.792 L 1992.764 621.847 L 1827.493 620.658 L 1760.909 694.376 L 1565.913 875.104 L 1564.724 313.896 Q 1531.571 318.295 1504.085 330.542 L 1485.061 332.92 L 1458.903 342.432 L 1430.367 347.188 L 1419.666 353.133 L 1436.312 391.181 L 1438.69 419.717 L 1441.068 422.095 L 1441.068 450.631 L 1443.446 453.009 L 1443.446 574.287 L 1438.69 571.909 L 1438.69 457.765 Q 1438.393 455.09 1425.611 456.576 L 1418.477 470.844 L 1407.776 470.844 Q 1409.56 463.363 1403.02 464.899 L 1403.02 422.095 Q 1399.691 415.556 1388.752 418.528 L 1383.996 410.205 L 1383.996 349.566 Q 1374.93 351.944 1372.106 345.999 L 1372.106 332.92 L 1357.838 332.92 L 1357.838 323.408 L 1353.082 323.408 L 1348.326 313.896 L 1353.082 313.896 L 1353.082 302.006 L 1348.326 302.006 L 1348.326 297.25 Q 1341.985 299.925 1343.57 293.683 L 1334.058 287.738 L 1334.058 282.982 L 1324.546 282.982 L 1324.546 279.415 L 1322.168 273.47 Q 1315.827 276.145 1317.412 269.903 L 1311.467 256.824 Q 1300.766 259.202 1298.388 253.257 L 1294.821 244.934 Q 1289.471 246.718 1291.254 241.367 Q 1286.201 230.963 1272.23 233.044 Q 1274.013 222.937 1265.096 219.965 L 1262.718 206.886 Q 1249.639 209.859 1246.072 200.941 Q 1247.856 195.591 1242.505 197.374 L 1236.56 194.996 Q 1239.533 187.862 1230.615 190.24 Q 1228.237 183.106 1216.347 185.484 L 1210.402 179.539 L 1210.402 171.216 L 1200.89 171.216 Q 1203.863 164.082 1194.945 166.46 L 1191.378 159.326 L 1168.787 152.192 Q 1147.682 155.165 1139.062 149.814 L 1135.495 142.68 L 1129.55 142.68 Q 1133.117 133.763 1125.983 135.546 L 1123.605 133.168 L 1097.447 133.168 L 1084.368 126.034 Q 1087.489 118.107 1076.045 121.278 L 1058.21 116.522 L 1058.21 109.388 Q 1051.076 112.361 1053.454 103.443 L 1049.887 99.876 L 1007.083 99.876 L 1002.327 95.12 L 964.279 90.364 L 959.523 85.608 Q 948.228 88.581 945.255 83.23 L 895.317 83.23 Q 890.561 90.364 876.293 87.986 L 871.537 85.608 L 865.592 89.175 L 872.726 76.096 L 845.379 76.096 L 841.812 79.663 L 838.245 85.608 L 810.898 83.23 Q 808.223 76.889 814.465 78.474 L 827.544 72.529 L 820.41 70.151 L 826.355 68.962 L 833.489 71.34 L 833.489 68.962 L 829.922 67.773 L 833.489 66.584 L 838.245 68.962 L 852.513 61.828 L 859.647 64.206 L 864.403 59.45 L 888.183 57.072 L 923.853 47.56 L 966.657 42.804 L 980.925 38.048 L 1030.863 33.292 L 1085.557 23.78 L 1104.581 23.78 L 1106.959 21.402 L 1133.117 21.402 L 1135.495 19.024 L 1175.921 16.646 L 1178.299 14.268 Z M 880 71 L 880 76 L 892 76 L 892 71 L 880 71 Z M 1586 839 Q 1589 847 1579 844 L 1579 858 L 1596 845 L 1586 839 Z M 2179 1115 L 2171 1121 Q 2168 1136 2175 1134 L 2183 1121 L 2179 1115 Z M 2134 1239 L 2131 1243 L 2135 1244 L 2134 1239 Z M 1898 1474 L 1898 1486 Q 1907 1488 1910 1480 L 1910 1474 L 1898 1474 Z M 1905 1508 L 1905 1517 Q 1914 1520 1917 1514 L 1917 1508 L 1905 1508 Z " style="fill: rgb(255, 255, 255); stroke: rgb(255, 255, 255);"/>
    <path d="M 809.709 71.34 L 815.654 72.529 L 809.709 73.718 L 809.709 71.34 Z " style="fill: #7e7e7e; stroke: #7e7e7e;"/>
    <path d="M 759.771 83.23 L 765.716 84.419 L 759.771 85.608 L 759.771 83.23 Z " style="fill: #7e7e7e; stroke: #7e7e7e;"/>
    <path d="M 750.259 85.608 L 756.204 86.797 L 750.259 87.986 L 750.259 85.608 Z " style="fill: #7e7e7e; stroke: #7e7e7e;"/>
    <path d="M 774.039 85.608 L 789.496 85.608 L 789.496 95.12 L 770.472 92.742 L 774.039 85.608 Z " style="fill: #7e7e7e; stroke: #7e7e7e;"/>
    <path d="M 845.379 87.986 Q 859.29 84.023 856.08 92.742 L 841.812 91.553 L 845.379 87.986 Z " style="fill: #7e7e7e; stroke: #7e7e7e;"/>
    <path d="M 716.967 95.12 L 722.912 96.309 L 716.967 97.498 L 716.967 95.12 Z " style="fill: #7e7e7e; stroke: #7e7e7e;"/>
    <path d="M 707.455 97.498 L 713.4 98.687 L 707.455 99.876 L 707.455 97.498 Z " style="fill: #7e7e7e; stroke: #7e7e7e;"/>
    <path d="M 728.857 97.498 L 734.802 98.687 L 728.857 99.876 L 728.857 97.498 Z " style="fill: #7e7e7e; stroke: #7e7e7e;"/>
    <path d="M 362.645 242.556 L 360.267 247.312 L 362.645 242.556 Z " style="fill: #7e7e7e; stroke: #7e7e7e;"/>
    <path d="M 343.621 254.446 L 341.243 259.202 L 343.621 254.446 Z " style="fill: #7e7e7e; stroke: #7e7e7e;"/>
    <path d="M 307.951 278.226 L 305.573 282.982 L 307.951 278.226 Z " style="fill: #7e7e7e; stroke: #7e7e7e;"/>
    <path d="M 300.817 282.982 L 298.439 287.738 L 300.817 282.982 Z " style="fill: #7e7e7e; stroke: #7e7e7e;"/>
    <path d="M 291.305 290.116 L 288.927 294.872 L 291.305 290.116 Z " style="fill: #7e7e7e; stroke: #7e7e7e;"/>
    <path d="M 272.281 304.384 L 269.903 309.14 L 272.281 304.384 Z " style="fill: #7e7e7e; stroke: #7e7e7e;"/>
    <path d="M 262.769 311.518 L 258.013 318.652 L 262.769 311.518 Z " style="fill: #7e7e7e; stroke: #7e7e7e;"/>
    <path d="M 248.501 323.408 L 243.745 330.542 L 248.501 323.408 Z " style="fill: #7e7e7e; stroke: #7e7e7e;"/>
    <path d="M 231.855 337.676 L 224.721 347.188 L 231.855 337.676 Z " style="fill: #7e7e7e; stroke: #7e7e7e;"/>
    <path d="M 200.941 366.212 L 189.051 380.48 L 200.941 366.212 Z " style="fill: #7e7e7e; stroke: #7e7e7e;"/>
    <path d="M 170.027 399.504 L 162.893 409.016 L 170.027 399.504 Z " style="fill: #7e7e7e; stroke: #7e7e7e;"/>
    <path d="M 153.381 418.528 L 148.625 425.662 L 153.381 418.528 Z " style="fill: #7e7e7e; stroke: #7e7e7e;"/>
    <path d="M 143.869 430.418 L 139.113 437.552 L 143.869 430.418 Z " style="fill: #7e7e7e; stroke: #7e7e7e;"/>
    <path d="M 134.357 442.308 L 131.979 447.064 L 134.357 442.308 Z " style="fill: #7e7e7e; stroke: #7e7e7e;"/>
    <path d="M 500.569 596.878 L 516.026 598.067 L 500.569 599.256 L 500.569 596.878 Z " style="fill: #7e7e7e; stroke: #7e7e7e;"/>
    <path d="M 540.995 596.878 L 554.074 598.067 L 540.995 599.256 L 540.995 596.878 Z " style="fill: #7e7e7e; stroke: #7e7e7e;"/>
    <path d="M 1125.983 596.878 L 1139.062 598.067 L 1125.983 599.256 L 1125.983 596.878 Z " style="fill: #7e7e7e; stroke: #7e7e7e;"/>
    <path d="M 1171.165 596.878 L 1186.622 598.067 L 1171.165 599.256 L 1171.165 596.878 Z " style="fill: #7e7e7e; stroke: #7e7e7e;"/>
    <path d="M 1068.911 606.39 L 1074.856 607.579 L 1068.911 608.768 L 1068.911 606.39 Z " style="fill: #7e7e7e; stroke: #7e7e7e;"/>
    <path d="M 857.269 618.28 L 863.214 619.469 L 857.269 620.658 L 857.269 618.28 Z " style="fill: #7e7e7e; stroke: #7e7e7e;"/>
    <path d="M 845.379 620.658 L 851.324 621.847 L 845.379 623.036 L 845.379 620.658 Z " style="fill: #7e7e7e; stroke: #7e7e7e;"/>
    <path d="M 724.101 630.17 L 765.716 631.359 L 724.101 632.548 L 724.101 630.17 Z " style="fill: #7e7e7e; stroke: #7e7e7e;"/>
    <path d="M 357.889 644.438 L 355.511 649.194 L 357.889 644.438 Z " style="fill: #7e7e7e; stroke: #7e7e7e;"/>
    <path d="M 348.377 651.572 L 345.999 656.328 L 348.377 651.572 Z " style="fill: #7e7e7e; stroke: #7e7e7e;"/>
    <path d="M 976.169 651.572 L 971.413 658.706 L 976.169 651.572 Z " style="fill: #7e7e7e; stroke: #7e7e7e;"/>
    <path d="M 336.487 661.084 L 317.463 682.486 L 336.487 661.084 Z " style="fill: #7e7e7e; stroke: #7e7e7e;"/>
    <path d="M 498.191 668.218 L 504.136 669.407 L 498.191 670.596 L 498.191 668.218 Z " style="fill: #7e7e7e; stroke: #7e7e7e;"/>
    <path d="M 536.239 668.218 L 542.184 669.407 L 536.239 670.596 L 536.239 668.218 Z " style="fill: #7e7e7e; stroke: #7e7e7e;"/>
    <path d="M 1118.849 675.352 L 1131.928 676.541 L 1118.849 677.73 L 1118.849 675.352 Z " style="fill: #7e7e7e; stroke: #7e7e7e;"/>
    <path d="M 1173.543 675.352 L 1186.622 676.541 L 1173.543 677.73 L 1173.543 675.352 Z " style="fill: #7e7e7e; stroke: #7e7e7e;"/>
    <path d="M 950.011 677.73 L 947.633 682.486 L 950.011 677.73 Z " style="fill: #7e7e7e; stroke: #7e7e7e;"/>
    <path d="M 436.363 689.62 L 433.985 694.376 L 436.363 689.62 Z " style="fill: #7e7e7e; stroke: #7e7e7e;"/>
    <path d="M 307.951 691.998 L 305.573 696.754 L 307.951 691.998 Z " style="fill: #7e7e7e; stroke: #7e7e7e;"/>
    <path d="M 607.579 691.998 L 609.957 696.754 L 607.579 691.998 Z " style="fill: #7e7e7e; stroke: #7e7e7e;"/>
    <path d="M 938.121 694.376 L 935.743 699.132 L 938.121 694.376 Z " style="fill: #7e7e7e; stroke: #7e7e7e;"/>
    <path d="M 740.747 696.754 L 745.503 703.888 L 740.747 696.754 Z " style="fill: #7e7e7e; stroke: #7e7e7e;"/>
    <path d="M 785.929 696.754 L 801.386 697.943 L 785.929 699.132 L 785.929 696.754 Z " style="fill: #7e7e7e; stroke: #7e7e7e;"/>
    <path d="M 424.473 699.132 L 410.205 715.778 L 424.473 699.132 Z " style="fill: #7e7e7e; stroke: #7e7e7e;"/>
    <path d="M 617.091 699.132 L 624.225 708.644 L 617.091 699.132 Z " style="fill: #7e7e7e; stroke: #7e7e7e;"/>
    <path d="M 821.599 699.132 L 834.678 700.321 L 821.599 701.51 L 821.599 699.132 Z " style="fill: #7e7e7e; stroke: #7e7e7e;"/>
    <path d="M 1057.021 699.132 L 1054.643 703.888 L 1057.021 699.132 Z " style="fill: #7e7e7e; stroke: #7e7e7e;"/>
    <path d="M 750.259 708.644 L 752.637 713.4 L 750.259 708.644 Z " style="fill: #7e7e7e; stroke: #7e7e7e;"/>
    <path d="M 1290.065 711.022 L 1296.01 714.589 L 1292.443 715.778 L 1290.065 711.022 Z " style="fill: #7e7e7e; stroke: #7e7e7e;"/>
    <path d="M 631.359 713.4 L 636.115 720.534 L 631.359 713.4 Z " style="fill: #7e7e7e; stroke: #7e7e7e;"/>
    <path d="M 1301.955 718.156 L 1304.333 722.912 L 1301.955 718.156 Z " style="fill: #7e7e7e; stroke: #7e7e7e;"/>
    <path d="M 405.449 720.534 L 403.071 725.29 L 405.449 720.534 Z " style="fill: #7e7e7e; stroke: #7e7e7e;"/>
    <path d="M 1309.089 722.912 L 1311.467 727.668 L 1309.089 722.912 Z " style="fill: #7e7e7e; stroke: #7e7e7e;"/>
    <path d="M 1316.223 727.668 L 1318.601 732.424 L 1316.223 727.668 Z " style="fill: #7e7e7e; stroke: #7e7e7e;"/>
    <path d="M 8.323 741.936 L 9.512 747.881 L 7.134 747.881 L 8.323 741.936 Z " style="fill: #7e7e7e; stroke: #7e7e7e;"/>
    <path d="M 1028.485 744.314 L 1029.674 766.905 L 1027.296 766.905 L 1028.485 744.314 Z " style="fill: #7e7e7e; stroke: #7e7e7e;"/>
    <path d="M 914.341 758.582 L 915.53 764.527 L 913.152 764.527 L 914.341 758.582 Z " style="fill: #7e7e7e; stroke: #7e7e7e;"/>
    <path d="M 5.945 760.96 L 7.134 766.905 L 4.756 766.905 L 5.945 760.96 Z " style="fill: #7e7e7e; stroke: #7e7e7e;"/>
    <path d="M 3.567 784.74 L 4.756 790.685 L 2.378 790.685 L 3.567 784.74 Z " style="fill: #7e7e7e; stroke: #7e7e7e;"/>
    <path d="M 379.291 794.252 L 380.48 800.197 L 378.102 800.197 L 379.291 794.252 Z " style="fill: #7e7e7e; stroke: #7e7e7e;"/>
    <path d="M 788.307 796.63 L 789.496 802.575 L 787.118 802.575 L 788.307 796.63 Z " style="fill: #7e7e7e; stroke: #7e7e7e;"/>
    <path d="M 671.785 801.386 L 672.974 809.709 L 670.596 809.709 L 671.785 801.386 Z " style="fill: #7e7e7e; stroke: #7e7e7e;"/>
    <path d="M 914.341 803.764 L 915.53 809.709 L 913.152 809.709 L 914.341 803.764 Z " style="fill: #7e7e7e; stroke: #7e7e7e;"/>
    <path d="M 1049.887 810.898 L 1052.265 815.654 L 1049.887 810.898 Z " style="fill: #7e7e7e; stroke: #7e7e7e;"/>
    <path d="M 262.769 815.654 L 263.958 840.623 L 261.58 840.623 L 262.769 815.654 Z " style="fill: #7e7e7e; stroke: #7e7e7e;"/>
    <path d="M 1.189 818.032 L 2.378 826.355 L 0 826.355 L 1.189 818.032 Z " style="fill: #7e7e7e; stroke: #7e7e7e;"/>
    <path d="M 790.685 820.41 L 791.874 850.135 L 789.496 850.135 L 790.685 820.41 Z " style="fill: #7e7e7e; stroke: #7e7e7e;"/>
    <path d="M 1059.399 820.41 L 1071.289 834.678 L 1059.399 820.41 Z " style="fill: #7e7e7e; stroke: #7e7e7e;"/>
    <path d="M 379.291 822.788 L 380.48 831.111 L 378.102 831.111 L 379.291 822.788 Z " style="fill: #7e7e7e; stroke: #7e7e7e;"/>
    <path d="M 674.163 829.922 L 675.352 845.379 L 672.974 845.379 L 674.163 829.922 Z " style="fill: #7e7e7e; stroke: #7e7e7e;"/>
    <path d="M 1076.045 834.678 L 1080.801 841.812 L 1076.045 834.678 Z " style="fill: #7e7e7e; stroke: #7e7e7e;"/>
    <path d="M 1111.715 858.458 L 1114.093 863.214 L 1111.715 858.458 Z " style="fill: #7e7e7e; stroke: #7e7e7e;"/>
    <path d="M 671.785 863.214 L 672.974 871.537 L 670.596 871.537 L 671.785 863.214 Z " style="fill: #7e7e7e; stroke: #7e7e7e;"/>
    <path d="M 788.307 867.97 L 789.496 873.915 L 787.118 873.915 L 788.307 867.97 Z " style="fill: #7e7e7e; stroke: #7e7e7e;"/>
    <path d="M 938.121 870.348 L 940.499 875.104 L 938.121 870.348 Z " style="fill: #7e7e7e; stroke: #7e7e7e;"/>
    <path d="M 1.189 886.994 L 2.378 897.695 L 0 897.695 L 1.189 886.994 Z " style="fill: #7e7e7e; stroke: #7e7e7e;"/>
    <path d="M 976.169 910.774 L 978.547 915.53 L 976.169 910.774 Z " style="fill: #7e7e7e; stroke: #7e7e7e;"/>
    <path d="M 988.059 920.286 L 990.437 925.042 L 988.059 920.286 Z " style="fill: #7e7e7e; stroke: #7e7e7e;"/>
    <path d="M 995.193 925.042 L 997.571 929.798 L 995.193 925.042 Z " style="fill: #7e7e7e; stroke: #7e7e7e;"/>
    <path d="M 1242.505 927.42 L 1244.883 932.176 L 1242.505 927.42 Z " style="fill: #7e7e7e; stroke: #7e7e7e;"/>
    <path d="M 1002.327 929.798 L 1004.705 934.554 L 1002.327 929.798 Z " style="fill: #7e7e7e; stroke: #7e7e7e;"/>
    <path d="M 1565.913 932.176 L 1588.504 957.145 L 1574.236 945.255 L 1568.291 936.932 L 1565.913 1155.708 L 1565.913 932.176 Z " style="fill: #7e7e7e; stroke: #7e7e7e;"/>
    <path d="M 1009.461 934.554 L 1011.839 939.31 L 1009.461 934.554 Z " style="fill: #7e7e7e; stroke: #7e7e7e;"/>
    <path d="M 424.473 939.31 L 429.229 946.444 L 424.473 939.31 Z " style="fill: #7e7e7e; stroke: #7e7e7e;"/>
    <path d="M 759.771 946.444 L 757.393 951.2 L 759.771 946.444 Z " style="fill: #7e7e7e; stroke: #7e7e7e;"/>
    <path d="M 5.945 948.822 L 7.134 954.767 L 4.756 954.767 L 5.945 948.822 Z " style="fill: #7e7e7e; stroke: #7e7e7e;"/>
    <path d="M 1278.175 948.822 L 1280.553 953.578 L 1278.175 948.822 Z " style="fill: #7e7e7e; stroke: #7e7e7e;"/>
    <path d="M 441.119 953.578 L 443.497 958.334 L 441.119 953.578 Z " style="fill: #7e7e7e; stroke: #7e7e7e;"/>
    <path d="M 1292.443 958.334 L 1294.821 963.09 L 1292.443 958.334 Z " style="fill: #7e7e7e; stroke: #7e7e7e;"/>
    <path d="M 1589.693 960.712 L 1674.112 1059.399 L 1663.411 1051.076 L 1639.631 1051.076 L 1636.064 1047.509 L 1636.064 1016.595 L 1589.693 960.712 Z " style="stroke: rgb(126, 126, 126); fill: rgb(255, 255, 255);"/>
    <path d="M 310.329 963.09 L 315.085 970.224 L 310.329 963.09 Z " style="fill: #7e7e7e; stroke: #7e7e7e;"/>
    <path d="M 747.881 963.09 L 743.125 970.224 L 747.881 963.09 Z " style="fill: #7e7e7e; stroke: #7e7e7e;"/>
    <path d="M 1301.955 965.468 L 1306.711 972.602 L 1301.955 965.468 Z " style="fill: #7e7e7e; stroke: #7e7e7e;"/>
    <path d="M 1313.845 974.98 L 1337.625 1001.138 L 1313.845 974.98 Z " style="fill: #7e7e7e; stroke: #7e7e7e;"/>
    <path d="M 336.487 989.248 L 338.865 994.004 L 336.487 989.248 Z " style="fill: #7e7e7e; stroke: #7e7e7e;"/>
    <path d="M 719.345 991.626 L 716.967 996.382 L 719.345 991.626 Z " style="fill: #7e7e7e; stroke: #7e7e7e;"/>
    <path d="M 357.889 1005.894 L 360.267 1010.65 L 357.889 1005.894 Z " style="fill: #7e7e7e; stroke: #7e7e7e;"/>
    <path d="M 700.321 1005.894 L 697.943 1010.65 L 700.321 1005.894 Z " style="fill: #7e7e7e; stroke: #7e7e7e;"/>
    <path d="M 1342.381 1005.894 L 1344.759 1010.65 L 1342.381 1005.894 Z " style="fill: #7e7e7e; stroke: #7e7e7e;"/>
    <path d="M 2262.667 1013.028 L 2261.478 1016.595 L 2257.911 1024.918 L 2256.722 1021.351 L 2262.667 1013.028 Z " style="fill: #7e7e7e; stroke: #7e7e7e;"/>
    <path d="M 1171.165 1017.784 L 1173.543 1022.54 L 1171.165 1017.784 Z " style="fill: #7e7e7e; stroke: #7e7e7e;"/>
    <path d="M 1199.701 1036.808 L 1202.079 1041.564 L 1199.701 1036.808 Z " style="fill: #7e7e7e; stroke: #7e7e7e;"/>
    <path d="M 2250.777 1036.808 L 2251.966 1040.375 L 2248.399 1046.32 L 2247.21 1040.375 L 2250.777 1036.808 Z " style="fill: #7e7e7e; stroke: #7e7e7e;"/>
    <path d="M 1206.835 1041.564 L 1216.347 1053.454 L 1206.835 1041.564 Z " style="fill: #7e7e7e; stroke: #7e7e7e;"/>
    <path d="M 583.799 1048.698 L 589.744 1049.887 L 583.799 1051.076 L 583.799 1048.698 Z " style="fill: #7e7e7e; stroke: #7e7e7e;"/>
    <path d="M 500.569 1051.076 L 513.648 1052.265 L 500.569 1053.454 L 500.569 1051.076 Z " style="fill: #7e7e7e; stroke: #7e7e7e;"/>
    <path d="M 555.263 1051.076 L 568.342 1052.265 L 555.263 1053.454 L 555.263 1051.076 Z " style="fill: #7e7e7e; stroke: #7e7e7e;"/>
    <path d="M 1368.539 1053.454 L 1369.728 1059.399 L 1367.35 1059.399 L 1368.539 1053.454 Z " style="fill: #7e7e7e; stroke: #7e7e7e;"/>
    <path d="M 1223.481 1058.21 L 1228.237 1065.344 L 1223.481 1058.21 Z " style="fill: #7e7e7e; stroke: #7e7e7e;"/>
    <path d="M 2238.887 1060.588 L 2240.076 1064.155 L 2234.131 1072.478 L 2232.942 1068.911 L 2238.887 1060.588 Z " style="fill: #7e7e7e; stroke: #7e7e7e;"/>
    <path d="M 1675.301 1062.966 L 1684.813 1074.856 L 1675.301 1062.966 Z " style="fill: #7e7e7e; stroke: #7e7e7e;"/>
    <path d="M 1687.191 1077.234 L 1696.703 1089.124 L 1687.191 1077.234 Z " style="fill: #7e7e7e; stroke: #7e7e7e;"/>
    <path d="M 2229.375 1079.612 L 2228.186 1083.179 L 2219.863 1101.014 L 2218.674 1097.447 L 2229.375 1079.612 Z " style="fill: #7e7e7e; stroke: #7e7e7e;"/>
    <path d="M 334.109 1081.99 L 331.731 1086.746 L 334.109 1081.99 Z " style="fill: #7e7e7e; stroke: #7e7e7e;"/>
    <path d="M 1373.295 1086.746 L 1374.484 1104.581 L 1372.106 1104.581 L 1373.295 1086.746 Z " style="fill: #7e7e7e; stroke: #7e7e7e;"/>
    <path d="M 1699.081 1091.502 L 1710.971 1105.77 L 1702.648 1103.392 L 1699.081 1091.502 Z " style="fill: #7e7e7e; stroke: #7e7e7e;"/>
    <path d="M 2213.918 1103.392 L 2218.674 1104.581 L 2215.107 1110.526 L 2213.918 1103.392 Z " style="fill: #7e7e7e; stroke: #7e7e7e;"/>
    <path d="M 1713.349 1108.148 Q 1758.176 1166.764 1810.847 1217.536 L 1835.816 1237.749 L 1827.493 1231.804 Q 1796.48 1211.69 1773.988 1183.055 L 1770.421 1177.11 L 1746.641 1177.11 L 1743.074 1173.543 Q 1745.452 1164.626 1738.318 1167.598 L 1738.318 1158.086 L 1727.617 1158.086 L 1721.672 1152.141 L 1721.672 1121.227 L 1713.349 1108.148 Z " style="stroke: rgb(255, 255, 255); fill: rgb(255, 255, 255);"/>
    <path d="M 1249.639 1112.904 L 1250.828 1130.739 L 1248.45 1130.739 L 1249.639 1112.904 Z " style="fill: #7e7e7e; stroke: #7e7e7e;"/>
    <path d="M 2207.973 1117.66 L 2211.54 1118.849 L 2191.327 1153.33 L 2190.138 1149.763 L 2207.973 1117.66 Z " style="fill: #7e7e7e; stroke: #7e7e7e;"/>
    <path d="M 1368.539 1134.306 L 1369.728 1140.251 L 1367.35 1140.251 L 1368.539 1134.306 Z " style="fill: #7e7e7e; stroke: #7e7e7e;"/>
    <path d="M 307.951 1143.818 L 309.14 1156.897 L 306.762 1156.897 L 307.951 1143.818 Z " style="fill: #7e7e7e; stroke: #7e7e7e;"/>
    <path d="M 424.473 1146.196 L 429.229 1153.33 L 424.473 1146.196 Z " style="fill: #7e7e7e; stroke: #7e7e7e;"/>
    <path d="M 907.207 1146.196 L 908.396 1240.127 L 906.018 1240.127 L 907.207 1146.196 Z " style="fill: #7e7e7e; stroke: #7e7e7e;"/>
    <path d="M 1442.257 1150.952 L 1443.446 1173.543 L 1441.068 1173.543 L 1442.257 1150.952 Z " style="fill: #7e7e7e; stroke: #7e7e7e;"/>
    <path d="M 1237.749 1162.842 L 1235.371 1167.598 L 1237.749 1162.842 Z " style="fill: #7e7e7e; stroke: #7e7e7e;"/>
    <path d="M 512.459 1172.354 L 520.782 1173.543 L 512.459 1174.732 L 512.459 1172.354 Z " style="fill: #7e7e7e; stroke: #7e7e7e;"/>
    <path d="M 545.751 1174.732 L 556.452 1175.921 L 545.751 1177.11 L 545.751 1174.732 Z " style="fill: #7e7e7e; stroke: #7e7e7e;"/>
    <path d="M 1225.859 1174.732 L 1221.103 1181.866 L 1225.859 1174.732 Z " style="fill: #7e7e7e; stroke: #7e7e7e;"/>
    <path d="M 581.421 1177.11 L 589.744 1178.299 L 581.421 1179.488 L 581.421 1177.11 Z " style="fill: #7e7e7e; stroke: #7e7e7e;"/>
    <path d="M 609.957 1179.488 L 615.902 1180.677 L 609.957 1181.866 L 609.957 1179.488 Z " style="fill: #7e7e7e; stroke: #7e7e7e;"/>
    <path d="M 1568.291 1181.866 L 1569.48 1202.079 L 1567.102 1202.079 L 1568.291 1181.866 Z " style="fill: #7e7e7e; stroke: #7e7e7e;"/>
    <path d="M 686.053 1186.622 L 694.376 1187.811 L 686.053 1189 L 686.053 1186.622 Z " style="fill: #7e7e7e; stroke: #7e7e7e;"/>
    <path d="M 1347.137 1186.622 L 1344.759 1191.378 L 1347.137 1186.622 Z " style="fill: #7e7e7e; stroke: #7e7e7e;"/>
    <path d="M 1342.381 1193.756 L 1340.003 1198.512 L 1342.381 1193.756 Z " style="fill: #7e7e7e; stroke: #7e7e7e;"/>
    <path d="M 1439.879 1193.756 L 1441.068 1202.079 L 1438.69 1202.079 L 1439.879 1193.756 Z " style="fill: #7e7e7e; stroke: #7e7e7e;"/>
    <path d="M 1061.777 1198.512 L 1067.722 1199.701 L 1061.777 1200.89 L 1061.777 1198.512 Z " style="fill: #7e7e7e; stroke: #7e7e7e;"/>
    <path d="M 1097.447 1203.268 L 1103.392 1204.457 L 1097.447 1205.646 L 1097.447 1203.268 Z " style="fill: #7e7e7e; stroke: #7e7e7e;"/>
    <path d="M 1135.495 1203.268 L 1143.818 1204.457 L 1135.495 1205.646 L 1135.495 1203.268 Z " style="fill: #7e7e7e; stroke: #7e7e7e;"/>
    <path d="M 1330.491 1208.024 L 1323.357 1217.536 L 1330.491 1208.024 Z " style="fill: #7e7e7e; stroke: #7e7e7e;"/>
    <path d="M 1570.669 1210.402 L 1571.858 1221.103 L 1569.48 1221.103 L 1570.669 1210.402 Z " style="fill: #7e7e7e; stroke: #7e7e7e;"/>
    <path d="M 1437.501 1212.78 L 1438.69 1221.103 L 1436.312 1221.103 L 1437.501 1212.78 Z " style="fill: #7e7e7e; stroke: #7e7e7e;"/>
    <path d="M 331.731 1217.536 L 334.109 1222.292 L 331.731 1217.536 Z " style="fill: #7e7e7e; stroke: #7e7e7e;"/>
    <path d="M 1309.089 1227.048 L 1306.711 1231.804 L 1309.089 1227.048 Z " style="fill: #7e7e7e; stroke: #7e7e7e;"/>
    <path d="M 828.733 1234.182 L 840.623 1248.45 L 828.733 1234.182 Z " style="fill: #7e7e7e; stroke: #7e7e7e;"/>
    <path d="M 1425.611 1255.584 L 1426.8 1261.529 L 1424.422 1261.529 L 1425.611 1255.584 Z " style="fill: #7e7e7e; stroke: #7e7e7e;"/>
    <path d="M 1582.559 1257.962 L 1580.181 1262.718 L 1582.559 1257.962 Z " style="fill: #7e7e7e; stroke: #7e7e7e;"/>
    <path d="M 481.545 1274.608 L 489.868 1275.797 L 481.545 1276.986 L 481.545 1274.608 Z " style="fill: #7e7e7e; stroke: #7e7e7e;"/>
    <path d="M 507.703 1276.986 L 518.404 1278.175 L 507.703 1279.364 L 507.703 1276.986 Z " style="fill: #7e7e7e; stroke: #7e7e7e;"/>
    <path d="M 1028.485 1276.986 L 1034.43 1278.175 L 1028.485 1279.364 L 1028.485 1276.986 Z " style="fill: #7e7e7e; stroke: #7e7e7e;"/>
    <path d="M 1187.811 1276.986 L 1193.756 1278.175 L 1187.811 1279.364 L 1187.811 1276.986 Z " style="fill: #7e7e7e; stroke: #7e7e7e;"/>
    <path d="M 543.373 1279.364 L 549.318 1280.553 L 543.373 1281.742 L 543.373 1279.364 Z " style="fill: #7e7e7e; stroke: #7e7e7e;"/>
    <path d="M 1045.131 1279.364 L 1051.076 1280.553 L 1045.131 1281.742 L 1045.131 1279.364 Z " style="fill: #7e7e7e; stroke: #7e7e7e;"/>
    <path d="M 1171.165 1279.364 L 1177.11 1280.553 L 1171.165 1281.742 L 1171.165 1279.364 Z " style="fill: #7e7e7e; stroke: #7e7e7e;"/>
    <path d="M 583.799 1281.742 L 592.122 1282.931 L 583.799 1284.12 L 583.799 1281.742 Z " style="fill: #7e7e7e; stroke: #7e7e7e;"/>
    <path d="M 650.383 1286.498 L 656.328 1287.687 L 650.383 1288.876 L 650.383 1286.498 Z " style="fill: #7e7e7e; stroke: #7e7e7e;"/>
    <path d="M 417.339 1303.144 L 407.827 1315.034 L 417.339 1303.144 Z " style="fill: #7e7e7e; stroke: #7e7e7e;"/>
    <path d="M 312.707 1322.168 L 307.951 1329.302 L 312.707 1322.168 Z " style="fill: #7e7e7e; stroke: #7e7e7e;"/>
    <path d="M 764.527 1324.546 L 769.283 1331.68 L 764.527 1324.546 Z " style="fill: #7e7e7e; stroke: #7e7e7e;"/>
    <path d="M 876.293 1324.546 L 877.482 1359.027 L 875.104 1359.027 L 876.293 1324.546 Z " style="fill: #7e7e7e; stroke: #7e7e7e;"/>
    <path d="M 303.195 1331.68 L 296.061 1341.192 L 303.195 1331.68 Z " style="fill: #7e7e7e; stroke: #7e7e7e;"/>
    <path d="M 783.551 1360.216 L 784.74 1366.161 L 782.362 1366.161 L 783.551 1360.216 Z " style="fill: #7e7e7e; stroke: #7e7e7e;"/>
    <path d="M 766.905 1419.666 L 752.637 1436.312 L 766.905 1419.666 Z " style="fill: #7e7e7e; stroke: #7e7e7e;"/>
    <path d="M 835.867 1448.202 L 833.489 1452.958 L 835.867 1448.202 Z " style="fill: #7e7e7e; stroke: #7e7e7e;"/>
    <path d="M 538.617 1476.738 L 544.562 1477.927 L 538.617 1479.116 L 538.617 1476.738 Z " style="fill: #7e7e7e; stroke: #7e7e7e;"/>
    <path d="M 628.981 1476.738 L 634.926 1477.927 L 628.981 1479.116 L 628.981 1476.738 Z " style="fill: #7e7e7e; stroke: #7e7e7e;"/>
    <path d="M 567.153 1479.116 L 606.39 1480.305 L 567.153 1481.494 L 567.153 1479.116 Z " style="fill: #7e7e7e; stroke: #7e7e7e;"/>
    <path d="M 797.819 1483.872 L 795.441 1488.628 L 797.819 1483.872 Z " style="fill: #7e7e7e; stroke: #7e7e7e;"/>
    <path d="M 472.033 1552.834 L 477.978 1554.023 L 472.033 1555.212 L 472.033 1552.834 Z " style="fill: #7e7e7e; stroke: #7e7e7e;"/>
    <path d="M 600.445 1552.834 L 606.39 1554.023 L 600.445 1555.212 L 600.445 1552.834 Z " style="fill: #7e7e7e; stroke: #7e7e7e;"/>
    <path d="M 500.569 1555.212 L 508.892 1556.401 L 500.569 1557.59 L 500.569 1555.212 Z " style="fill: #7e7e7e; stroke: #7e7e7e;"/>
    <path d="M 569.531 1555.212 L 577.854 1556.401 L 569.531 1557.59 L 569.531 1555.212 Z " style="fill: #7e7e7e; stroke: #7e7e7e;"/>
    <path d="M 277.037 1578.992 L 279.415 1583.748 L 277.037 1578.992 Z " style="fill: #7e7e7e; stroke: #7e7e7e;"/>
    <path d="M 1860.785 1593.26 Q 1867.027 1591.278 1864.352 1599.205 L 1869.108 1599.205 L 1851.273 1619.418 L 1861.974 1606.339 Q 1848.301 1599.8 1860.785 1593.26 Z " style="fill: #7e7e7e; stroke: #7e7e7e;"/>
    <path d="M 305.573 1614.662 L 307.951 1619.418 L 305.573 1614.662 Z " style="fill: #7e7e7e; stroke: #7e7e7e;"/>
    <path d="M 1844.139 1624.174 L 1841.761 1628.93 L 1844.139 1624.174 Z " style="fill: #7e7e7e; stroke: #7e7e7e;"/>
    <path d="M 315.085 1626.552 L 319.841 1633.686 L 315.085 1626.552 Z " style="fill: #7e7e7e; stroke: #7e7e7e;"/>
    <path d="M 1837.005 1633.686 L 1813.225 1659.844 L 1837.005 1633.686 Z " style="fill: #7e7e7e; stroke: #7e7e7e;"/>
    <path d="M 329.353 1643.198 L 331.731 1647.954 L 329.353 1643.198 Z " style="fill: #7e7e7e; stroke: #7e7e7e;"/>
    <path d="M 345.999 1662.222 L 350.755 1669.356 L 345.999 1662.222 Z " style="fill: #7e7e7e; stroke: #7e7e7e;"/>
    <path d="M 1808.469 1662.222 L 1803.713 1669.356 L 1808.469 1662.222 Z " style="fill: #7e7e7e; stroke: #7e7e7e;"/>
    <path d="M 1794.201 1676.49 L 1791.823 1681.246 L 1794.201 1676.49 Z " style="fill: #7e7e7e; stroke: #7e7e7e;"/>
    <path d="M 372.157 1690.758 L 384.047 1705.026 L 372.157 1690.758 Z " style="fill: #7e7e7e; stroke: #7e7e7e;"/>
    <path d="M 1768.043 1702.648 L 1765.665 1707.404 L 1768.043 1702.648 Z " style="fill: #7e7e7e; stroke: #7e7e7e;"/>
    <path d="M 1756.153 1714.538 L 1753.775 1719.294 L 1756.153 1714.538 Z " style="fill: #7e7e7e; stroke: #7e7e7e;"/>
    <path d="M 1744.263 1726.428 L 1729.995 1743.074 L 1744.263 1726.428 Z " style="fill: #7e7e7e; stroke: #7e7e7e;"/>
    <path d="M 422.095 1740.696 L 433.985 1754.964 L 422.095 1740.696 Z " style="fill: #7e7e7e; stroke: #7e7e7e;"/>
    <path d="M 1706.215 1762.098 L 1701.459 1769.232 L 1706.215 1762.098 Z " style="fill: #7e7e7e; stroke: #7e7e7e;"/>
    <path d="M 455.387 1771.61 L 460.143 1778.744 L 455.387 1771.61 Z " style="fill: #7e7e7e; stroke: #7e7e7e;"/>
    <path d="M 1684.813 1781.122 L 1680.057 1788.256 L 1684.813 1781.122 Z " style="fill: #7e7e7e; stroke: #7e7e7e;"/>
    <path d="M 1668.167 1795.39 L 1661.033 1804.902 L 1668.167 1795.39 Z " style="fill: #7e7e7e; stroke: #7e7e7e;"/>
    <path d="M 491.057 1802.524 L 493.435 1807.28 L 491.057 1802.524 Z " style="fill: #7e7e7e; stroke: #7e7e7e;"/>
    <path d="M 1649.143 1812.036 L 1646.765 1816.792 L 1649.143 1812.036 Z " style="fill: #7e7e7e; stroke: #7e7e7e;"/>
    <path d="M 1634.875 1823.926 L 1632.497 1828.682 L 1634.875 1823.926 Z " style="fill: #7e7e7e; stroke: #7e7e7e;"/>
    <path d="M 1622.985 1833.438 L 1620.607 1838.194 L 1622.985 1833.438 Z " style="fill: #7e7e7e; stroke: #7e7e7e;"/>
    <path d="M 1589.693 1859.596 L 1587.315 1864.352 L 1589.693 1859.596 Z " style="fill: #7e7e7e; stroke: #7e7e7e;"/>
    <path d="M 1580.181 1866.73 L 1577.803 1871.486 L 1580.181 1866.73 Z " style="fill: #7e7e7e; stroke: #7e7e7e;"/>
    <path d="M 1014.217 2040.324 L 1020.162 2041.513 L 1014.217 2042.702 L 1014.217 2040.324 Z " style="fill: #7e7e7e; stroke: #7e7e7e;"/>
    <path d="M 1045.131 2042.702 L 1062.966 2043.891 L 1045.131 2045.08 L 1045.131 2042.702 Z " style="fill: #7e7e7e; stroke: #7e7e7e;"/>
    <path d="M 1111.715 2042.702 L 1129.55 2043.891 L 1111.715 2045.08 L 1111.715 2042.702 Z " style="fill: #7e7e7e; stroke: #7e7e7e;"/>
    <path d="M 1425.611 0 L 1536.188 1.189 L 1501.707 4.756 Q 1497.546 -1.783 1482.683 2.378 L 1473.171 7.134 L 1468.415 7.134 L 1452.958 8.323 L 1470.793 11.89 L 1480.305 9.512 Q 1484.212 18.684 1499.329 16.646 L 1506.463 14.268 L 1527.865 23.78 L 1580.181 28.536 L 1587.315 26.158 L 1595.638 32.103 L 1593.26 36.859 Q 1595.044 42.21 1603.961 40.426 Q 1612.879 29.725 1633.686 33.292 L 1633.686 42.804 L 1656.277 42.804 L 1670.545 52.316 L 1684.813 52.316 L 1689.569 57.072 Q 1711.671 57.561 1725.239 66.584 L 1737.129 66.584 L 1744.263 73.718 L 1753.775 73.718 L 1784.689 85.608 L 1806.091 87.986 L 1841.761 99.876 L 1851.273 109.388 Q 1872.675 109.388 1884.565 118.9 L 1898.833 118.9 L 1922.613 133.168 L 1928.558 133.168 Q 1925.586 140.302 1934.503 137.924 Q 1942.316 144.379 1958.283 142.68 L 1986.819 154.57 L 1996.331 154.57 L 2004.654 160.515 L 2010.599 168.838 L 2041.513 183.106 L 2051.025 183.106 L 2062.915 194.996 Q 2084.862 198.018 2095.018 212.831 Q 2093.235 218.182 2098.585 216.398 L 2149.712 247.312 L 2153.279 256.824 Q 2162.791 255.635 2163.98 262.769 L 2166.358 273.47 L 2181.815 280.604 L 2204.406 303.195 Q 2201.434 312.113 2210.351 309.14 L 2221.052 317.463 L 2225.808 324.597 L 2240.076 338.865 L 2260.289 368.59 L 2270.99 376.913 L 2273.368 387.614 Q 2282.484 385.831 2285.258 393.559 L 2301.904 438.741 L 2309.038 448.253 L 2311.416 464.899 L 2320.928 474.411 L 2323.306 493.435 Q 2334.304 499.083 2332.818 517.215 L 2339.952 524.349 L 2339.952 538.617 L 2349.464 564.775 L 2351.842 590.933 L 2358.976 602.823 L 2361.354 631.359 L 2367.299 637.304 Q 2374.433 639.385 2370.866 628.981 L 2368.488 619.469 L 2374.433 596.878 L 2375.622 621.847 L 2373.244 624.225 Q 2375.537 645.542 2369.677 658.706 L 2366.11 657.517 Q 2372.451 666.633 2368.488 686.053 L 2342.33 807.331 L 2337.574 814.465 L 2316.172 889.372 L 2311.416 890.561 L 2313.794 895.317 L 2266.234 1013.028 L 2261.478 1014.217 L 2262.667 1017.784 L 2259.1 1016.595 L 2261.478 1021.351 L 2256.722 1021.351 L 2259.1 1026.107 L 2253.155 1039.186 Q 2250.183 1033.836 2247.21 1040.375 L 2249.588 1047.509 L 2241.265 1062.966 Q 2238.293 1057.616 2235.32 1064.155 L 2232.942 1071.289 L 2237.698 1071.289 L 2229.375 1086.746 L 2226.997 1081.99 L 2221.052 1095.069 L 2225.808 1095.069 L 2218.674 1097.447 L 2221.052 1104.581 L 2215.107 1112.904 L 2211.54 1114.093 L 2212.729 1117.66 L 2204.406 1121.227 L 2202.028 1130.739 L 2204.406 1130.739 L 2210.351 1120.038 L 2209.162 1123.605 L 2200.839 1139.062 L 2197.272 1137.873 L 2199.65 1142.629 L 2192.516 1145.007 L 2193.705 1148.574 L 2197.272 1147.385 L 2191.327 1158.086 L 2187.76 1156.897 L 2185.382 1161.653 L 2185.382 1166.409 L 2181.815 1172.354 L 2183.004 1168.787 L 2185.382 1164.031 L 2178.248 1159.275 L 2178.248 1149.763 L 2194.894 1123.605 L 2194.894 1117.66 L 2183.004 1112.904 L 2185.382 1103.392 L 2194.894 1099.825 L 2194.894 1054.643 L 2199.65 1049.887 L 2199.65 998.76 L 2204.406 997.571 L 2204.406 896.506 L 2194.894 890.561 L 2194.894 845.379 L 2183.004 833.489 L 2183.004 771.661 L 2180.626 763.338 Q 2171.51 765.122 2168.736 757.393 L 2163.98 744.314 L 2159.224 744.314 L 2159.224 734.802 L 2155.657 734.802 L 2149.712 728.857 L 2142.578 707.455 L 2133.066 695.565 L 2133.066 686.053 L 2142.578 672.974 L 2137.822 672.974 L 2137.822 663.462 L 2133.066 663.462 L 2133.066 651.572 Q 2126.725 654.247 2128.31 648.005 L 2118.798 631.359 L 2121.176 624.225 L 2111.664 609.957 Q 2114.042 599.256 2108.097 596.878 Q 2099.18 598.662 2097.396 593.311 L 2097.396 587.366 L 2092.64 587.366 L 2087.884 577.854 Q 2096.603 581.064 2092.64 567.153 L 2083.128 561.208 L 2077.183 551.696 L 2066.482 549.318 L 2066.482 542.184 L 2045.08 542.184 L 2045.08 535.05 Q 2036.163 538.617 2037.946 531.483 L 2035.568 526.727 Q 2040.919 523.755 2037.946 512.459 L 2026.056 502.947 L 2022.489 497.002 Q 2008.578 501.956 2011.788 491.057 L 2002.276 476.789 L 2002.276 456.576 Q 1994.349 459.251 1997.52 449.442 L 1991.575 449.442 L 1983.252 443.497 L 1974.929 432.796 L 1966.606 430.418 L 1966.606 404.26 L 1948.771 404.26 L 1945.204 397.126 L 1930.936 391.181 L 1924.991 382.858 L 1914.29 378.102 L 1914.29 368.59 L 1910.723 368.59 L 1900.022 362.645 Q 1901.607 356.403 1895.266 359.078 L 1895.266 350.755 L 1892.888 344.81 Q 1883.822 347.188 1880.998 341.243 L 1875.053 332.92 L 1869.108 329.353 L 1865.541 323.408 L 1859.596 323.408 L 1859.596 313.896 L 1856.029 313.896 L 1851.273 313.896 L 1842.95 305.573 L 1840.572 292.494 L 1831.06 292.494 L 1831.06 288.927 L 1819.17 279.415 L 1813.225 271.092 Q 1804.308 274.065 1807.28 265.147 L 1793.012 259.202 L 1787.067 244.934 L 1772.799 242.556 L 1763.287 235.422 L 1746.641 233.044 L 1743.074 229.477 L 1737.129 218.776 Q 1724.645 221.749 1721.672 215.209 Q 1723.257 208.967 1716.916 211.642 L 1716.916 206.886 L 1712.16 206.886 L 1712.16 202.13 L 1706.215 202.13 Q 1703.243 194.996 1693.136 197.374 L 1693.136 191.429 L 1682.435 175.972 L 1675.301 171.216 L 1657.466 168.838 Q 1661.033 159.92 1653.899 161.704 L 1642.009 159.326 L 1633.686 153.381 L 1630.119 147.436 L 1606.339 142.68 L 1587.315 142.68 L 1581.37 136.735 L 1577.803 130.79 L 1568.291 130.79 L 1556.401 123.656 Q 1552.834 129.601 1549.267 121.278 L 1544.511 118.9 L 1537.377 121.278 L 1519.542 114.144 Q 1522.663 106.217 1511.219 109.388 L 1494.573 99.876 L 1461.281 99.876 L 1429.178 83.23 Q 1432.745 74.313 1425.611 76.096 L 1418.477 68.962 L 1378.051 64.206 L 1368.539 57.072 L 1335.247 54.694 L 1322.168 49.938 L 1324.546 36.859 L 1319.79 34.481 L 1316.223 42.804 Q 1292.681 46.133 1285.309 33.292 L 1280.553 35.67 Q 1277.581 30.32 1266.285 33.292 L 1261.529 35.67 L 1259.151 33.292 L 1240.127 33.292 L 1236.56 29.725 Q 1238.344 24.375 1232.993 26.158 L 1213.969 21.402 L 1196.134 21.402 L 1198.512 15.457 L 1191.378 13.079 L 1218.725 11.89 L 1221.103 9.512 L 1252.017 9.512 L 1254.395 7.134 L 1309.089 7.134 L 1311.467 4.756 L 1423.233 2.378 L 1425.611 0 Z M 2214 1103 L 2215 1111 L 2219 1105 L 2214 1103 Z " style="fill: rgb(255, 255, 255); stroke: rgb(255, 255, 255);"/>
    <path d="M 1168.787 14.268 L 1177.11 15.457 L 1168.787 16.646 L 1168.787 14.268 Z " style="fill: #a8a8a8; stroke: #a8a8a8;"/>
    <path d="M 1145.007 16.646 L 1155.708 17.835 L 1145.007 19.024 L 1145.007 16.646 Z " style="fill: #a8a8a8; stroke: #a8a8a8;"/>
    <path d="M 1118.849 19.024 L 1134.306 20.213 L 1118.849 21.402 L 1118.849 19.024 Z " style="fill: #a8a8a8; stroke: #a8a8a8;"/>
    <path d="M 1097.447 21.402 L 1105.77 22.591 L 1097.447 23.78 L 1097.447 21.402 Z " style="fill: #a8a8a8; stroke: #a8a8a8;"/>
    <path d="M 1078.423 23.78 L 1084.368 24.969 L 1078.423 26.158 L 1078.423 23.78 Z " style="fill: #a8a8a8; stroke: #a8a8a8;"/>
    <path d="M 1042.753 28.536 L 1048.698 29.725 L 1042.753 30.914 L 1042.753 28.536 Z " style="fill: #a8a8a8; stroke: #a8a8a8;"/>
    <path d="M 1023.729 30.914 L 1032.052 32.103 L 1023.729 33.292 L 1023.729 30.914 Z " style="fill: #a8a8a8; stroke: #a8a8a8;"/>
    <path d="M 1007.083 33.292 L 1013.028 34.481 L 1007.083 35.67 L 1007.083 33.292 Z " style="fill: #a8a8a8; stroke: #a8a8a8;"/>
    <path d="M 947.633 42.804 L 953.578 43.993 L 947.633 45.182 L 947.633 42.804 Z " style="fill: #a8a8a8; stroke: #a8a8a8;"/>
    <path d="M 933.365 45.182 L 939.31 46.371 L 933.365 47.56 L 933.365 45.182 Z " style="fill: #a8a8a8; stroke: #a8a8a8;"/>
    <path d="M 883.427 54.694 L 889.372 55.883 L 883.427 57.072 L 883.427 54.694 Z " style="fill: #a8a8a8; stroke: #a8a8a8;"/>
    <path d="M 253.257 318.652 L 250.879 323.408 L 253.257 318.652 Z " style="fill: #a8a8a8; stroke: #a8a8a8;"/>
    <path d="M 238.989 330.542 L 234.233 337.676 L 238.989 330.542 Z " style="fill: #a8a8a8; stroke: #a8a8a8;"/>
    <path d="M 212.831 354.322 L 203.319 366.212 L 212.831 354.322 Z " style="fill: #a8a8a8; stroke: #a8a8a8;"/>
    <path d="M 1420.855 354.322 L 1423.233 359.078 L 1420.855 354.322 Z " style="fill: #a8a8a8; stroke: #a8a8a8;"/>
    <path d="M 186.673 380.48 L 179.539 389.992 L 186.673 380.48 Z " style="fill: #a8a8a8; stroke: #a8a8a8;"/>
    <path d="M 160.515 409.016 L 158.137 413.772 L 160.515 409.016 Z " style="fill: #a8a8a8; stroke: #a8a8a8;"/>
    <path d="M 1439.879 411.394 L 1441.068 419.717 L 1438.69 419.717 L 1439.879 411.394 Z " style="fill: #a8a8a8; stroke: #a8a8a8;"/>
    <path d="M 1442.257 437.552 L 1443.446 450.631 L 1441.068 450.631 L 1442.257 437.552 Z " style="fill: #a8a8a8; stroke: #a8a8a8;"/>
    <path d="M 2364.921 437.552 L 2368.488 453.009 L 2366.11 453.009 L 2364.921 437.552 Z " style="fill: #a8a8a8; stroke: #a8a8a8;"/>
    <path d="M 2367.299 461.332 L 2368.488 467.277 L 2366.11 467.277 L 2367.299 461.332 Z " style="fill: #a8a8a8; stroke: #a8a8a8;"/>
    <path d="M 2372.055 487.49 L 2373.244 502.947 L 2370.866 502.947 L 2372.055 487.49 Z " style="fill: #a8a8a8; stroke: #a8a8a8;"/>
    <path d="M 2374.433 506.514 L 2375.622 514.837 L 2373.244 514.837 L 2374.433 506.514 Z " style="fill: #a8a8a8; stroke: #a8a8a8;"/>
    <path d="M 517.215 596.878 L 539.806 598.067 L 517.215 599.256 L 517.215 596.878 Z " style="fill: #a8a8a8; stroke: #a8a8a8;"/>
    <path d="M 1140.251 596.878 L 1169.976 598.067 L 1140.251 599.256 L 1140.251 596.878 Z " style="fill: #a8a8a8; stroke: #a8a8a8;"/>
    <path d="M 486.301 599.256 L 492.246 600.445 L 486.301 601.634 L 486.301 599.256 Z " style="fill: #a8a8a8; stroke: #a8a8a8;"/>
    <path d="M 562.397 599.256 L 568.342 600.445 L 562.397 601.634 L 562.397 599.256 Z " style="fill: #a8a8a8; stroke: #a8a8a8;"/>
    <path d="M 1111.715 599.256 L 1117.66 600.445 L 1111.715 601.634 L 1111.715 599.256 Z " style="fill: #a8a8a8; stroke: #a8a8a8;"/>
    <path d="M 1192.567 599.256 L 1198.512 600.445 L 1192.567 601.634 L 1192.567 599.256 Z " style="fill: #a8a8a8; stroke: #a8a8a8;"/>
    <path d="M 862.025 620.658 L 863.214 700.321 L 860.836 700.321 L 862.025 620.658 Z " style="fill: #a8a8a8; stroke: #a8a8a8;"/>
    <path d="M 1989.197 620.658 L 1992.764 621.847 L 1986.819 625.414 L 1989.197 620.658 Z " style="fill: #a8a8a8; stroke: #a8a8a8;"/>
    <path d="M 1822.737 625.414 L 1820.359 630.17 L 1822.737 625.414 Z " style="fill: #a8a8a8; stroke: #a8a8a8;"/>
    <path d="M 716.967 630.17 L 722.912 631.359 L 716.967 632.548 L 716.967 630.17 Z " style="fill: #a8a8a8; stroke: #a8a8a8;"/>
    <path d="M 766.905 630.17 L 779.984 631.359 L 766.905 632.548 L 766.905 630.17 Z " style="fill: #a8a8a8; stroke: #a8a8a8;"/>
    <path d="M 1967.795 632.548 L 1965.417 637.304 L 1960.661 639.682 L 1963.039 634.926 L 1967.795 632.548 Z " style="fill: #a8a8a8; stroke: #a8a8a8;"/>
    <path d="M 1815.603 634.926 L 1808.469 644.438 L 1815.603 634.926 Z " style="fill: #a8a8a8; stroke: #a8a8a8;"/>
    <path d="M 1325.735 639.682 L 1329.302 643.249 L 1329.302 733.613 L 1326.924 733.613 L 1326.924 643.249 L 1325.735 639.682 Z " style="fill: #a8a8a8; stroke: #a8a8a8;"/>
    <path d="M 1955.905 639.682 L 1953.527 644.438 L 1955.905 639.682 Z " style="fill: #a8a8a8; stroke: #a8a8a8;"/>
    <path d="M 990.437 642.06 L 988.059 646.816 L 990.437 642.06 Z " style="fill: #a8a8a8; stroke: #a8a8a8;"/>
    <path d="M 983.303 646.816 L 980.925 651.572 L 983.303 646.816 Z " style="fill: #a8a8a8; stroke: #a8a8a8;"/>
    <path d="M 1946.393 646.816 L 1944.015 651.572 L 1946.393 646.816 Z " style="fill: #a8a8a8; stroke: #a8a8a8;"/>
    <path d="M 1801.335 651.572 L 1791.823 663.462 L 1801.335 651.572 Z " style="fill: #a8a8a8; stroke: #a8a8a8;"/>
    <path d="M 1939.259 651.572 L 1936.881 656.328 L 1939.259 651.572 Z " style="fill: #a8a8a8; stroke: #a8a8a8;"/>
    <path d="M 343.621 656.328 L 341.243 661.084 L 343.621 656.328 Z " style="fill: #a8a8a8; stroke: #a8a8a8;"/>
    <path d="M 969.035 658.706 L 952.389 677.73 L 969.035 658.706 Z " style="fill: #a8a8a8; stroke: #a8a8a8;"/>
    <path d="M 1929.747 658.706 L 1927.369 663.462 L 1929.747 658.706 Z " style="fill: #a8a8a8; stroke: #a8a8a8;"/>
    <path d="M 1917.857 668.218 L 1910.723 677.73 L 1917.857 668.218 Z " style="fill: #a8a8a8; stroke: #a8a8a8;"/>
    <path d="M 1135.495 672.974 L 1169.976 674.163 L 1135.495 675.352 L 1135.495 672.974 Z " style="fill: #a8a8a8; stroke: #a8a8a8;"/>
    <path d="M 1903.589 680.108 L 1896.455 689.62 L 1903.589 680.108 Z " style="fill: #a8a8a8; stroke: #a8a8a8;"/>
    <path d="M 312.707 687.242 L 310.329 691.998 L 312.707 687.242 Z " style="fill: #a8a8a8; stroke: #a8a8a8;"/>
    <path d="M 429.229 694.376 L 426.851 699.132 L 429.229 694.376 Z " style="fill: #a8a8a8; stroke: #a8a8a8;"/>
    <path d="M 740.747 694.376 L 768.094 695.565 L 740.747 696.754 L 740.747 694.376 Z " style="fill: #a8a8a8; stroke: #a8a8a8;"/>
    <path d="M 1758.531 694.376 L 1741.885 713.4 L 1758.531 694.376 Z " style="fill: #a8a8a8; stroke: #a8a8a8;"/>
    <path d="M 305.573 696.754 L 303.195 701.51 L 305.573 696.754 Z " style="fill: #a8a8a8; stroke: #a8a8a8;"/>
    <path d="M 802.575 696.754 L 815.654 697.943 L 802.575 699.132 L 802.575 696.754 Z " style="fill: #a8a8a8; stroke: #a8a8a8;"/>
    <path d="M 1884.565 696.754 L 1877.431 706.266 L 1884.565 696.754 Z " style="fill: #a8a8a8; stroke: #a8a8a8;"/>
    <path d="M 835.867 699.132 L 841.812 700.321 L 835.867 701.51 L 835.867 699.132 Z " style="fill: #a8a8a8; stroke: #a8a8a8;"/>
    <path d="M 1052.265 701.51 L 1042.753 713.4 L 1052.265 701.51 Z " style="fill: #a8a8a8; stroke: #a8a8a8;"/>
    <path d="M 1860.785 718.156 L 1841.761 739.558 L 1860.785 718.156 Z " style="fill: #a8a8a8; stroke: #a8a8a8;"/>
    <path d="M 638.493 720.534 L 640.871 725.29 L 638.493 720.534 Z " style="fill: #a8a8a8; stroke: #a8a8a8;"/>
    <path d="M 1718.105 732.424 L 1703.837 749.07 L 1718.105 732.424 Z " style="fill: #a8a8a8; stroke: #a8a8a8;"/>
    <path d="M 1825.115 751.448 L 1813.225 765.716 L 1825.115 751.448 Z " style="fill: #a8a8a8; stroke: #a8a8a8;"/>
    <path d="M 914.341 765.716 L 915.53 774.039 L 913.152 774.039 L 914.341 765.716 Z " style="fill: #a8a8a8; stroke: #a8a8a8;"/>
    <path d="M 1682.435 765.716 L 1665.789 784.74 L 1682.435 765.716 Z " style="fill: #a8a8a8; stroke: #a8a8a8;"/>
    <path d="M 1808.469 768.094 L 1803.713 775.228 L 1808.469 768.094 Z " style="fill: #a8a8a8; stroke: #a8a8a8;"/>
    <path d="M 1787.067 787.118 L 1765.665 810.898 L 1787.067 787.118 Z " style="fill: #a8a8a8; stroke: #a8a8a8;"/>
    <path d="M 914.341 796.63 L 915.53 802.575 L 913.152 802.575 L 914.341 796.63 Z " style="fill: #a8a8a8; stroke: #a8a8a8;"/>
    <path d="M 1646.765 799.008 L 1627.741 820.41 L 1646.765 799.008 Z " style="fill: #a8a8a8; stroke: #a8a8a8;"/>
    <path d="M 788.307 803.764 L 789.496 809.709 L 787.118 809.709 L 788.307 803.764 Z " style="fill: #a8a8a8; stroke: #a8a8a8;"/>
    <path d="M 1045.131 806.142 L 1047.509 810.898 L 1045.131 806.142 Z " style="fill: #a8a8a8; stroke: #a8a8a8;"/>
    <path d="M 1.189 808.52 L 2.378 816.843 L 0 816.843 L 1.189 808.52 Z " style="fill: #a8a8a8; stroke: #a8a8a8;"/>
    <path d="M 674.163 815.654 L 675.352 828.733 L 672.974 828.733 L 674.163 815.654 Z " style="fill: #a8a8a8; stroke: #a8a8a8;"/>
    <path d="M 1746.641 825.166 L 1727.617 846.568 L 1746.641 825.166 Z " style="fill: #a8a8a8; stroke: #a8a8a8;"/>
    <path d="M 1608.717 834.678 L 1594.449 851.324 L 1608.717 834.678 Z " style="fill: #a8a8a8; stroke: #a8a8a8;"/>
    <path d="M 674.163 846.568 L 675.352 857.269 L 672.974 857.269 L 674.163 846.568 Z " style="fill: #a8a8a8; stroke: #a8a8a8;"/>
    <path d="M 1708.593 860.836 L 1691.947 879.86 L 1708.593 860.836 Z " style="fill: #a8a8a8; stroke: #a8a8a8;"/>
    <path d="M 1570.669 870.348 L 1565.913 877.482 L 1570.669 870.348 Z " style="fill: #a8a8a8; stroke: #a8a8a8;"/>
    <path d="M 950.011 884.616 L 954.767 891.75 L 950.011 884.616 Z " style="fill: #a8a8a8; stroke: #a8a8a8;"/>
    <path d="M 1.189 898.884 L 2.378 904.829 L 0 904.829 L 1.189 898.884 Z " style="fill: #a8a8a8; stroke: #a8a8a8;"/>
    <path d="M 966.657 901.262 L 973.791 910.774 L 966.657 901.262 Z " style="fill: #a8a8a8; stroke: #a8a8a8;"/>
    <path d="M 1680.057 906.018 L 1684.813 913.152 L 1680.057 906.018 Z " style="fill: #a8a8a8; stroke: #a8a8a8;"/>
    <path d="M 983.303 915.53 L 985.681 920.286 L 983.303 915.53 Z " style="fill: #a8a8a8; stroke: #a8a8a8;"/>
    <path d="M 1691.947 920.286 L 1696.703 927.42 L 1691.947 920.286 Z " style="fill: #a8a8a8; stroke: #a8a8a8;"/>
    <path d="M 3.567 929.798 L 4.756 935.743 L 2.378 935.743 L 3.567 929.798 Z " style="fill: #a8a8a8; stroke: #a8a8a8;"/>
    <path d="M 1565.913 929.798 L 1568.291 934.554 L 1565.913 929.798 Z " style="fill: #a8a8a8; stroke: #a8a8a8;"/>
    <path d="M 417.339 932.176 L 422.095 939.31 L 417.339 932.176 Z " style="fill: #a8a8a8; stroke: #a8a8a8;"/>
    <path d="M 1703.837 934.554 L 1708.593 941.688 L 1703.837 934.554 Z " style="fill: #a8a8a8; stroke: #a8a8a8;"/>
    <path d="M 640.871 941.688 L 636.115 948.822 L 640.871 941.688 Z " style="fill: #a8a8a8; stroke: #a8a8a8;"/>
    <path d="M 1577.803 944.066 L 1582.559 951.2 L 1577.803 944.066 Z " style="fill: #a8a8a8; stroke: #a8a8a8;"/>
    <path d="M 431.607 946.444 L 433.985 951.2 L 431.607 946.444 Z " style="fill: #a8a8a8; stroke: #a8a8a8;"/>
    <path d="M 1715.727 948.822 L 1720.483 955.956 L 1715.727 948.822 Z " style="fill: #a8a8a8; stroke: #a8a8a8;"/>
    <path d="M 631.359 951.2 L 628.981 955.956 L 631.359 951.2 Z " style="fill: #a8a8a8; stroke: #a8a8a8;"/>
    <path d="M 750.259 958.334 L 747.881 963.09 L 750.259 958.334 Z " style="fill: #a8a8a8; stroke: #a8a8a8;"/>
    <path d="M 1589.693 958.334 L 1594.449 965.468 L 1589.693 958.334 Z " style="fill: #a8a8a8; stroke: #a8a8a8;"/>
    <path d="M 1297.199 963.09 L 1299.577 967.846 L 1297.199 963.09 Z " style="fill: #a8a8a8; stroke: #a8a8a8;"/>
    <path d="M 1729.995 965.468 L 1732.373 970.224 L 1729.995 965.468 Z " style="fill: #a8a8a8; stroke: #a8a8a8;"/>
    <path d="M 317.463 970.224 L 324.597 979.736 L 317.463 970.224 Z " style="fill: #a8a8a8; stroke: #a8a8a8;"/>
    <path d="M 740.747 970.224 L 733.613 979.736 L 740.747 970.224 Z " style="fill: #a8a8a8; stroke: #a8a8a8;"/>
    <path d="M 1309.089 972.602 L 1311.467 977.358 L 1309.089 972.602 Z " style="fill: #a8a8a8; stroke: #a8a8a8;"/>
    <path d="M 1601.583 972.602 L 1606.339 979.736 L 1601.583 972.602 Z " style="fill: #a8a8a8; stroke: #a8a8a8;"/>
    <path d="M 1741.885 979.736 L 1746.641 986.87 L 1741.885 979.736 Z " style="fill: #a8a8a8; stroke: #a8a8a8;"/>
    <path d="M 329.353 982.114 L 334.109 989.248 L 329.353 982.114 Z " style="fill: #a8a8a8; stroke: #a8a8a8;"/>
    <path d="M 531.483 984.492 L 544.562 985.681 L 531.483 986.87 L 531.483 984.492 Z " style="fill: #a8a8a8; stroke: #a8a8a8;"/>
    <path d="M 726.479 984.492 L 721.723 991.626 L 726.479 984.492 Z " style="fill: #a8a8a8; stroke: #a8a8a8;"/>
    <path d="M 1613.473 986.87 L 1618.229 994.004 L 1613.473 986.87 Z " style="fill: #a8a8a8; stroke: #a8a8a8;"/>
    <path d="M 1756.153 996.382 L 1760.909 1003.516 L 1756.153 996.382 Z " style="fill: #a8a8a8; stroke: #a8a8a8;"/>
    <path d="M 1337.625 1001.138 L 1340.003 1005.894 L 1337.625 1001.138 Z " style="fill: #a8a8a8; stroke: #a8a8a8;"/>
    <path d="M 1627.741 1003.516 L 1630.119 1008.272 L 1627.741 1003.516 Z " style="fill: #a8a8a8; stroke: #a8a8a8;"/>
    <path d="M 1344.759 1010.65 L 1347.137 1015.406 L 1344.759 1010.65 Z " style="fill: #a8a8a8; stroke: #a8a8a8;"/>
    <path d="M 1770.421 1013.028 L 1772.799 1017.784 L 1770.421 1013.028 Z " style="fill: #a8a8a8; stroke: #a8a8a8;"/>
    <path d="M 1639.631 1017.784 L 1642.009 1022.54 L 1639.631 1017.784 Z " style="fill: #a8a8a8; stroke: #a8a8a8;"/>
    <path d="M 1784.689 1029.674 L 1791.823 1039.186 L 1784.689 1029.674 Z " style="fill: #a8a8a8; stroke: #a8a8a8;"/>
    <path d="M 1651.521 1032.052 L 1653.899 1036.808 L 1651.521 1032.052 Z " style="fill: #a8a8a8; stroke: #a8a8a8;"/>
    <path d="M 1663.411 1046.32 L 1665.789 1051.076 L 1663.411 1046.32 Z " style="fill: #a8a8a8; stroke: #a8a8a8;"/>
    <path d="M 1798.957 1046.32 L 1806.091 1055.832 L 1798.957 1046.32 Z " style="fill: #a8a8a8; stroke: #a8a8a8;"/>
    <path d="M 576.665 1048.698 L 582.61 1049.887 L 576.665 1051.076 L 576.665 1048.698 Z " style="fill: #a8a8a8; stroke: #a8a8a8;"/>
    <path d="M 514.837 1051.076 L 554.074 1052.265 L 514.837 1053.454 L 514.837 1051.076 Z " style="fill: #a8a8a8; stroke: #a8a8a8;"/>
    <path d="M 1675.301 1060.588 L 1677.679 1065.344 L 1675.301 1060.588 Z " style="fill: #a8a8a8; stroke: #a8a8a8;"/>
    <path d="M 353.133 1062.966 L 336.487 1081.99 L 353.133 1062.966 Z " style="fill: #a8a8a8; stroke: #a8a8a8;"/>
    <path d="M 1813.225 1062.966 L 1820.359 1072.478 L 1813.225 1062.966 Z " style="fill: #a8a8a8; stroke: #a8a8a8;"/>
    <path d="M 1230.615 1065.344 L 1232.993 1070.1 L 1230.615 1065.344 Z " style="fill: #a8a8a8; stroke: #a8a8a8;"/>
    <path d="M 441.119 1070.1 L 431.607 1081.99 L 441.119 1070.1 Z " style="fill: #a8a8a8; stroke: #a8a8a8;"/>
    <path d="M 1687.191 1074.856 L 1691.947 1081.99 L 1687.191 1074.856 Z " style="fill: #a8a8a8; stroke: #a8a8a8;"/>
    <path d="M 1829.871 1081.99 L 1837.005 1091.502 L 1829.871 1081.99 Z " style="fill: #a8a8a8; stroke: #a8a8a8;"/>
    <path d="M 1699.081 1089.124 L 1703.837 1096.258 L 1699.081 1089.124 Z " style="fill: #a8a8a8; stroke: #a8a8a8;"/>
    <path d="M 1846.517 1101.014 L 1856.029 1112.904 L 1846.517 1101.014 Z " style="fill: #a8a8a8; stroke: #a8a8a8;"/>
    <path d="M 1713.349 1105.77 L 1715.727 1110.526 L 1713.349 1105.77 Z " style="fill: #a8a8a8; stroke: #a8a8a8;"/>
    <path d="M 2179.437 1115.282 L 2183.004 1121.227 L 2174.681 1134.306 Q 2168.142 1135.693 2171.114 1121.227 L 2179.437 1115.282 Z " style="fill: rgb(168, 168, 168); stroke: rgb(255, 255, 255);"/>
    <path d="M 1725.239 1120.038 L 1727.617 1124.794 L 1725.239 1120.038 Z " style="fill: #a8a8a8; stroke: #a8a8a8;"/>
    <path d="M 1865.541 1122.416 L 1872.675 1131.928 L 1865.541 1122.416 Z " style="fill: #a8a8a8; stroke: #a8a8a8;"/>
    <path d="M 1737.129 1134.306 L 1739.507 1139.062 L 1737.129 1134.306 Z " style="fill: #a8a8a8; stroke: #a8a8a8;"/>
    <path d="M 1884.565 1143.818 L 1896.455 1158.086 L 1884.565 1143.818 Z " style="fill: #a8a8a8; stroke: #a8a8a8;"/>
    <path d="M 1746.641 1146.196 L 1751.397 1153.33 L 1746.641 1146.196 Z " style="stroke: rgb(168, 168, 168); fill: rgb(255, 255, 255);"/>
    <path d="M 1565.913 1155.708 L 1567.102 1180.677 L 1564.724 1180.677 L 1565.913 1155.708 Z " style="fill: #a8a8a8; stroke: #a8a8a8;"/>
    <path d="M 1758.531 1160.464 L 1765.665 1169.976 L 1758.531 1160.464 Z " style="fill: #a8a8a8; stroke: #a8a8a8;"/>
    <path d="M 1901.211 1160.464 L 1908.345 1169.976 L 1901.211 1160.464 Z " style="fill: #a8a8a8; stroke: #a8a8a8;"/>
    <path d="M 2174.681 1167.598 Q 2180.923 1165.616 2178.248 1173.543 L 2179.437 1177.11 L 2175.87 1178.299 L 2177.059 1181.866 L 2173.492 1183.055 Q 2178.843 1186.028 2172.303 1189 Q 2176.068 1184.839 2168.736 1180.677 L 2174.681 1167.598 Z " style="fill: #a8a8a8; stroke: #a8a8a8;"/>
    <path d="M 505.325 1172.354 L 511.27 1173.543 L 505.325 1174.732 L 505.325 1172.354 Z " style="fill: #a8a8a8; stroke: #a8a8a8;"/>
    <path d="M 1913.101 1172.354 L 1924.991 1186.622 L 1913.101 1172.354 Z " style="fill: #a8a8a8; stroke: #a8a8a8;"/>
    <path d="M 536.239 1174.732 L 544.562 1175.921 L 536.239 1177.11 L 536.239 1174.732 Z " style="fill: #a8a8a8; stroke: #a8a8a8;"/>
    <path d="M 1442.257 1174.732 L 1443.446 1185.433 L 1441.068 1185.433 L 1442.257 1174.732 Z " style="fill: #a8a8a8; stroke: #a8a8a8;"/>
    <path d="M 571.909 1177.11 L 580.232 1178.299 L 571.909 1179.488 L 571.909 1177.11 Z " style="fill: #a8a8a8; stroke: #a8a8a8;"/>
    <path d="M 657.517 1184.244 L 663.462 1185.433 L 657.517 1186.622 L 657.517 1184.244 Z " style="fill: #a8a8a8; stroke: #a8a8a8;"/>
    <path d="M 1779.933 1184.244 L 1810.847 1217.536 L 1779.933 1184.244 Z " style="fill: #a8a8a8; stroke: #a8a8a8;"/>
    <path d="M 700.321 1189 L 706.266 1190.189 L 700.321 1191.378 L 700.321 1189 Z " style="fill: #a8a8a8; stroke: #a8a8a8;"/>
    <path d="M 1939.259 1196.134 L 1941.637 1200.89 L 1939.259 1196.134 Z " style="fill: #a8a8a8; stroke: #a8a8a8;"/>
    <path d="M 1337.625 1198.512 L 1332.869 1205.646 L 1337.625 1198.512 Z " style="fill: #a8a8a8; stroke: #a8a8a8;"/>
    <path d="M 1071.289 1200.89 L 1077.234 1202.079 L 1071.289 1203.268 L 1071.289 1200.89 Z " style="fill: #a8a8a8; stroke: #a8a8a8;"/>
    <path d="M 1164.031 1200.89 L 1169.976 1202.079 L 1164.031 1203.268 L 1164.031 1200.89 Z " style="fill: #a8a8a8; stroke: #a8a8a8;"/>
    <path d="M 1090.313 1203.268 L 1096.258 1204.457 L 1090.313 1205.646 L 1090.313 1203.268 Z " style="fill: #a8a8a8; stroke: #a8a8a8;"/>
    <path d="M 1145.007 1203.268 L 1150.952 1204.457 L 1145.007 1205.646 L 1145.007 1203.268 Z " style="fill: #a8a8a8; stroke: #a8a8a8;"/>
    <path d="M 1439.879 1203.268 L 1441.068 1211.591 L 1438.69 1211.591 L 1439.879 1203.268 Z " style="fill: #a8a8a8; stroke: #a8a8a8;"/>
    <path d="M 1568.291 1203.268 L 1569.48 1209.213 L 1567.102 1209.213 L 1568.291 1203.268 Z " style="fill: #a8a8a8; stroke: #a8a8a8;"/>
    <path d="M 2160.413 1208.024 L 2158.035 1212.78 L 2160.413 1208.024 Z " style="fill: #a8a8a8; stroke: #a8a8a8;"/>
    <path d="M 1316.223 1219.914 L 1311.467 1227.048 L 1316.223 1219.914 Z " style="fill: #a8a8a8; stroke: #a8a8a8;"/>
    <path d="M 336.487 1222.292 L 348.377 1236.56 L 336.487 1222.292 Z " style="fill: #a8a8a8; stroke: #a8a8a8;"/>
    <path d="M 2148.523 1227.048 L 2146.145 1231.804 L 2148.523 1227.048 Z " style="fill: #a8a8a8; stroke: #a8a8a8;"/>
    <path d="M 1304.333 1229.426 L 1301.955 1234.182 L 1304.333 1229.426 Z " style="fill: #a8a8a8; stroke: #a8a8a8;"/>
    <path d="M 2067.671 1238.938 Q 2073.022 1237.155 2071.238 1242.505 L 2067.671 1238.938 Z " style="fill: #a8a8a8; stroke: #a8a8a8;"/>
    <path d="M 2134.255 1238.938 L 2135.444 1243.694 L 2130.688 1242.505 L 2134.255 1238.938 Z " style="fill: #a8a8a8; stroke: #a8a8a8;"/>
    <path d="M 2032.001 1241.316 L 2040.324 1242.505 L 2032.001 1243.694 L 2032.001 1241.316 Z " style="fill: #a8a8a8; stroke: #a8a8a8;"/>
    <path d="M 2136.633 1246.072 L 2134.255 1250.828 L 2136.633 1246.072 Z " style="fill: #a8a8a8; stroke: #a8a8a8;"/>
    <path d="M 845.379 1253.206 L 847.757 1257.962 L 845.379 1253.206 Z " style="fill: #a8a8a8; stroke: #a8a8a8;"/>
    <path d="M 1580.181 1255.584 L 1581.37 1259.151 L 1577.803 1262.718 L 1427.989 1262.718 L 1427.989 1260.34 L 1577.803 1260.34 L 1580.181 1255.584 Z " style="fill: #a8a8a8; stroke: #a8a8a8;"/>
    <path d="M 2124.743 1265.096 L 2122.365 1269.852 L 2124.743 1265.096 Z " style="fill: #a8a8a8; stroke: #a8a8a8;"/>
    <path d="M 462.521 1272.23 L 468.466 1273.419 L 462.521 1274.608 L 462.521 1272.23 Z " style="fill: #a8a8a8; stroke: #a8a8a8;"/>
    <path d="M 1982.063 1272.23 L 1988.008 1273.419 L 1982.063 1274.608 L 1982.063 1272.23 Z " style="fill: #a8a8a8; stroke: #a8a8a8;"/>
    <path d="M 491.057 1274.608 L 497.002 1275.797 L 491.057 1276.986 L 491.057 1274.608 Z " style="fill: #a8a8a8; stroke: #a8a8a8;"/>
    <path d="M 1929.747 1274.608 L 1966.606 1275.797 L 1929.747 1276.986 L 1929.747 1274.608 Z " style="fill: #a8a8a8; stroke: #a8a8a8;"/>
    <path d="M 519.593 1276.986 L 525.538 1278.175 L 519.593 1279.364 L 519.593 1276.986 Z " style="fill: #a8a8a8; stroke: #a8a8a8;"/>
    <path d="M 2117.609 1276.986 L 2115.231 1281.742 L 2117.609 1276.986 Z " style="fill: #a8a8a8; stroke: #a8a8a8;"/>
    <path d="M 550.507 1279.364 L 556.452 1280.553 L 550.507 1281.742 L 550.507 1279.364 Z " style="fill: #a8a8a8; stroke: #a8a8a8;"/>
    <path d="M 593.311 1281.742 L 601.634 1282.931 L 593.311 1284.12 L 593.311 1281.742 Z " style="fill: #a8a8a8; stroke: #a8a8a8;"/>
    <path d="M 1076.045 1281.742 L 1084.368 1282.931 L 1076.045 1284.12 L 1076.045 1281.742 Z " style="fill: #a8a8a8; stroke: #a8a8a8;"/>
    <path d="M 1142.629 1281.742 L 1148.574 1282.931 L 1142.629 1284.12 L 1142.629 1281.742 Z " style="fill: #a8a8a8; stroke: #a8a8a8;"/>
    <path d="M 631.359 1284.12 L 637.304 1285.309 L 631.359 1286.498 L 631.359 1284.12 Z " style="fill: #a8a8a8; stroke: #a8a8a8;"/>
    <path d="M 2112.853 1284.12 L 2110.475 1288.876 L 2112.853 1284.12 Z " style="fill: #a8a8a8; stroke: #a8a8a8;"/>
    <path d="M 2108.097 1291.254 L 2105.719 1296.01 L 2108.097 1291.254 Z " style="fill: #a8a8a8; stroke: #a8a8a8;"/>
    <path d="M 422.095 1298.388 L 419.717 1303.144 L 422.095 1298.388 Z " style="fill: #a8a8a8; stroke: #a8a8a8;"/>
    <path d="M 2098.585 1305.522 L 2096.207 1310.278 L 2098.585 1305.522 Z " style="fill: #a8a8a8; stroke: #a8a8a8;"/>
    <path d="M 324.597 1312.656 L 322.219 1317.412 L 324.597 1312.656 Z " style="fill: #a8a8a8; stroke: #a8a8a8;"/>
    <path d="M 2093.829 1312.656 L 2091.451 1317.412 L 2093.829 1312.656 Z " style="fill: #a8a8a8; stroke: #a8a8a8;"/>
    <path d="M 405.449 1315.034 L 403.071 1319.79 L 405.449 1315.034 Z " style="fill: #a8a8a8; stroke: #a8a8a8;"/>
    <path d="M 759.771 1319.79 L 762.149 1324.546 L 759.771 1319.79 Z " style="fill: #a8a8a8; stroke: #a8a8a8;"/>
    <path d="M 2089.073 1319.79 L 2086.695 1324.546 L 2089.073 1319.79 Z " style="fill: #a8a8a8; stroke: #a8a8a8;"/>
    <path d="M 2079.561 1334.058 L 2077.183 1338.814 L 2079.561 1334.058 Z " style="fill: #a8a8a8; stroke: #a8a8a8;"/>
    <path d="M 2072.427 1343.57 L 2070.049 1348.326 L 2072.427 1343.57 Z " style="fill: #a8a8a8; stroke: #a8a8a8;"/>
    <path d="M 291.305 1345.948 L 288.927 1350.704 L 291.305 1345.948 Z " style="fill: #a8a8a8; stroke: #a8a8a8;"/>
    <path d="M 2067.671 1350.704 L 2065.293 1355.46 L 2067.671 1350.704 Z " style="fill: #a8a8a8; stroke: #a8a8a8;"/>
    <path d="M 2060.537 1360.216 L 2058.159 1364.972 L 2060.537 1360.216 Z " style="fill: #a8a8a8; stroke: #a8a8a8;"/>
    <path d="M 2048.647 1376.862 L 2046.269 1381.618 L 2048.647 1376.862 Z " style="fill: #a8a8a8; stroke: #a8a8a8;"/>
    <path d="M 2043.891 1383.996 L 2041.513 1388.752 L 2043.891 1383.996 Z " style="fill: #a8a8a8; stroke: #a8a8a8;"/>
    <path d="M 2036.757 1393.508 L 2034.379 1398.264 L 2036.757 1393.508 Z " style="fill: #a8a8a8; stroke: #a8a8a8;"/>
    <path d="M 267.525 1403.02 L 268.714 1411.343 L 266.336 1411.343 L 267.525 1403.02 Z " style="fill: #a8a8a8; stroke: #a8a8a8;"/>
    <path d="M 2022.489 1412.532 L 2020.111 1417.288 L 2022.489 1412.532 Z " style="fill: #a8a8a8; stroke: #a8a8a8;"/>
    <path d="M 400.693 1414.91 L 412.583 1429.178 L 400.693 1414.91 Z " style="fill: #a8a8a8; stroke: #a8a8a8;"/>
    <path d="M 2017.733 1419.666 L 2015.355 1424.422 L 2017.733 1419.666 Z " style="fill: #a8a8a8; stroke: #a8a8a8;"/>
    <path d="M 2008.221 1431.556 L 2005.843 1436.312 L 2008.221 1431.556 Z " style="fill: #a8a8a8; stroke: #a8a8a8;"/>
    <path d="M 2001.087 1441.068 L 1998.709 1445.824 L 2001.087 1441.068 Z " style="fill: #a8a8a8; stroke: #a8a8a8;"/>
    <path d="M 1993.953 1450.58 L 1991.575 1455.336 L 1993.953 1450.58 Z " style="fill: #a8a8a8; stroke: #a8a8a8;"/>
    <path d="M 831.111 1452.958 L 826.355 1460.092 L 831.111 1452.958 Z " style="fill: #a8a8a8; stroke: #a8a8a8;"/>
    <path d="M 1984.441 1462.47 L 1982.063 1467.226 L 1984.441 1462.47 Z " style="fill: #a8a8a8; stroke: #a8a8a8;"/>
    <path d="M 816.843 1467.226 L 809.709 1476.738 L 816.843 1467.226 Z " style="fill: #a8a8a8; stroke: #a8a8a8;"/>
    <path d="M 1977.307 1471.982 L 1972.551 1479.116 L 1977.307 1471.982 Z " style="fill: #a8a8a8; stroke: #a8a8a8;"/>
    <path d="M 296.061 1474.36 L 298.439 1479.116 L 296.061 1474.36 Z " style="fill: #a8a8a8; stroke: #a8a8a8;"/>
    <path d="M 557.641 1479.116 L 565.964 1480.305 L 557.641 1481.494 L 557.641 1479.116 Z " style="fill: #a8a8a8; stroke: #a8a8a8;"/>
    <path d="M 607.579 1479.116 L 615.902 1480.305 L 607.579 1481.494 L 607.579 1479.116 Z " style="fill: #a8a8a8; stroke: #a8a8a8;"/>
    <path d="M 1967.795 1483.872 L 1963.039 1491.006 L 1967.795 1483.872 Z " style="fill: #a8a8a8; stroke: #a8a8a8;"/>
    <path d="M 310.329 1488.628 L 312.707 1493.384 L 310.329 1488.628 Z " style="fill: #a8a8a8; stroke: #a8a8a8;"/>
    <path d="M 1955.905 1498.14 L 1953.527 1502.896 L 1955.905 1498.14 Z " style="fill: #a8a8a8; stroke: #a8a8a8;"/>
    <path d="M 1944.015 1512.408 L 1941.637 1517.164 L 1944.015 1512.408 Z " style="fill: #a8a8a8; stroke: #a8a8a8;"/>
    <path d="M 1932.125 1526.676 L 1929.747 1531.432 L 1932.125 1526.676 Z " style="fill: #a8a8a8; stroke: #a8a8a8;"/>
    <path d="M 1920.235 1540.944 L 1917.857 1545.7 L 1920.235 1540.944 Z " style="fill: #a8a8a8; stroke: #a8a8a8;"/>
    <path d="M 479.167 1552.834 L 485.112 1554.023 L 479.167 1555.212 L 479.167 1552.834 Z " style="fill: #a8a8a8; stroke: #a8a8a8;"/>
    <path d="M 593.311 1552.834 L 599.256 1554.023 L 593.311 1555.212 L 593.311 1552.834 Z " style="fill: #a8a8a8; stroke: #a8a8a8;"/>
    <path d="M 510.081 1555.212 L 523.16 1556.401 L 510.081 1557.59 L 510.081 1555.212 Z " style="fill: #a8a8a8; stroke: #a8a8a8;"/>
    <path d="M 555.263 1555.212 L 568.342 1556.401 L 555.263 1557.59 L 555.263 1555.212 Z " style="fill: #a8a8a8; stroke: #a8a8a8;"/>
    <path d="M 1905.967 1557.59 L 1903.589 1562.346 L 1905.967 1557.59 Z " style="fill: #a8a8a8; stroke: #a8a8a8;"/>
    <path d="M 1891.699 1574.236 L 1884.565 1583.748 L 1891.699 1574.236 Z " style="fill: #a8a8a8; stroke: #a8a8a8;"/>
    <path d="M 281.793 1586.126 L 284.171 1590.882 L 281.793 1586.126 Z " style="fill: #a8a8a8; stroke: #a8a8a8;"/>
    <path d="M 1870.297 1598.016 L 1865.541 1605.15 L 1870.297 1598.016 Z " style="fill: #a8a8a8; stroke: #a8a8a8;"/>
    <path d="M 1846.517 1624.174 L 1839.383 1633.686 L 1846.517 1624.174 Z " style="fill: #a8a8a8; stroke: #a8a8a8;"/>
    <path d="M 324.597 1638.442 L 326.975 1643.198 L 324.597 1638.442 Z " style="fill: #a8a8a8; stroke: #a8a8a8;"/>
    <path d="M 341.243 1657.466 L 343.621 1662.222 L 341.243 1657.466 Z " style="fill: #a8a8a8; stroke: #a8a8a8;"/>
    <path d="M 1803.713 1669.356 L 1763.287 1712.16 L 1803.713 1669.356 Z " style="fill: #a8a8a8; stroke: #a8a8a8;"/>
    <path d="M 360.267 1678.868 L 369.779 1690.758 L 360.267 1678.868 Z " style="fill: #a8a8a8; stroke: #a8a8a8;"/>
    <path d="M 1727.617 1743.074 L 1715.727 1757.342 L 1727.617 1743.074 Z " style="fill: #a8a8a8; stroke: #a8a8a8;"/>
    <path d="M 436.363 1754.964 L 438.741 1759.72 L 436.363 1754.964 Z " style="fill: #a8a8a8; stroke: #a8a8a8;"/>
    <path d="M 1699.081 1769.232 L 1691.947 1778.744 L 1699.081 1769.232 Z " style="fill: #a8a8a8; stroke: #a8a8a8;"/>
    <path d="M 462.521 1778.744 L 464.899 1783.5 L 462.521 1778.744 Z " style="fill: #a8a8a8; stroke: #a8a8a8;"/>
    <path d="M 1677.679 1788.256 L 1672.923 1795.39 L 1677.679 1788.256 Z " style="fill: #a8a8a8; stroke: #a8a8a8;"/>
    <path d="M 479.167 1793.012 L 481.545 1797.768 L 479.167 1793.012 Z " style="fill: #a8a8a8; stroke: #a8a8a8;"/>
    <path d="M 1658.655 1804.902 L 1656.277 1809.658 L 1658.655 1804.902 Z " style="fill: #a8a8a8; stroke: #a8a8a8;"/>
    <path d="M 507.703 1816.792 L 510.081 1821.548 L 507.703 1816.792 Z " style="fill: #a8a8a8; stroke: #a8a8a8;"/>
    <path d="M 1644.387 1816.792 L 1642.009 1821.548 L 1644.387 1816.792 Z " style="fill: #a8a8a8; stroke: #a8a8a8;"/>
    <path d="M 1630.119 1828.682 L 1627.741 1833.438 L 1630.119 1828.682 Z " style="fill: #a8a8a8; stroke: #a8a8a8;"/>
    <path d="M 1618.229 1838.194 L 1615.851 1842.95 L 1618.229 1838.194 Z " style="fill: #a8a8a8; stroke: #a8a8a8;"/>
    <path d="M 1608.717 1845.328 L 1606.339 1850.084 L 1608.717 1845.328 Z " style="fill: #a8a8a8; stroke: #a8a8a8;"/>
    <path d="M 1596.827 1854.84 L 1594.449 1859.596 L 1596.827 1854.84 Z " style="fill: #a8a8a8; stroke: #a8a8a8;"/>
    <path d="M 1568.291 1876.242 L 1565.913 1880.998 L 1568.291 1876.242 Z " style="fill: #a8a8a8; stroke: #a8a8a8;"/>
    <path d="M 1161.653 2040.324 L 1167.598 2041.513 L 1161.653 2042.702 L 1161.653 2040.324 Z " style="fill: #a8a8a8; stroke: #a8a8a8;"/>
    <path d="M 1035.619 2042.702 L 1043.942 2043.891 L 1035.619 2045.08 L 1035.619 2042.702 Z " style="fill: #a8a8a8; stroke: #a8a8a8;"/>
    <path d="M 1130.739 2042.702 L 1141.44 2043.891 L 1130.739 2045.08 L 1130.739 2042.702 Z " style="fill: #a8a8a8; stroke: #a8a8a8;"/>
  </g>
</svg>