<?xml version="1.0" encoding="utf-8"?>
<svg viewBox="0 0 16 24" width="13.333px" height="20px" fill="none" xmlns="http://www.w3.org/2000/svg">
  <path d="M 8.954 18.876 C 8.954 19.403 8.526 19.83 8 19.83 C 7.472 19.83 7.045 19.403 7.045 18.876 C 7.045 18.348 7.472 17.921 8 17.921 C 8.526 17.921 8.954 18.348 8.954 18.876 Z" style="fill: rgb(72, 51, 85);" transform="matrix(0.9999999999999999, 0, 0, 0.9999999999999999, -4.440892098500626e-16, -2.220446049250313e-16)"/>
  <path fill-rule="evenodd" clip-rule="evenodd" d="M 4.998 0.057 L 5.05 0.057 C 5.058 0.057 5.066 0.057 5.076 0.057 L 10.926 0.057 C 10.934 0.057 10.943 0.057 10.95 0.057 L 11.002 0.057 C 11.03 0.057 11.055 0.057 11.079 0.057 L 11.257 0.057 C 11.277 0.057 11.293 0.057 11.311 0.058 C 11.405 0.06 11.487 0.062 11.566 0.067 C 13.721 0.222 15.436 1.936 15.588 4.092 C 15.6 4.246 15.6 4.42 15.6 4.653 L 15.6 17.657 C 15.6 18.548 15.6 19.28 15.551 19.877 C 15.499 20.497 15.388 21.066 15.111 21.601 C 14.699 22.393 14.052 23.041 13.259 23.453 C 12.726 23.729 12.155 23.84 11.536 23.892 C 10.939 23.942 10.205 23.942 9.315 23.942 L 6.685 23.942 C 5.795 23.942 5.062 23.942 4.464 23.892 C 3.845 23.84 3.276 23.729 2.742 23.453 C 1.949 23.041 1.301 22.393 0.889 21.601 C 0.612 21.066 0.501 20.497 0.449 19.877 C 0.401 19.28 0.401 18.548 0.401 17.657 L 0.401 4.653 C 0.401 4.42 0.401 4.246 0.413 4.092 C 0.565 1.936 2.28 0.222 4.434 0.067 C 4.514 0.062 4.597 0.06 4.69 0.058 C 4.708 0.057 4.727 0.057 4.744 0.057 L 4.923 0.057 C 4.945 0.057 4.973 0.057 4.998 0.057 Z M 5.037 2.228 C 4.747 2.228 4.657 2.229 4.589 2.233 C 3.512 2.311 2.655 3.168 2.578 4.246 C 2.572 4.313 2.571 4.402 2.571 4.694 L 2.571 17.612 C 2.571 18.557 2.572 19.2 2.614 19.698 C 2.655 20.18 2.727 20.427 2.817 20.599 C 3.025 20.996 3.346 21.319 3.743 21.525 C 3.916 21.615 4.162 21.686 4.645 21.728 C 5.141 21.769 5.784 21.77 6.731 21.77 L 9.27 21.77 C 10.217 21.77 10.858 21.769 11.356 21.728 C 11.839 21.686 12.086 21.615 12.259 21.525 C 12.655 21.319 12.979 20.996 13.184 20.599 C 13.274 20.427 13.347 20.18 13.387 19.698 C 13.428 19.2 13.429 18.557 13.429 17.612 L 13.429 4.694 C 13.429 4.402 13.428 4.313 13.424 4.246 C 13.347 3.168 12.489 2.311 11.411 2.233 C 11.344 2.229 11.254 2.228 10.963 2.228 C 10.89 2.228 10.881 2.228 10.876 2.228 C 10.737 2.234 10.605 2.294 10.507 2.393 C 10.503 2.397 10.499 2.404 10.449 2.456 L 9.918 3.047 L 9.905 3.061 C 9.9 3.069 9.886 3.081 9.87 3.097 C 9.837 3.132 9.776 3.19 9.688 3.247 C 9.585 3.315 9.471 3.365 9.351 3.398 C 9.249 3.425 9.166 3.43 9.119 3.432 C 9.096 3.434 9.077 3.434 9.067 3.434 L 9.048 3.434 L 6.954 3.434 L 6.934 3.434 C 6.924 3.434 6.906 3.434 6.882 3.432 C 6.835 3.43 6.751 3.425 6.65 3.398 C 6.53 3.365 6.416 3.315 6.312 3.247 C 6.225 3.19 6.163 3.132 6.13 3.097 C 6.114 3.081 6.102 3.069 6.095 3.061 L 6.082 3.047 L 5.551 2.456 C 5.503 2.404 5.497 2.397 5.493 2.393 C 5.396 2.294 5.263 2.234 5.124 2.228 C 5.12 2.228 5.112 2.228 5.037 2.228 Z" style="fill: rgb(72, 51, 85);" transform="matrix(0.9999999999999999, 0, 0, 0.9999999999999999, -4.440892098500626e-16, -2.220446049250313e-16)"/>
  <path fill-rule="evenodd" clip-rule="evenodd" d="M 5.474 1.953 L 5.518 1.953 C 5.525 1.953 5.531 1.953 5.539 1.953 L 10.461 1.953 C 10.469 1.953 10.475 1.953 10.482 1.953 L 10.526 1.953 C 10.548 1.953 10.569 1.953 10.59 1.953 L 10.741 1.953 C 10.757 1.953 10.77 1.953 10.785 1.954 C 10.863 1.955 10.934 1.957 11 1.961 C 12.812 2.091 14.256 3.533 14.383 5.347 C 14.393 5.476 14.393 5.624 14.393 5.82 L 14.393 16.759 C 14.393 17.507 14.393 18.123 14.352 18.626 C 14.308 19.148 14.215 19.627 13.982 20.076 C 13.635 20.743 13.091 21.288 12.424 21.634 C 11.975 21.867 11.495 21.96 10.974 22.004 C 10.471 22.046 9.854 22.046 9.106 22.046 L 6.894 22.046 C 6.146 22.046 5.529 22.046 5.026 22.004 C 4.505 21.96 4.025 21.867 3.577 21.634 C 2.909 21.288 2.364 20.743 2.018 20.076 C 1.784 19.627 1.691 19.148 1.648 18.626 C 1.607 18.123 1.607 17.507 1.607 16.759 L 1.607 5.82 C 1.607 5.624 1.607 5.476 1.616 5.347 C 1.745 3.533 3.188 2.091 5 1.961 C 5.067 1.957 5.137 1.955 5.216 1.954 C 5.231 1.953 5.246 1.953 5.26 1.953 L 5.412 1.953 C 5.431 1.953 5.452 1.953 5.474 1.953 Z M 5.508 3.779 C 5.263 3.779 5.188 3.78 5.13 3.784 C 4.224 3.848 3.502 4.57 3.438 5.476 C 3.434 5.533 3.433 5.609 3.433 5.854 L 3.433 16.721 C 3.433 17.516 3.434 18.057 3.469 18.476 C 3.502 18.881 3.564 19.089 3.639 19.234 C 3.814 19.568 4.085 19.84 4.418 20.013 C 4.564 20.088 4.771 20.149 5.177 20.183 C 5.595 20.218 6.135 20.218 6.932 20.218 L 9.069 20.218 C 9.865 20.218 10.405 20.218 10.823 20.183 C 11.229 20.149 11.438 20.088 11.582 20.013 C 11.916 19.84 12.188 19.568 12.361 19.234 C 12.437 19.089 12.498 18.881 12.532 18.476 C 12.567 18.057 12.567 17.516 12.567 16.721 L 12.567 5.854 C 12.567 5.609 12.567 5.533 12.563 5.476 C 12.498 4.57 11.776 3.848 10.869 3.784 C 10.813 3.78 10.738 3.779 10.492 3.779 C 10.431 3.779 10.423 3.779 10.42 3.779 C 10.302 3.784 10.192 3.834 10.109 3.918 C 10.105 3.92 10.102 3.926 10.06 3.97 L 9.614 4.468 L 9.602 4.48 C 9.598 4.486 9.586 4.497 9.573 4.51 C 9.545 4.539 9.495 4.588 9.42 4.635 C 9.333 4.694 9.236 4.735 9.136 4.763 C 9.051 4.786 8.98 4.79 8.941 4.792 C 8.921 4.794 8.906 4.794 8.898 4.794 L 8.881 4.794 L 7.12 4.794 L 7.103 4.794 C 7.094 4.794 7.079 4.794 7.06 4.792 C 7.02 4.79 6.949 4.786 6.864 4.763 C 6.764 4.735 6.667 4.694 6.579 4.635 C 6.506 4.588 6.455 4.539 6.426 4.51 C 6.413 4.497 6.403 4.486 6.397 4.48 L 6.386 4.468 L 5.939 3.97 C 5.899 3.926 5.894 3.92 5.89 3.918 C 5.809 3.834 5.697 3.784 5.58 3.779 C 5.577 3.779 5.57 3.779 5.508 3.779 Z" style="fill: rgb(72, 51, 85);" transform="matrix(0.9999999999999999, 0, 0, 0.9999999999999999, -4.440892098500626e-16, -2.220446049250313e-16)"/>
</svg>