<?xml version="1.0" encoding="utf-8"?>
<svg viewBox="0 0 24 24" width="24px" height="24px" xmlns="http://www.w3.org/2000/svg">
  <defs>
    <style type="text/css">
	.st0{opacity:0.2;fill:none;stroke:#000000;stroke-width:5.000000e-02;stroke-miterlimit:10;}
</style>
  </defs>
  <g id="Layer_2" transform="matrix(1.1988519430160522, 0, 0, 1.1988519430160522, -2.3977041244506836, -2.386219024658203)">
    <g>
      <path d="M12,8c1.9,0,3.5,1.3,3.9,3.1c0.1,0.5,0.7,0.9,1.2,0.7c0.5-0.1,0.9-0.7,0.7-1.2C17.2,7.8,14.8,6,12,6c-3.3,0-6,2.7-6,6    c0,3.1,2.4,5.7,5.5,6c0,0,0.1,0,0.1,0c0.5,0,0.9-0.4,1-0.9c0.1-0.5-0.4-1-0.9-1.1c-2-0.2-3.7-2-3.7-4C8,9.8,9.8,8,12,8z" style="fill: rgb(72, 53, 91);"/>
      <path d="M12,20c-4.4,0-8-3.6-8-8s3.6-8,8-8c4.2,0,7.7,3.3,8,7.5c0,0.6,0.5,1,1.1,0.9c0.6,0,1-0.5,0.9-1.1C21.6,6.1,17.3,2,12,2    C6.5,2,2,6.5,2,12s4.5,10,10,10c0.6,0,1-0.4,1-1S12.6,20,12,20z" style="fill: rgb(72, 53, 91);"/>
      <path d="M21.3,14.5c-0.1-0.1-0.3-0.2-0.4-0.2l-6.5-2.2c-0.6-0.2-1.3,0-1.8,0.5c-0.5,0.5-0.6,1.2-0.3,1.8l3,6.6    c0.3,0.6,0.9,1,1.5,1c0.1,0,0.2,0,0.3,0c0.8-0.1,1.3-0.7,1.4-1.5l0.3-2.4l2-0.6c0.6-0.2,1.1-0.7,1.2-1.4    C22.1,15.5,21.8,14.8,21.3,14.5z M18.1,16.2c-0.7,0.2-1.1,0.7-1.2,1.4l-0.2,1.5l-2.2-4.9l4.8,1.6L18.1,16.2z" style="fill: rgb(72, 53, 91);"/>
    </g>
  </g>
</svg>