<?xml version="1.0" encoding="utf-8"?>
<svg viewBox="0 0 24 24" width="24px" height="24px" fill="#000000" xmlns="http://www.w3.org/2000/svg">
  <path d="M 16.788 13.075 C 18.4 11.642 19.206 9.582 19.116 7.433 C 19.116 7.343 19.116 7.164 19.116 7.075 C 19.116 7.075 19.116 7.075 19.116 7.075 C 19.026 6.358 18.937 5.552 18.668 4.836 L 16.967 0.537 C 16.877 0.179 16.519 0 16.161 0 L 7.832 0 C 7.474 0 7.116 0.269 7.026 0.537 L 5.415 4.836 C 5.056 5.642 4.877 6.537 4.877 7.343 C 4.877 7.343 4.877 7.343 4.877 7.343 C 4.877 7.433 4.877 7.522 4.877 7.612 C 4.877 9.672 5.683 11.642 7.206 12.985 C 8.37 14.06 9.713 14.597 11.056 14.776 L 11.056 18.448 C 11.056 20.239 9.892 21.761 8.191 22.209 C 7.743 22.299 7.474 22.746 7.474 23.194 C 7.564 23.642 7.922 24 8.37 24 L 15.534 24 C 15.534 24 15.534 24 15.534 24 C 15.534 24 15.534 24 15.534 24 C 15.624 24 15.713 24 15.892 23.91 C 15.892 23.91 15.982 23.91 15.982 23.821 C 16.071 23.821 16.071 23.731 16.161 23.731 C 16.161 23.731 16.25 23.642 16.25 23.642 C 16.25 23.552 16.34 23.552 16.34 23.463 C 16.34 23.463 16.34 23.373 16.429 23.373 C 16.429 23.373 16.429 23.373 16.429 23.284 C 16.429 23.284 16.429 23.194 16.429 23.194 C 16.429 23.194 16.429 23.104 16.429 23.104 C 16.429 23.104 16.429 23.104 16.429 23.015 C 16.429 22.925 16.429 22.925 16.429 22.836 C 16.429 22.746 16.429 22.746 16.34 22.657 C 16.34 22.567 16.25 22.567 16.25 22.478 C 16.25 22.388 16.161 22.388 16.161 22.388 C 16.161 22.388 16.071 22.299 15.982 22.299 C 15.892 22.299 15.892 22.209 15.803 22.209 C 15.803 22.209 15.803 22.209 15.713 22.209 C 14.012 21.761 12.847 20.239 12.847 18.448 L 12.847 14.776 C 14.37 14.687 15.713 14.06 16.788 13.075 Z M 8.549 1.701 L 15.624 1.701 L 17.056 5.463 C 17.146 5.821 17.235 6.179 17.325 6.537 C 15.355 6.806 13.295 6.985 11.146 6.985 C 9.624 6.985 8.191 6.896 6.758 6.716 C 6.847 6.269 6.937 5.91 7.026 5.463 L 8.549 1.701 Z" style="fill: rgb(72, 53, 91);"/>
</svg>