<?xml version="1.0" encoding="utf-8"?>
<svg viewBox="0 0 24 24" width="24px" height="24px" fill="none" xmlns="http://www.w3.org/2000/svg">
  <rect width="24" height="24" fill="white" transform="matrix(1, 0, 0, 1, 2.220446049250313e-16, 2.220446049250313e-16)"/>
  <path fill-rule="evenodd" clip-rule="evenodd" d="M 24 10.401 C 24 10.434 24 10.467 24 10.5 L 24 13.5 C 24 13.533 24 13.566 24 13.599 C 24 14.928 24 16.074 23.877 16.992 C 23.745 17.975 23.447 18.918 22.682 19.682 C 21.918 20.446 20.975 20.745 19.992 20.877 C 19.074 21 17.928 21 16.599 21 L 7.401 21 C 6.072 21 4.926 21 4.008 20.877 C 3.025 20.745 2.083 20.446 1.318 19.682 C 0.554 18.918 0.255 17.975 0.123 16.992 C 0 16.074 0 14.928 0 13.599 L 0 10.401 C 0 9.072 0 7.926 0.123 7.008 C 0.255 6.025 0.554 5.083 1.318 4.318 C 2.083 3.554 3.025 3.255 4.008 3.123 C 4.926 3 6.072 3 7.401 3 L 16.5 3 C 16.533 3 16.566 3 16.599 3 C 17.928 3 19.074 3 19.992 3.123 C 20.975 3.255 21.918 3.554 22.682 4.318 C 23.447 5.083 23.745 6.025 23.877 7.008 C 24 7.926 24 9.072 24 10.401 Z M 7.5 12 C 7.5 9.515 9.515 7.5 12 7.5 C 14.485 7.5 16.5 9.515 16.5 12 C 16.5 14.485 14.485 16.5 12 16.5 C 9.515 16.5 7.5 14.485 7.5 12 Z" style="fill: rgb(72, 53, 91);" transform="matrix(1, 0, 0, 1, 2.220446049250313e-16, 2.220446049250313e-16)"/>
  <path d="M17.9965 7.00391C17.7103 6.99994 17.4161 6.99997 17.1189 7.00001L10.8813 7.00001C10.0376 6.99992 9.21767 6.99983 8.53906 7.09107C7.77331 7.19402 6.89841 7.44484 6.17167 8.17158C5.44493 8.89832 5.19411 9.77323 5.09116 10.539C4.99992 11.2176 5 12.0375 5.00009 12.8813V15.1187C5.00006 15.4118 5.00003 15.702 5.00383 15.9844C4.93907 15.9812 4.87645 15.9774 4.81603 15.9727C4.44281 15.9439 4.07084 15.8804 3.70949 15.7082C3.08831 15.4122 2.58777 14.9117 2.29177 14.2905C2.11957 13.9291 2.05608 13.5572 2.02728 13.184C1.99998 12.8301 1.99999 12.4011 2.00001 11.9039L2 8.93415C1.99995 8.04768 1.99991 7.28385 2.08215 6.67219C2.17028 6.01668 2.36902 5.38833 2.87869 4.87866C3.38835 4.369 4.0167 4.17026 4.67221 4.08213C5.28387 3.99989 6.04769 3.99993 6.93418 3.99998L14.539 3.99993C14.9608 3.99956 15.3242 3.99924 15.6475 4.07069C16.7872 4.32262 17.6774 5.21276 17.9293 6.35249C17.9736 6.55277 17.9903 6.76846 17.9965 7.00391Z" fill="#323232" transform="matrix(1, 0, 0, 1, 2.220446049250313e-16, 2.220446049250313e-16)"/>
</svg>