<?xml version="1.0" encoding="utf-8"?>
<svg fill="#000000" viewBox="0 0 24 24" role="img" focusable="false" aria-hidden="true" xmlns="http://www.w3.org/2000/svg" xmlns:bx="https://boxy-svg.com"><defs><bx:export><bx:file format="svg"/></bx:export></defs><path d="M 24 3.269 L 24 20.743 C 24 20.893 23.95 21.014 23.85 21.109 C 23.75 21.208 23.63 21.254 23.49 21.254 L 14.932 21.254 L 14.932 18.832 L 21.914 18.832 L 21.914 17.728 L 14.926 17.728 L 14.926 16.378 L 21.908 16.378 L 21.908 15.276 L 14.93 15.276 L 14.93 13.913 L 21.91 13.913 L 21.91 12.824 L 14.93 12.824 L 14.93 11.457 L 21.91 11.457 L 21.91 10.355 L 14.93 10.355 L 14.93 9.003 L 21.91 9.003 L 21.91 7.903 L 14.93 7.903 L 14.93 6.524 L 21.91 6.524 L 21.91 5.474 L 14.93 5.474 L 14.93 2.737 L 23.492 2.737 C 23.642 2.737 23.762 2.788 23.85 2.893 C 23.956 2.999 24 3.126 24 3.269 Z M 13.65 0.004 L 13.65 24 L 0 21.506 L 0 2.566 L 13.65 0 L 13.65 0.004 Z M 11.59 7.088 L 9.882 7.2 L 8.786 14.365 L 8.76 14.365 C 8.706 14.025 8.506 12.838 8.146 10.809 L 7.506 7.362 L 5.902 7.447 L 5.26 10.809 C 4.886 12.767 4.676 13.907 4.622 14.226 L 4.606 14.226 L 3.632 7.626 L 2.162 7.709 L 3.736 16.034 L 5.37 16.144 L 5.986 12.904 C 6.346 11.003 6.556 9.899 6.6 9.597 L 6.646 9.597 C 6.706 9.918 6.902 11.048 7.26 12.986 L 7.876 16.321 L 9.646 16.433 L 11.626 7.086 L 11.59 7.086 L 11.59 7.088 Z" style="fill: rgb(72, 53, 91);"/></svg>