<?xml version="1.0" encoding="utf-8"?>
<svg viewBox="0 0 24 24" xmlns="http://www.w3.org/2000/svg">
  <path d="M 23.997 0 L 0.004 0 C 0.004 0.004 0.005 0.005 0 0.016 L 0 19 C 0 21.761 -0.003 24.011 0.008 24 L 19 24 C 21.762 24 24.04 24.044 24 23.947 L 24 -0.009 C 24.001 -0.01 23.996 0.004 23.997 0 Z M 8 19 L 5 19 L 5 8 L 8 8 L 8 19 Z M 6.5 6.732 C 5.534 6.732 4.75 5.942 4.75 4.968 C 4.75 3.994 5.534 3.204 6.5 3.204 C 7.466 3.204 8.25 3.994 8.25 4.968 C 8.25 5.942 7.467 6.732 6.5 6.732 Z M 20 19 L 17 19 L 17 13.396 C 17 10.028 13 10.283 13 13.396 L 13 19 L 10 19 L 10 8 L 13 8 L 13 9.765 C 14.396 7.179 20 6.988 20 12.241 L 20 19 Z" style="fill: rgb(72, 53, 91);"/>
</svg>