<?xml version="1.0" encoding="utf-8"?>
<svg viewBox="0 0 39 39" width="39px" height="39px" fill-rule="evenodd" clip-rule="evenodd" stroke-linejoin="round" stroke-miterlimit="1.414" xmlns="http://www.w3.org/2000/svg">
  <g>
    <path d="M 38.488 8.107 C 38.486 3.914 35.086 0.514 30.893 0.512 L 8.108 0.512 C 3.914 0.515 0.515 3.914 0.513 8.107 L 0.513 30.892 C 0.515 35.086 3.914 38.485 8.108 38.487 L 30.893 38.487 C 35.086 38.485 38.485 35.086 38.488 30.892 L 38.488 8.107 Z" fill="#48355b"/>
    <title/>
    <path d="M 29.133 6.331 L 9.868 6.331 C 9.109 6.329 8.491 7.067 8.492 7.976 L 8.492 24.439 C 8.491 25.347 9.109 26.085 9.868 26.084 L 18.123 26.084 L 18.123 29.376 L 15.372 29.376 C 14.313 29.376 13.651 30.749 14.181 31.846 C 14.427 32.355 14.881 32.669 15.372 32.669 L 23.628 32.669 C 24.687 32.669 25.35 31.296 24.821 30.199 C 24.574 29.69 24.12 29.376 23.628 29.376 L 20.877 29.376 L 20.877 26.084 L 29.133 26.084 C 29.893 26.085 30.51 25.347 30.508 24.439 L 30.508 7.976 C 30.51 7.067 29.893 6.329 29.133 6.331 Z M 27.757 22.793 L 11.244 22.793 L 11.244 9.622 L 27.757 9.622 L 27.757 22.793 Z" style="fill: rgb(255, 255, 255);"/>
  </g>
</svg>