<?xml version="1.0" encoding="utf-8"?>
<svg viewBox="0 0 24 24" width="24px" height="24px" fill="#000000" xmlns="http://www.w3.org/2000/svg">
  <g transform="matrix(0.046875, 0, 0, 0.046875, 0.000007000000547208174, 0)">
    <g>
      <path d="M400.464,112.535c-4.269-4.545-10.228-7.123-16.464-7.123H278.588V45.176h75.294c12.475,0,22.588-10.113,22.588-22.588&#10;&#9;&#9;&#9;S366.357,0,353.882,0H256c-12.475,0-22.588,10.114-22.588,22.588v82.823H128c-6.236,0-12.195,2.578-16.464,7.121&#10;&#9;&#9;&#9;c-4.269,4.545-6.471,10.651-6.081,16.875l5.647,90.354l16.941,271.059c0.566,9.068,6.43,16.61,14.462,19.689&#10;&#9;&#9;&#9;c0.536,0.205,1.081,0.39,1.635,0.554c2.045,0.608,4.21,0.935,6.447,0.935h210.823c2.236,0,4.402-0.327,6.445-0.935&#10;&#9;&#9;&#9;c0.554-0.164,1.099-0.349,1.635-0.554c8.034-3.08,13.898-10.622,14.464-19.689l16.941-271.059l5.647-90.353&#10;&#9;&#9;&#9;C406.935,123.186,404.733,117.079,400.464,112.535z M224.964,324.682c-4.201-4.213-6.611-10.028-6.611-15.976&#10;&#9;&#9;&#9;s2.409-11.776,6.611-15.977c4.201-4.201,10.029-6.611,15.977-6.611s11.761,2.409,15.977,6.611&#10;&#9;&#9;&#9;c4.201,4.216,6.611,10.029,6.611,15.977s-2.409,11.762-6.611,15.976c-4.216,4.203-10.029,6.612-15.977,6.612&#10;&#9;&#9;&#9;S229.179,328.885,224.964,324.682z M287.036,415.035c-4.216,4.203-10.029,6.612-15.977,6.612s-11.776-2.409-15.977-6.612&#10;&#9;&#9;&#9;c-4.201-4.2-6.611-10.028-6.611-15.976s2.409-11.776,6.611-15.977c4.215-4.201,10.029-6.611,15.977-6.611&#10;&#9;&#9;&#9;s11.761,2.409,15.977,6.611c4.201,4.216,6.611,10.029,6.611,15.977S291.238,410.82,287.036,415.035z M357.132,195.765H154.868&#10;&#9;&#9;&#9;l-2.824-45.176H256h103.956L357.132,195.765z" style="fill: rgb(72, 53, 91);"/>
    </g>
  </g>
</svg>