<?xml version="1.0" encoding="utf-8"?>
<svg viewBox="0 0 24 24" width="24px" height="24px" fill="none" xmlns="http://www.w3.org/2000/svg">
  <path d="M 0 5.053 C 0 2.671 0 1.48 0.791 0.74 C 1.582 0 2.854 0 5.4 0 C 7.946 0 9.218 0 10.009 0.74 C 10.8 1.48 10.8 2.671 10.8 5.053 L 10.8 18.947 C 10.8 21.329 10.8 22.52 10.009 23.26 C 9.218 24 7.946 24 5.4 24 C 2.854 24 1.582 24 0.791 23.26 C 0 22.52 0 21.329 0 18.947 L 0 5.053 Z" style="fill: rgb(72, 53, 91);" transform="matrix(1, 0, 0, 1, 2.220446049250313e-16, 2.220446049250313e-16)"/>
  <path d="M 13.2 16.08 C 13.2 13.591 13.2 12.346 13.991 11.573 C 14.782 10.8 16.054 10.8 18.6 10.8 C 21.146 10.8 22.418 10.8 23.209 11.573 C 24 12.346 24 13.591 24 16.08 L 24 18.72 C 24 21.209 24 22.454 23.209 23.227 C 22.418 24 21.146 24 18.6 24 C 16.054 24 14.782 24 13.991 23.227 C 13.2 22.454 13.2 21.209 13.2 18.72 L 13.2 16.08 Z" style="fill: rgb(72, 53, 91);" transform="matrix(1, 0, 0, 1, 2.220446049250313e-16, 2.220446049250313e-16)"/>
  <path d="M 13.2 4.2 C 13.2 2.895 13.2 2.243 13.406 1.728 C 13.68 1.042 14.205 0.497 14.867 0.213 C 15.363 0 15.992 0 17.25 0 L 19.95 0 C 21.208 0 21.837 0 22.333 0.213 C 22.995 0.497 23.52 1.042 23.794 1.728 C 24 2.243 24 2.895 24 4.2 C 24 5.505 24 6.157 23.794 6.672 C 23.52 7.358 22.995 7.903 22.333 8.187 C 21.837 8.4 21.208 8.4 19.95 8.4 L 17.25 8.4 C 15.992 8.4 15.363 8.4 14.867 8.187 C 14.205 7.903 13.68 7.358 13.406 6.672 C 13.2 6.157 13.2 5.505 13.2 4.2 Z" style="fill: rgb(72, 53, 91);" transform="matrix(1, 0, 0, 1, 2.220446049250313e-16, 2.220446049250313e-16)"/>
</svg>