<?xml version="1.0" encoding="utf-8"?>
<svg viewBox="0 0 24 24" width="24px" height="24px" fill="#000000" xmlns="http://www.w3.org/2000/svg">
  <path d="M 24 9.857 C 24 6.771 21.514 4.286 18.429 4.286 C 18.257 4.286 18.086 4.286 17.914 4.286 C 16.714 2.229 14.486 0.857 12 0.857 C 9.429 0.857 7.2 2.229 6.086 4.286 C 5.914 4.286 5.743 4.286 5.571 4.286 C 2.486 4.286 0 6.771 0 9.857 C 0 12.6 2.057 14.914 4.629 15.343 L 4.286 22.2 C 4.286 22.457 4.371 22.629 4.543 22.8 C 4.714 23.057 4.886 23.143 5.143 23.143 L 18.857 23.143 C 19.114 23.143 19.286 23.057 19.457 22.886 C 19.629 22.714 19.714 22.457 19.714 22.286 L 19.371 15.429 C 21.943 14.914 24 12.6 24 9.857 Z M 9.429 18.771 C 9.343 19.2 9 19.457 8.571 19.457 C 8.486 19.457 8.486 19.457 8.4 19.457 C 7.971 19.371 7.629 18.943 7.714 18.429 L 8.143 16.114 C 8.229 15.686 8.657 15.343 9.171 15.429 C 9.6 15.514 9.943 15.943 9.857 16.457 L 9.429 18.771 Z M 12.857 18.857 C 12.857 19.371 12.514 19.714 12 19.714 C 11.486 19.714 11.143 19.371 11.143 18.857 L 11.143 16.286 C 11.143 15.771 11.486 15.429 12 15.429 C 12.514 15.429 12.857 15.771 12.857 16.286 L 12.857 18.857 Z M 15.514 19.457 C 15.429 19.457 15.429 19.457 15.343 19.457 C 14.914 19.457 14.571 19.2 14.486 18.771 L 14.057 16.457 C 13.971 16.029 14.314 15.514 14.743 15.429 C 15.171 15.343 15.686 15.686 15.771 16.114 L 16.2 18.429 C 16.286 18.943 16.029 19.371 15.514 19.457 Z" style="fill: rgb(72, 53, 91);"/>
</svg>