<?xml version="1.0" encoding="utf-8"?>
<svg viewBox="188.872 188.872 122.256 122.256" width="122.256" height="122.256" xmlns="http://www.w3.org/2000/svg">
  <g transform="matrix(0.9999999999999999, 0, 0, 0.9999999999999999, 188.45399475097656, 188.55599975585938)">
    <path d="M122.674 30.88c0-16.869-13.695-30.564-30.564-30.564H30.982C14.113.316.418 14.011.418 30.88v61.128c0 16.869 13.695 30.564 30.564 30.564H92.11c16.869 0 30.564-13.695 30.564-30.564V30.88z" fill="#b0bec5"/>
  </g>
  <g transform="matrix(0.1523440033197403, 0, 0, 0.1523440033197403, 210.99993896484375, 210.99993896484375)"/>
  <g id="Flat" transform="matrix(0.9999999999999999, 0, 0, 0.9999999999999999, 218, 218)"/>
  <g transform="matrix(0.3378390371799469, 0, 0, 0.3378390371799469, 159.77737426757812, 155.44149780273438)">
    <path stroke-linejoin="round" stroke-width="12" d="M 204.756 317.838 C 198.22 307.804 194.917 297.927 193.325 283.642 C 192.797 278.925 192.983 276.228 194.518 266.544 C 196.428 254.487 203.295 240.524 211.551 231.937 C 215.066 228.287 215.378 228.19 219.664 229.64 C 224.859 231.4 230.412 235.238 239.026 243.033 L 244.058 247.585 L 241.306 250.958 C 228.559 266.615 215.105 288.823 210.04 302.558 L 204.748 317.843 L 204.756 317.838 L 204.756 317.838 Z M 329.36 317.838 C 335.896 307.804 339.199 297.927 340.791 283.642 C 341.319 278.925 341.133 276.228 339.598 266.544 C 337.688 254.487 330.821 240.524 322.565 231.937 C 319.05 228.287 318.738 228.19 314.452 229.64 C 309.257 231.4 303.704 235.238 295.09 243.033 L 290.058 247.585 L 292.81 250.958 C 305.557 266.615 319.011 288.823 324.076 302.558 L 329.368 317.843 L 329.36 317.838 Z M 228.698 342.507 C 238.083 348.598 249.008 352.452 259.801 353.481 C 268.836 354.341 279.806 353.23 288.159 350.606 C 298.292 347.424 312.087 339.138 314.31 334.9 C 317.234 329.324 311.48 316.815 298.958 301.543 C 291.038 291.881 269.887 271.361 267.239 270.773 C 265.879 270.472 253.296 281.646 244.264 291.185 C 228.355 307.976 219.058 322.709 219.058 331.119 C 219.058 335.305 220.833 337.406 228.698 342.507 Z M 298.058 214.267 C 287.058 203.267 247.058 203.267 236.058 214.267 C 261.058 218.767 267.058 223.267 267.058 223.267 C 267.058 223.267 273.058 218.767 298.058 214.267 Z" style="fill: rgb(255, 255, 255); stroke: rgb(255, 255, 255);"/>
  </g>
</svg>