<?xml version="1.0" encoding="utf-8"?>
<svg viewBox="188.872 188.872 122.256 122.256" width="122.256px" height="122.256px" xmlns="http://www.w3.org/2000/svg">
  <g transform="matrix(1, 0, 0, 1, 188.45399475097656, 188.55599975585938)">
    <path d="M122.674 30.88c0-16.869-13.695-30.564-30.564-30.564H30.982C14.113.316.418 14.011.418 30.88v61.128c0 16.869 13.695 30.564 30.564 30.564H92.11c16.869 0 30.564-13.695 30.564-30.564V30.88z" fill="#b0bec5"/>
  </g>
  <g transform="matrix(0.1523440033197403, 0, 0, 0.1523440033197403, 210.99993896484375, 210.99993896484375)"/>
  <g id="Flat" transform="matrix(1, 0, 0, 1, 218, 218)"/>
  <path d="M 235.937 249.843 L 255.625 230.156 C 256.875 228.906 258.75 227.968 260.937 227.968 C 263.125 227.968 265 228.906 266.562 230.156 C 269.687 233.281 269.687 238.281 266.562 241.093 L 257.812 249.843 L 262.187 249.843 L 268.437 243.593 C 272.812 239.218 272.812 232.343 268.437 228.281 C 266.25 226.093 263.437 225.156 260.625 225.156 C 257.812 225.156 255.312 225.781 253.125 227.968 L 233.437 247.968 C 232.5 248.593 231.875 249.531 231.25 250.781 C 232.812 250.156 234.375 249.843 235.937 249.843 Z" style="fill: rgb(255, 255, 255);" transform="matrix(1, 0, 0, 1, 0, -2.842170943040401e-14)"/>
  <path d="M 247.812 242.343 L 240.312 249.843 L 255 249.843 L 247.812 242.343 Z" style="fill: rgb(255, 255, 255);" transform="matrix(1, 0, 0, 1, 0, -2.842170943040401e-14)"/>
  <path d="M 264.062 252.968 L 235.937 252.968 C 230 252.968 225 257.968 225 263.906 C 225 269.843 230 274.843 235.937 274.843 L 264.062 274.843 C 270 274.843 275 269.843 275 263.906 C 275 257.968 270 252.968 264.062 252.968 Z M 264.062 271.718 L 250 271.718 L 250 259.218 L 235.937 259.218 C 232.5 259.218 229.687 261.093 228.125 262.968 C 228.75 259.218 231.875 256.093 235.937 256.093 L 264.062 256.093 C 268.437 256.093 271.875 259.531 271.875 263.906 C 271.875 268.281 268.437 271.718 264.062 271.718 Z" style="fill: rgb(255, 255, 255);" transform="matrix(1, 0, 0, 1, 0, -2.842170943040401e-14)"/>
</svg>