<?xml version="1.0" encoding="utf-8"?>
<svg viewBox="188.872 188.872 122.256 122.256" width="122.256" height="122.256" xmlns="http://www.w3.org/2000/svg">
  <g transform="matrix(1, 0, 0, 1, 188.45399475097656, 188.55599975585938)">
    <path d="M122.674 30.88c0-16.869-13.695-30.564-30.564-30.564H30.982C14.113.316.418 14.011.418 30.88v61.128c0 16.869 13.695 30.564 30.564 30.564H92.11c16.869 0 30.564-13.695 30.564-30.564V30.88z" fill="#b0bec5"/>
  </g>
  <g transform="matrix(0.1523440033197403, 0, 0, 0.1523440033197403, 210.99993896484375, 210.99993896484375)"/>
  <g id="Flat" transform="matrix(1, 0, 0, 1, 218, 218)"/>
  <path d="M 271.082 229.012 C 268.657 226.587 265.298 225.094 261.94 225.094 C 258.582 225.094 255.224 226.4 252.612 229.012 L 228.918 252.706 C 226.493 255.131 225 258.49 225 261.848 C 225 265.392 226.306 268.564 228.918 270.99 C 231.343 273.415 234.701 274.907 238.06 274.907 C 241.418 274.907 244.776 273.601 247.388 270.99 L 271.082 247.295 C 273.507 244.87 275 241.512 275 238.154 C 275 234.795 273.507 231.437 271.082 229.012 Z M 244.776 268.564 C 243.097 270.243 240.672 271.363 238.246 271.363 C 235.821 271.363 233.396 270.43 231.716 268.564 C 230.037 266.698 228.918 264.46 228.918 262.034 C 228.918 259.609 229.851 257.184 231.716 255.504 L 242.351 244.87 L 255.597 258.116 L 244.776 268.564 Z" style="fill: rgb(255, 255, 255);"/>
</svg>