<?xml version="1.0" encoding="utf-8"?>
<svg viewBox="188.872 188.872 122.256 122.256" width="122.256" height="122.256" xmlns="http://www.w3.org/2000/svg">
  <g transform="matrix(0.9999999999999999, 0, 0, 0.9999999999999999, 188.45399475097656, 188.55599975585938)">
    <path d="M122.674 30.88c0-16.869-13.695-30.564-30.564-30.564H30.982C14.113.316.418 14.011.418 30.88v61.128c0 16.869 13.695 30.564 30.564 30.564H92.11c16.869 0 30.564-13.695 30.564-30.564V30.88z" fill="#b0bec5"/>
  </g>
  <g transform="matrix(0.1523440033197403, 0, 0, 0.1523440033197403, 210.99993896484375, 210.99993896484375)">
    <path class="st0" d="M 407.582 172.479 L 408.387 173.958 L 408.542 173.958 L 405.885 169.438 C 374.987 117.166 316.623 83.531 255.763 82.917 C 225.963 83.08 195.396 91.258 169.427 106.077 C 142.183 122.016 119.933 145.157 105.34 170.757 C 90.981 196.525 83.042 226.73 82.898 256.238 C 83.013 285.144 90.704 315.64 106.05 342.545 C 136.948 394.807 195.309 428.469 256.18 429.082 C 285.99 428.919 316.537 420.739 342.503 405.921 C 362.137 394.49 379.767 378.989 393.321 361.458 C 406.717 343.829 417.144 322.779 423.114 300.798 C 427.013 286.079 429.102 270.512 429.102 255.638 C 429.102 227.161 421.493 198.017 407.582 172.479 Z M 383.98 290.321 C 379.382 307.815 371.833 323.016 361.14 336.822 C 350.608 350.717 337.894 361.906 322.24 370.846 C 301.881 382.777 279.656 388.718 256.164 388.566 C 207.878 389.185 164.625 364.202 141.123 322.275 C 128.749 301.182 123.279 279.138 123.404 256.232 C 123.26 232.901 129.055 210.894 140.635 190.644 C 151.981 170.235 168.012 153.482 189.694 141.162 C 210.061 129.219 232.289 123.27 255.777 123.432 C 304.062 122.814 347.315 147.792 370.816 189.73 C 382.934 210.419 388.576 232.273 388.576 255.639 C 388.576 267.384 387.146 278.657 383.98 290.321 Z" style="fill: rgb(255, 255, 255); stroke-width: 196.923px;"/>
    <path class="st0" d="M 240.626 264.863 C 243.781 270.332 249.66 273.728 255.98 273.728 C 259.075 273.728 262.14 272.906 264.825 271.354 C 273.298 266.466 276.213 255.599 271.325 247.135 C 268.16 241.667 262.281 238.271 255.951 238.271 C 252.866 238.271 249.801 239.092 247.107 240.645 C 238.643 245.543 235.738 256.4 240.626 264.863 Z" style="fill: rgb(255, 255, 255);"/>
    <path class="st0" d="M 239.994 228.335 L 196.134 152.364 C 157.854 174.469 136.399 214.673 136.329 255.999 L 224.039 255.999 C 224.07 244.972 229.778 234.235 239.994 228.335 Z" style="fill: rgb(255, 255, 255);"/>
    <path class="st0" d="M 315.796 152.384 L 271.935 228.345 C 276.713 231.11 280.79 235.096 283.634 240.024 C 286.479 244.962 287.931 250.44 287.901 255.999 L 375.611 255.999 C 375.651 235.637 370.503 215.024 359.605 196.164 C 348.728 177.303 333.434 162.53 315.796 152.384 Z" style="fill: rgb(255, 255, 255);"/>
    <path class="st0" d="M 271.935 283.663 C 267.098 286.468 261.569 287.951 255.98 287.951 C 250.291 287.951 244.782 286.418 240.004 283.654 L 196.144 359.615 C 231.961 380.218 277.524 381.75 315.805 359.645 L 271.955 283.664 L 271.935 283.664 L 271.935 283.663 Z" style="fill: rgb(255, 255, 255);"/>
  </g>
</svg>