<?xml version="1.0" encoding="utf-8"?>
<svg viewBox="188.872 188.872 122.256 122.256" width="122.256" height="122.256" xmlns="http://www.w3.org/2000/svg">
  <g transform="matrix(0.9999999999999999, 0, 0, 0.9999999999999999, 188.45399475097656, 188.55599975585938)">
    <path d="M122.674 30.88c0-16.869-13.695-30.564-30.564-30.564H30.982C14.113.316.418 14.011.418 30.88v61.128c0 16.869 13.695 30.564 30.564 30.564H92.11c16.869 0 30.564-13.695 30.564-30.564V30.88z" fill="#b0bec5"/>
  </g>
  <g transform="matrix(0.1523440033197403, 0, 0, 0.1523440033197403, 210.99993896484375, 210.99993896484375)"/>
  <g id="Flat" transform="matrix(0.9999999999999999, 0, 0, 0.9999999999999999, 218, 218)"/>
  <path d="M 248.056 238.333 L 242.514 238.333 C 236.677 238.254 231.607 242.335 230.439 248.056 L 218.889 248.056 L 218.889 251.944 L 230.419 251.944 C 231.567 257.686 236.661 261.781 242.514 261.667 L 248.056 261.667 L 248.056 238.333 Z" class="clr-i-solid clr-i-solid-path-1" style="fill: rgb(255, 255, 255);" transform="matrix(0.9999999999999999, 0, 0, 0.9999999999999999, 0, 2.842170943040401e-14)"/>
  <path d="M 269.892 248.056 C 268.723 242.321 263.631 238.234 257.778 238.333 L 251.944 238.333 L 251.944 261.667 L 257.778 261.667 C 263.632 261.781 268.725 257.686 269.872 251.944 L 281.111 251.944 L 281.111 248.056 L 269.892 248.056 Z" class="clr-i-solid clr-i-solid-path-2" style="fill: rgb(255, 255, 255);" transform="matrix(0.9999999999999999, 0, 0, 0.9999999999999999, 0, 2.842170943040401e-14)"/>
  <rect x="215" y="215" width="70" height="70" fill-opacity="0" style="fill: rgb(255, 255, 255);" transform="matrix(0.9999999999999999, 0, 0, 0.9999999999999999, 0, 2.842170943040401e-14)"/>
</svg>